<?xml version="1.0" encoding="UTF-8" standalone="no"?>
<!-- Created with Inkscape (http://www.inkscape.org/) -->

<svg
   width="44.739902mm"
   height="13.529298mm"
   viewBox="0 0 44.739902 13.529298"
   version="1.1"
   id="svg1"
   xml:space="preserve"
   inkscape:version="1.4 (unknown)"
   sodipodi:docname="flag-bot-put.svg"
   xmlns:inkscape="http://www.inkscape.org/namespaces/inkscape"
   xmlns:sodipodi="http://sodipodi.sourceforge.net/DTD/sodipodi-0.dtd"
   xmlns="http://www.w3.org/2000/svg"
   xmlns:svg="http://www.w3.org/2000/svg"><sodipodi:namedview
     id="namedview1"
     pagecolor="#000d1b"
     bordercolor="#000000"
     borderopacity="0.25"
     inkscape:showpageshadow="2"
     inkscape:pageopacity="0.0"
     inkscape:pagecheckerboard="true"
     inkscape:deskcolor="#d1d1d1"
     inkscape:document-units="mm"
     labelstyle="default"
     borderlayer="true"
     inkscape:zoom="1.2950984"
     inkscape:cx="172.95983"
     inkscape:cy="154.04235"
     inkscape:window-width="1920"
     inkscape:window-height="1118"
     inkscape:window-x="0"
     inkscape:window-y="27"
     inkscape:window-maximized="1"
     inkscape:current-layer="layer1"
     showgrid="false" /><defs
     id="defs1"><style
       id="style1-8">.cls-1{fill:#e21b1b;}.cls-2{fill:#1a1a1a;}</style><marker
       style="overflow:visible"
       id="marker60"
       refX="0"
       refY="0"
       orient="auto-start-reverse"
       inkscape:stockid="Concave triangle arrow"
       markerWidth="1"
       markerHeight="1"
       viewBox="0 0 1 1"
       inkscape:isstock="true"
       inkscape:collect="always"
       preserveAspectRatio="xMidYMid"><path
         transform="scale(0.7)"
         d="M -2,-4 9,0 -2,4 c 2,-2.33 2,-5.66 0,-8 z"
         style="fill:context-stroke;fill-rule:evenodd;stroke:none"
         id="path60" /></marker></defs><g
     inkscape:label="Layer 1"
     inkscape:groupmode="layer"
     id="layer1"
     transform="translate(-76.243612,-14.639958)"><text
       xml:space="preserve"
       style="font-style:normal;font-variant:normal;font-weight:500;font-stretch:normal;font-size:7.7611px;font-family:Montserrat;-inkscape-font-specification:'Montserrat Medium';text-align:start;letter-spacing:0.3175px;writing-mode:lr-tb;direction:ltr;text-anchor:start;fill:#ffffff;stroke:#ffffff;stroke-width:2.565;stroke-dasharray:none;stroke-opacity:1"
       x="109.58406"
       y="40.136509"
       id="text11"><tspan
         sodipodi:role="line"
         id="tspan11"
         style="stroke-width:2.565"
         x="109.58406"
         y="40.136509" /></text><g
       id="g34" /><g
       id="g69"
       transform="translate(0,-1.0133254)"><g
         id="g19"
         transform="matrix(0.94611137,0,0,0.94611137,32.084352,-49.896938)"><rect
           style="fill:#f90000;fill-opacity:0.485788;stroke:#ffffff;stroke-width:0.465279;stroke-opacity:1"
           id="rect18"
           width="18.252741"
           height="13.83462"
           x="75.477303"
           y="69.516472"
           ry="5.6114964" /><text
           xml:space="preserve"
           style="font-style:normal;font-variant:normal;font-weight:normal;font-stretch:normal;font-size:2.65825px;font-family:Montserrat;-inkscape-font-specification:Montserrat;text-align:start;letter-spacing:0.108747px;writing-mode:lr-tb;direction:ltr;text-anchor:start;fill:#ffffff;fill-opacity:1;stroke:none;stroke-width:0.0906225;stroke-opacity:1"
           x="78.52562"
           y="74.683685"
           id="text18"><tspan
             sodipodi:role="line"
             id="tspan18"
             style="font-style:normal;font-variant:normal;font-weight:500;font-stretch:normal;font-family:Montserrat;-inkscape-font-specification:'Montserrat Medium';fill:#ffffff;fill-opacity:1;stroke:none;stroke-width:0.0906225"
             x="78.52562"
             y="74.683685">Service 1</tspan></text></g><g
         id="g23"
         transform="translate(18.307175,-61.018191)"><g
           id="g22"
           transform="matrix(0.94611137,0,0,0.94611137,8.6297317,14.751336)"><rect
             style="fill:#ffffff;fill-opacity:0.485788;stroke:#ffffff;stroke-width:0.465279;stroke-opacity:1"
             id="rect21"
             width="6.0943031"
             height="6.3970437"
             x="76.448296"
             y="69.398415"
             ry="1.9457045" /></g><text
           xml:space="preserve"
           style="font-style:normal;font-variant:normal;font-weight:normal;font-stretch:normal;font-size:2.515px;font-family:Montserrat;-inkscape-font-specification:Montserrat;text-align:start;letter-spacing:0.102887px;writing-mode:lr-tb;direction:ltr;text-anchor:start;fill:#000000;fill-opacity:1;stroke:none;stroke-width:0.085739;stroke-opacity:1"
           x="82.146278"
           y="84.316376"
           id="text22"><tspan
             sodipodi:role="line"
             id="tspan22"
             style="font-style:normal;font-variant:normal;font-weight:500;font-stretch:normal;font-family:Montserrat;-inkscape-font-specification:'Montserrat Medium';fill:#000000;fill-opacity:1;stroke:none;stroke-width:0.085739"
             x="82.146278"
             y="84.316376">80</tspan></text></g><path
         class="st0"
         d="m 81.985254,19.022815 v 1.092448 h 3.010521 c 0.487829,0 0.886716,0.398888 0.886716,0.886717 v 1.120297 h 1.205646 c 0.106908,0 0.194953,0.08714 0.194953,0.194952 v 2.271143 c 0,0.106908 -0.08715,0.194952 -0.194953,0.194952 h -1.205646 v 1.120298 c 0,0.487828 -0.398887,0.886716 -0.886716,0.886716 h -6.558284 c -0.487827,0 -0.886714,-0.398888 -0.886714,-0.886716 v -1.120298 h -1.112214 c -0.107806,0 -0.194951,-0.08713 -0.194951,-0.194053 v -2.272042 c 0,-0.106907 0.08715,-0.194952 0.194951,-0.194952 h 1.112214 v -1.1194 c 0,-0.487828 0.398887,-0.886714 0.886714,-0.886714 h 3.010522 v -1.093348 c -0.345881,-0.113198 -0.594737,-0.437517 -0.594737,-0.821132 0,-0.477047 0.386309,-0.863357 0.863359,-0.863357 0.477047,0 0.863356,0.38631 0.863356,0.863357 0,0.383615 -0.249755,0.707935 -0.594737,0.821132 z m -2.055528,5.479312 h 3.666349 c 0.178781,0 0.32522,0.146437 0.32522,0.325218 v 0.152728 c 0,0.17878 -0.146439,0.325219 -0.32522,0.325219 h -3.666349 c -0.178781,0 -0.325219,-0.146439 -0.325219,-0.325219 v -0.152728 c 0,-0.179679 0.146438,-0.325218 0.325219,-0.325218 z m 3.384253,-2.888341 c 0.482439,0 0.874139,0.390802 0.874139,0.874138 0,0.482439 -0.390802,0.87324 -0.874139,0.87324 -0.483335,0 -0.873239,-0.390801 -0.873239,-0.87324 -8.83e-4,-0.483336 0.3908,-0.874138 0.873239,-0.874138 z m -3.101259,0 c 0.482438,0 0.873241,0.390802 0.873241,0.874138 0,0.482439 -0.390803,0.87324 -0.873241,0.87324 -0.482438,0 -0.873239,-0.390801 -0.873239,-0.87324 0,-0.483336 0.390801,-0.874138 0.873239,-0.874138 z"
         id="path1"
         style="clip-rule:evenodd;fill:#ffffff;fill-opacity:1;fill-rule:evenodd;stroke-width:0.0898394" /><g
         id="g63"
         transform="matrix(0.03088178,0,0,0.03088178,86.97469,17.362313)"><path
           class="cls-1"
           d="M 18,81.08 12.22,24.18 A 4.3,4.3 0 0 1 14.39,20 C 41.59,2.6 54.66,9.66 66.7,16.16 76.22,21.3 84.92,26 103.75,10 a 4.45,4.45 0 0 1 6.2,0.44 4.22,4.22 0 0 1 1,2.42 l 5.78,56.89 a 4.23,4.23 0 0 1 -1.38,3.57 C 93.56,93.16 80.35,86.48 66.75,79.59 55.74,74 44.35,68.25 25.21,84.12 A 4.47,4.47 0 0 1 19,83.62 4.26,4.26 0 0 1 18,81.08 Z"
           id="path1-9"
           style="fill:#e21b1b" /><path
           class="cls-2"
           d="m 17.89,16.71 9.88,98.6 a 6.89,6.89 0 1 1 -13.71,1.35 L 4.21,18.38 a 10.15,10.15 0 1 1 13.68,-1.67 z"
           id="path2"
           style="fill:#ffffff;fill-opacity:1" /></g><path
         style="display:inline;fill:none;fill-rule:evenodd;stroke:#ffffff;stroke-width:0.565;stroke-linecap:butt;stroke-linejoin:miter;stroke-dasharray:none;stroke-opacity:1;marker-end:url(#marker60)"
         d="m 89.293674,22.944158 4.915994,-0.04261"
         id="path76"
         inkscape:connector-type="polyline"
         inkscape:connector-curvature="0" /></g></g><style
     type="text/css"
     id="style1">.st0{fill-rule:evenodd;clip-rule:evenodd;}</style></svg>
