<?xml version="1.0" encoding="UTF-8" standalone="no"?>
<!-- Created with Inkscape (http://www.inkscape.org/) -->

<svg
   width="11.039478mm"
   height="9.4520121mm"
   viewBox="0 0 11.039478 9.452012"
   version="1.1"
   id="svg1"
   xml:space="preserve"
   inkscape:version="1.4 (unknown)"
   sodipodi:docname="flag-bot-icon.svg"
   xmlns:inkscape="http://www.inkscape.org/namespaces/inkscape"
   xmlns:sodipodi="http://sodipodi.sourceforge.net/DTD/sodipodi-0.dtd"
   xmlns="http://www.w3.org/2000/svg"
   xmlns:svg="http://www.w3.org/2000/svg"><sodipodi:namedview
     id="namedview1"
     pagecolor="#000d1b"
     bordercolor="#000000"
     borderopacity="0.25"
     inkscape:showpageshadow="2"
     inkscape:pageopacity="0.0"
     inkscape:pagecheckerboard="true"
     inkscape:deskcolor="#d1d1d1"
     inkscape:document-units="mm"
     labelstyle="default"
     borderlayer="true"
     inkscape:zoom="3.0261211"
     inkscape:cx="128.87786"
     inkscape:cy="107.8939"
     inkscape:window-width="1920"
     inkscape:window-height="998"
     inkscape:window-x="0"
     inkscape:window-y="27"
     inkscape:window-maximized="1"
     inkscape:current-layer="layer1"
     showgrid="false" /><defs
     id="defs1"><style
       id="style1-8">.cls-1{fill:#e21b1b;}.cls-2{fill:#1a1a1a;}</style></defs><g
     inkscape:label="Layer 1"
     inkscape:groupmode="layer"
     id="layer1"
     transform="translate(-76.234526,-17.208086)"><g
       id="g69"
       transform="translate(0,-1.0133254)"><path
         class="st0"
         d="m 81.976168,19.9059 v 1.092448 h 3.010521 c 0.487829,0 0.886716,0.398888 0.886716,0.886717 v 1.120297 h 1.205646 c 0.106908,0 0.194953,0.08714 0.194953,0.194952 v 2.271143 c 0,0.106908 -0.08715,0.194952 -0.194953,0.194952 h -1.205646 v 1.120298 c 0,0.487828 -0.398887,0.886716 -0.886716,0.886716 h -6.558284 c -0.487827,0 -0.886714,-0.398888 -0.886714,-0.886716 v -1.120298 h -1.112214 c -0.107806,0 -0.194951,-0.08713 -0.194951,-0.194053 v -2.272042 c 0,-0.106907 0.08715,-0.194952 0.194951,-0.194952 h 1.112214 v -1.1194 c 0,-0.487828 0.398887,-0.886714 0.886714,-0.886714 h 3.010522 V 19.9059 c -0.345881,-0.113198 -0.594737,-0.437517 -0.594737,-0.821132 0,-0.477047 0.386309,-0.863357 0.863359,-0.863357 0.477047,0 0.863356,0.38631 0.863356,0.863357 0,0.383615 -0.249755,0.707935 -0.594737,0.821132 z m -2.055528,5.479312 h 3.666349 c 0.178781,0 0.32522,0.146437 0.32522,0.325218 v 0.152728 c 0,0.17878 -0.146439,0.325219 -0.32522,0.325219 H 79.92064 c -0.178781,0 -0.325219,-0.146439 -0.325219,-0.325219 V 25.71043 c 0,-0.179679 0.146438,-0.325218 0.325219,-0.325218 z m 3.384253,-2.888341 c 0.482439,0 0.874139,0.390802 0.874139,0.874138 0,0.482439 -0.390802,0.87324 -0.874139,0.87324 -0.483335,0 -0.873239,-0.390801 -0.873239,-0.87324 -8.83e-4,-0.483336 0.3908,-0.874138 0.873239,-0.874138 z m -3.101259,0 c 0.482438,0 0.873241,0.390802 0.873241,0.874138 0,0.482439 -0.390803,0.87324 -0.873241,0.87324 -0.482438,0 -0.873239,-0.390801 -0.873239,-0.87324 0,-0.483336 0.390801,-0.874138 0.873239,-0.874138 z"
         id="path1"
         style="fill:#ffffff;fill-opacity:1;stroke-width:0.0898394" /></g></g><style
     type="text/css"
     id="style1">.st0{fill-rule:evenodd;clip-rule:evenodd;}</style></svg>
