<?xml version="1.0" encoding="UTF-8" standalone="no"?>
<!-- Created with Inkscape (http://www.inkscape.org/) -->

<svg
   width="65.05584mm"
   height="76.271011mm"
   viewBox="0 0 65.05584 76.271011"
   version="1.1"
   id="svg1"
   xml:space="preserve"
   inkscape:version="1.4 (unknown)"
   sodipodi:docname="nat.svg"
   xmlns:inkscape="http://www.inkscape.org/namespaces/inkscape"
   xmlns:sodipodi="http://sodipodi.sourceforge.net/DTD/sodipodi-0.dtd"
   xmlns="http://www.w3.org/2000/svg"
   xmlns:svg="http://www.w3.org/2000/svg"><sodipodi:namedview
     id="namedview1"
     pagecolor="#000d1b"
     bordercolor="#000000"
     borderopacity="0.25"
     inkscape:showpageshadow="2"
     inkscape:pageopacity="0.0"
     inkscape:pagecheckerboard="true"
     inkscape:deskcolor="#d1d1d1"
     inkscape:document-units="mm"
     labelstyle="default"
     borderlayer="true"
     inkscape:zoom="3.2419742"
     inkscape:cx="141.5804"
     inkscape:cy="178.74911"
     inkscape:window-width="1920"
     inkscape:window-height="1118"
     inkscape:window-x="0"
     inkscape:window-y="27"
     inkscape:window-maximized="1"
     inkscape:current-layer="layer1"
     showgrid="false" /><defs
     id="defs1"><marker
       style="overflow:visible"
       id="marker60"
       refX="0"
       refY="0"
       orient="auto-start-reverse"
       inkscape:stockid="Concave triangle arrow"
       markerWidth="1"
       markerHeight="1"
       viewBox="0 0 1 1"
       inkscape:isstock="true"
       inkscape:collect="always"
       preserveAspectRatio="xMidYMid"><path
         transform="scale(0.7)"
         d="M -2,-4 9,0 -2,4 c 2,-2.33 2,-5.66 0,-8 z"
         style="fill:context-stroke;fill-rule:evenodd;stroke:none"
         id="path60" /></marker><style
       id="style1-8">.cls-1{fill:#e21b1b;}.cls-2{fill:#1a1a1a;}</style></defs><g
     inkscape:label="Layer 1"
     inkscape:groupmode="layer"
     id="layer1"
     transform="translate(-72.472079,-47.859919)"><g
       id="g17"
       transform="translate(69.078299,93.269553)"><g
         style="fill:#ffffff;fill-opacity:1"
         id="g1"
         transform="matrix(0.01433509,0,0,0.01433509,51.415104,20.551064)"><g
           id="g4"
           style="fill:#ffffff;fill-opacity:1">
	<g
   id="g3"
   style="fill:#ffffff;fill-opacity:1">
		<path
   d="M 662.914,632.351 H 530.07 254.474 c -11.49,0 -20.806,9.315 -20.806,20.806 v 12.805 c 0,11.49 9.315,20.81 20.806,20.81 h 275.598 132.844 68.82 v -54.418 z"
   id="path1"
   style="fill:#ffffff;fill-opacity:1" />
		<circle
   cx="211.187"
   cy="189.625"
   r="115.19"
   id="circle1"
   style="fill:#ffffff;fill-opacity:1" />
		<path
   d="m 492.234,472.147 -263.969,-0.146 -6.25,-0.02 v -30.632 l -0.217,-25.64 c 0,-61.245 -49.651,-110.898 -110.899,-110.898 -2.075,0 -4.136,0.07 -6.184,0.182 l -0.156,-0.182 C 46.813,304.813 0,351.625 0,409.372 V 704.675 H 222.015 V 578.876 l -2.937,-0.231 c -0.209,-0.019 -0.261,0.002 -0.391,0.002 -15.021,0 -29.417,-6.324 -39.562,-17.399 L 89.013,462.885 c -2.873,-3.135 -2.66,-8.003 0.476,-10.874 3.133,-2.873 8.003,-2.659 10.874,0.476 l 90.111,98.362 c 7.322,7.993 17.648,12.881 28.521,13.039 0.723,0.01 10.594,0.152 10.594,0.152 h 262.645 c 25.375,0 45.947,-20.571 45.947,-45.947 10e-4,-25.376 -20.572,-45.946 -45.947,-45.946 z"
   id="path2"
   style="fill:#ffffff;fill-opacity:1" />
		<path
   d="m 765.197,309.111 c -10.744,-3.681 -22.439,2.049 -26.123,12.794 l -87.209,254.59 H 339.803 c -11.356,0 -20.567,9.206 -20.567,20.564 0,11.358 9.211,20.566 20.567,20.566 H 666.31 c 6.994,0 13.168,-3.503 16.879,-8.841 1.283,-1.694 2.33,-3.607 3.059,-5.729 L 778,335.225 c 3.67,-10.739 -2.053,-22.435 -12.803,-26.114 z"
   id="path3"
   style="fill:#ffffff;fill-opacity:1" />
	</g>
</g></g></g><rect
       style="fill:#ffffff;fill-opacity:0.485788;stroke:#ffffff;stroke-width:0.264583;stroke-opacity:1"
       id="rect16"
       width="64.79126"
       height="28.44157"
       x="72.60437"
       y="47.99221"
       ry="3.191004" /><text
       xml:space="preserve"
       style="font-style:normal;font-variant:normal;font-weight:normal;font-stretch:normal;font-size:7.7611px;font-family:Montserrat;-inkscape-font-specification:Montserrat;text-align:start;letter-spacing:0.3175px;writing-mode:lr-tb;direction:ltr;text-anchor:start;fill:#ffffff;fill-opacity:1;stroke:none;stroke-width:0.264583;stroke-opacity:1"
       x="87.921745"
       y="56.753815"
       id="text17"><tspan
         sodipodi:role="line"
         id="tspan17"
         style="font-style:normal;font-variant:normal;font-weight:500;font-stretch:normal;font-family:Montserrat;-inkscape-font-specification:'Montserrat Medium';fill:#ffffff;fill-opacity:1;stroke:none;stroke-width:0.264583"
         x="87.921745"
         y="56.753815">Vulnbox</tspan></text><text
       xml:space="preserve"
       style="font-style:normal;font-variant:normal;font-weight:500;font-stretch:normal;font-size:7.7611px;font-family:Montserrat;-inkscape-font-specification:'Montserrat Medium';text-align:start;letter-spacing:0.3175px;writing-mode:lr-tb;direction:ltr;text-anchor:start;fill:#ffffff;stroke:#ffffff;stroke-width:2.565;stroke-dasharray:none;stroke-opacity:1"
       x="109.58406"
       y="40.136509"
       id="text11"><tspan
         sodipodi:role="line"
         id="tspan11"
         style="stroke-width:2.565"
         x="109.58406"
         y="40.136509" /></text><g
       id="g19"
       transform="matrix(0.94611137,0,0,0.94611137,4.2992485,4.5042129)"><rect
         style="fill:#f90000;fill-opacity:0.485788;stroke:#ffffff;stroke-width:0.465279;stroke-opacity:1"
         id="rect18"
         width="18.252741"
         height="13.83462"
         x="75.477303"
         y="69.516472"
         ry="5.6114964" /><text
         xml:space="preserve"
         style="font-style:normal;font-variant:normal;font-weight:normal;font-stretch:normal;font-size:2.65825px;font-family:Montserrat;-inkscape-font-specification:Montserrat;text-align:start;letter-spacing:0.108747px;writing-mode:lr-tb;direction:ltr;text-anchor:start;fill:#ffffff;fill-opacity:1;stroke:none;stroke-width:0.0906225;stroke-opacity:1"
         x="78.52562"
         y="74.683685"
         id="text18"><tspan
           sodipodi:role="line"
           id="tspan18"
           style="font-style:normal;font-variant:normal;font-weight:500;font-stretch:normal;font-family:Montserrat;-inkscape-font-specification:'Montserrat Medium';fill:#ffffff;fill-opacity:1;stroke:none;stroke-width:0.0906225"
           x="78.52562"
           y="74.683685">Service 1</tspan></text></g><g
       id="g20"
       transform="matrix(0.94611137,0,0,0.94611137,24.955503,4.5042129)"><rect
         style="fill:#1bf900;fill-opacity:0.485788;stroke:#ffffff;stroke-width:0.465279;stroke-opacity:1"
         id="rect19"
         width="18.252741"
         height="13.83462"
         x="75.477303"
         y="69.516472"
         ry="5.6114964" /><text
         xml:space="preserve"
         style="font-style:normal;font-variant:normal;font-weight:normal;font-stretch:normal;font-size:2.65825px;font-family:Montserrat;-inkscape-font-specification:Montserrat;text-align:start;letter-spacing:0.108747px;writing-mode:lr-tb;direction:ltr;text-anchor:start;fill:#ffffff;fill-opacity:1;stroke:none;stroke-width:0.0906225;stroke-opacity:1"
         x="78.160126"
         y="74.683685"
         id="text19"><tspan
           sodipodi:role="line"
           id="tspan19"
           style="font-style:normal;font-variant:normal;font-weight:500;font-stretch:normal;font-family:Montserrat;-inkscape-font-specification:'Montserrat Medium';fill:#ffffff;fill-opacity:1;stroke:none;stroke-width:0.0906225"
           x="78.160126"
           y="74.683685">Service 2</tspan></text></g><g
       id="g23"
       transform="translate(0.50246733)"><g
         id="g22"
         transform="matrix(0.94611137,0,0,0.94611137,8.6297317,14.751336)"><rect
           style="fill:#ffffff;fill-opacity:0.485788;stroke:#ffffff;stroke-width:0.465279;stroke-opacity:1"
           id="rect21"
           width="6.0943031"
           height="6.3970437"
           x="76.448296"
           y="69.398415"
           ry="1.9457045" /></g><text
         xml:space="preserve"
         style="font-style:normal;font-variant:normal;font-weight:normal;font-stretch:normal;font-size:2.515px;font-family:Montserrat;-inkscape-font-specification:Montserrat;text-align:start;letter-spacing:0.102887px;writing-mode:lr-tb;direction:ltr;text-anchor:start;fill:#000000;fill-opacity:1;stroke:none;stroke-width:0.085739;stroke-opacity:1"
         x="82.146278"
         y="84.316376"
         id="text22"><tspan
           sodipodi:role="line"
           id="tspan22"
           style="font-style:normal;font-variant:normal;font-weight:500;font-stretch:normal;font-family:Montserrat;-inkscape-font-specification:'Montserrat Medium';fill:#000000;fill-opacity:1;stroke:none;stroke-width:0.085739"
           x="82.146278"
           y="84.316376">80</tspan></text></g><g
       id="g25"
       transform="translate(20.416603)"><g
         id="g24"
         transform="matrix(0.94611137,0,0,0.94611137,9.3718505,14.751336)"><rect
           style="fill:#ffffff;fill-opacity:0.485788;stroke:#ffffff;stroke-width:0.465279;stroke-opacity:1"
           id="rect23"
           width="6.0943031"
           height="6.3970437"
           x="76.448296"
           y="69.398415"
           ry="1.9457045" /></g><text
         xml:space="preserve"
         style="font-style:normal;font-variant:normal;font-weight:normal;font-stretch:normal;font-size:1.92649px;font-family:Montserrat;-inkscape-font-specification:Montserrat;text-align:start;letter-spacing:0.0788114px;writing-mode:lr-tb;direction:ltr;text-anchor:start;fill:#000000;fill-opacity:1;stroke:none;stroke-width:0.065676;stroke-opacity:1"
         x="82.477638"
         y="84.112747"
         id="text24"><tspan
           sodipodi:role="line"
           id="tspan24"
           style="font-style:normal;font-variant:normal;font-weight:500;font-stretch:normal;font-family:Montserrat;-inkscape-font-specification:'Montserrat Medium';fill:#000000;fill-opacity:1;stroke:none;stroke-width:0.065676"
           x="82.477638"
           y="84.112747">1337</tspan></text></g><g
       id="g34" /><g
       id="g59"
       transform="translate(0,6.9081906)"><g
         id="g35"
         transform="matrix(0.05794347,0,0,0.05794347,87.382664,98.626498)"><g
           style="fill:#ffffff;fill-opacity:1"
           id="g33"
           transform="matrix(0.24709122,0,0,0.24709122,2470.0304,74.202467)"><g
             id="g32"
             style="fill:#ffffff;fill-opacity:1"
             transform="translate(-10597.891,290.52623)">
	<g
   id="g31"
   style="fill:#ffffff;fill-opacity:1">
		<path
   d="M 662.914,632.351 H 530.07 254.474 c -11.49,0 -20.806,9.315 -20.806,20.806 v 12.805 c 0,11.49 9.315,20.81 20.806,20.81 h 275.598 132.844 68.82 v -54.418 z"
   id="path29"
   style="fill:#ffffff;fill-opacity:1" />
		<circle
   cx="211.187"
   cy="189.625"
   r="115.19"
   id="circle29"
   style="fill:#ffffff;fill-opacity:1" />
		
		<path
   d="m 765.197,309.111 c -10.744,-3.681 -22.439,2.049 -26.123,12.794 l -87.209,254.59 H 339.803 c -11.356,0 -20.567,9.206 -20.567,20.564 0,11.358 9.211,20.566 20.567,20.566 H 666.31 c 6.994,0 13.168,-3.503 16.879,-8.841 1.283,-1.694 2.33,-3.607 3.059,-5.729 L 778,335.225 c 3.67,-10.739 -2.053,-22.435 -12.803,-26.114 z"
   id="path31"
   style="fill:#ffffff;fill-opacity:1" />
	</g>
</g></g><path
           id="path33"
           style="opacity:1;fill:#3d3d3d;fill-opacity:1;stroke:none;stroke-width:2.565;stroke-dasharray:none;stroke-opacity:1"
           d="m -101.3473,158.64923 c -35.37304,-0.70196 -29.07513,53.34069 -36.9564,57.52259 -8.1355,4.3168 -10.79211,27.22934 -10.79211,27.22934 l 0.48059,31.16554 v 45.54141 h 54.857635 v -31.08389 l -0.725537,-0.0574 c -0.05164,-0.005 -0.06451,5.1e-4 -0.09664,5.1e-4 -3.711557,0 -7.268888,-1.56242 -9.775628,-4.29896 l -22.26582,-24.30446 c -0.70989,-0.77463 -0.65706,-1.97777 0.11782,-2.68717 0.77414,-0.70989 1.97726,-0.65681 2.68666,0.11782 l 22.26582,24.30446 c 1.8092,1.975 4.36049,3.18247 7.047113,3.22151 0.178647,0.002 2.617928,0.0377 2.617928,0.0377 h 64.89733 c 6.26994,0 11.352796,-5.08312 11.352796,-11.35331 2.47e-4,-6.27019 -5.082856,-11.35279 -11.352796,-11.35279 l -65.224442,-0.0362 -1.544609,-0.005 v -7.56905 l -0.05374,-6.33553 c 0,-0.58919 -0.05121,-1.16515 -0.08785,-1.74511 l 0.09198,-5.88491 c 0,0 12.781014,-12.93076 20.418426,-32.19032 7.637412,-19.25957 3.821955,-38.7051 3.821955,-38.7051 0,0 11.124129,-6.80692 -28.225151,-11.28975 -1.229665,-0.14009 -2.41428,-0.21972 -3.55534,-0.24236 z"
           sodipodi:nodetypes="csccccccscccccccsccccccccscsc" /><path
           style="opacity:1;fill:#292929;fill-opacity:1;stroke:none;stroke-width:44.2673;stroke-dasharray:none;stroke-opacity:1"
           d="m -69.566793,170.18088 c 0,0 -12.798256,8.64671 -20.140755,25.41138 -5.894437,13.45839 -4.099591,45.48403 -4.099591,45.48403 0,0 18.780932,-21.35906 23.389175,-34.50073 4.608242,-13.14167 0.851171,-36.39468 0.851171,-36.39468 z"
           id="path35"
           sodipodi:nodetypes="csczc" /><path
           style="opacity:1;fill:#ffffff;fill-opacity:1;stroke:none;stroke-width:2.565;stroke-dasharray:none;stroke-opacity:1"
           d="m -72.955705,173.1722 c 0,0 9.353037,15.78123 2.517503,31.26378 -6.895782,15.61901 -23.40821,16.75231 -23.40821,16.75231 0,0 0.02617,-17.43034 5.231491,-27.95413 5.205317,-10.52379 15.659216,-20.06196 15.659216,-20.06196 z"
           id="path34"
           sodipodi:nodetypes="cscsc" /></g></g><path
       style="display:inline;fill:none;fill-rule:evenodd;stroke:#ffffff;stroke-width:0.565;stroke-linecap:butt;stroke-linejoin:miter;stroke-dasharray:none;stroke-opacity:1;marker-end:url(#marker60)"
       d="m 84.216425,112.73129 0.0073,-20.140097"
       id="path59"
       inkscape:connector-type="polyline"
       inkscape:connector-curvature="0" /><g
       id="g5"
       transform="translate(40.357232,-7.0023412)"><g
         id="g2"
         transform="matrix(0.94611137,0,0,0.94611137,9.3718505,14.751336)"><rect
           style="fill:#ffffff;fill-opacity:0.485788;stroke:#ffffff;stroke-width:0.465279;stroke-opacity:1"
           id="rect1"
           width="6.0943031"
           height="6.3970437"
           x="76.448296"
           y="69.398415"
           ry="1.9457045" /></g><text
         xml:space="preserve"
         style="font-style:normal;font-variant:normal;font-weight:normal;font-stretch:normal;font-size:1.92649px;font-family:Montserrat;-inkscape-font-specification:Montserrat;text-align:start;letter-spacing:0.0788114px;writing-mode:lr-tb;direction:ltr;text-anchor:start;fill:#000000;fill-opacity:1;stroke:none;stroke-width:0.065676;stroke-opacity:1"
         x="82.58773"
         y="84.112747"
         id="text2"><tspan
           sodipodi:role="line"
           id="tspan2"
           style="font-style:normal;font-variant:normal;font-weight:500;font-stretch:normal;font-family:Montserrat;-inkscape-font-specification:'Montserrat Medium';fill:#000000;fill-opacity:1;stroke:none;stroke-width:0.065676"
           x="82.58773"
           y="84.112747">SSH</tspan></text></g><path
       class="st0"
       d="m 105.43168,116.36341 v 1.09245 h 3.01052 c 0.48783,0 0.88672,0.39889 0.88672,0.88672 v 1.12029 h 1.20564 c 0.10691,0 0.19495,0.0871 0.19495,0.19496 v 2.27114 c 0,0.10691 -0.0872,0.19495 -0.19495,0.19495 h -1.20564 v 1.1203 c 0,0.48782 -0.39889,0.88671 -0.88672,0.88671 h -6.55828 c -0.48783,0 -0.88672,-0.39889 -0.88672,-0.88671 v -1.1203 h -1.11221 c -0.10781,0 -0.19495,-0.0871 -0.19495,-0.19405 v -2.27204 c 0,-0.10691 0.0871,-0.19496 0.19495,-0.19496 h 1.11221 v -1.1194 c 0,-0.48782 0.39889,-0.88671 0.88672,-0.88671 h 3.01052 v -1.09335 c -0.34588,-0.1132 -0.59474,-0.43751 -0.59474,-0.82113 0,-0.47705 0.38631,-0.86336 0.86336,-0.86336 0.47705,0 0.86336,0.38631 0.86336,0.86336 0,0.38362 -0.24976,0.70794 -0.59474,0.82113 z m -2.05553,5.47931 h 3.66635 c 0.17878,0 0.32522,0.14644 0.32522,0.32522 v 0.15273 c 0,0.17878 -0.14644,0.32522 -0.32522,0.32522 h -3.66635 c -0.17878,0 -0.32522,-0.14644 -0.32522,-0.32522 v -0.15273 c 0,-0.17968 0.14644,-0.32522 0.32522,-0.32522 z m 3.38425,-2.88834 c 0.48244,0 0.87414,0.39081 0.87414,0.87414 0,0.48244 -0.3908,0.87324 -0.87414,0.87324 -0.48333,0 -0.87324,-0.3908 -0.87324,-0.87324 -8.8e-4,-0.48333 0.3908,-0.87414 0.87324,-0.87414 z m -3.10126,0 c 0.48244,0 0.87325,0.39081 0.87325,0.87414 0,0.48244 -0.39081,0.87324 -0.87325,0.87324 -0.48243,0 -0.87323,-0.3908 -0.87323,-0.87324 0,-0.48333 0.3908,-0.87414 0.87323,-0.87414 z"
       id="path1-3"
       style="fill:#ffffff;fill-opacity:1;stroke-width:0.0898394" /><path
       style="display:inline;fill:none;fill-rule:evenodd;stroke:#ffffff;stroke-width:0.565;stroke-linecap:butt;stroke-linejoin:miter;stroke-dasharray:none;stroke-opacity:1;marker-end:url(#marker60)"
       d="M 84.216425,112.73129 101.66404,92.095283"
       id="path5"
       inkscape:connector-type="polyline"
       inkscape:connector-curvature="0" /><path
       style="display:inline;fill:none;fill-rule:evenodd;stroke:#ffffff;stroke-width:0.565;stroke-linecap:butt;stroke-linejoin:miter;stroke-dasharray:none;stroke-opacity:1;marker-end:url(#marker60)"
       d="m 105.09392,112.50095 0.5679,-19.909757"
       id="path6"
       inkscape:connector-type="polyline"
       inkscape:connector-curvature="0" /><path
       style="display:inline;fill:none;fill-rule:evenodd;stroke:#ffffff;stroke-width:0.565;stroke-linecap:butt;stroke-linejoin:miter;stroke-dasharray:none;stroke-opacity:1;marker-end:url(#marker60)"
       d="M 104.8581,112.55336 88.113354,91.91815"
       id="path7"
       inkscape:connector-type="polyline"
       inkscape:connector-curvature="0" /><path
       style="display:inline;fill:none;fill-rule:evenodd;stroke:#ffffff;stroke-width:0.565;stroke-linecap:butt;stroke-linejoin:miter;stroke-dasharray:none;stroke-opacity:1;marker-end:url(#marker60)"
       d="m 124.78519,112.73129 0.17185,-28.341296"
       id="path8"
       inkscape:connector-type="polyline"
       inkscape:connector-curvature="0" /><rect
       style="fill:#d98900;fill-opacity:0.742988;stroke:#ffffff;stroke-width:0.564999"
       id="rect8"
       width="56.062626"
       height="7.0853138"
       x="76.245438"
       y="96.877884"
       ry="1.840853" /><text
       xml:space="preserve"
       style="font-weight:500;font-size:1.41111px;font-family:Montserrat;-inkscape-font-specification:'Montserrat Medium';text-align:start;letter-spacing:0.3175px;writing-mode:lr-tb;direction:ltr;text-anchor:start;fill:#f9e500;fill-opacity:0.485788;stroke:#ffffff;stroke-width:0.564999"
       x="79.876663"
       y="99.712006"
       id="text8"><tspan
         sodipodi:role="line"
         id="tspan8"
         style="stroke-width:0.565"
         x="79.876663"
         y="99.712006" /></text><text
       xml:space="preserve"
       style="font-style:normal;font-variant:normal;font-weight:normal;font-stretch:normal;font-size:5.64444px;font-family:Montserrat;-inkscape-font-specification:Montserrat;text-align:start;letter-spacing:0.3175px;writing-mode:lr-tb;direction:ltr;text-anchor:start;fill:#ffffff;fill-opacity:1;stroke:none;stroke-width:0.264583;stroke-opacity:1"
       x="79.45903"
       y="102.34451"
       id="text17-0"><tspan
         sodipodi:role="line"
         id="tspan17-1"
         style="font-style:normal;font-variant:normal;font-weight:500;font-stretch:normal;font-size:5.64444px;font-family:Montserrat;-inkscape-font-specification:'Montserrat Medium';fill:#ffffff;fill-opacity:1;stroke:none;stroke-width:0.264583"
         x="79.45903"
         y="102.34451">NAT, TTL reset...</tspan></text></g><style
     type="text/css"
     id="style1">.st0{fill-rule:evenodd;clip-rule:evenodd;}</style></svg>
