<?xml version="1.0" encoding="UTF-8" standalone="no"?>
<!-- Created with Inkscape (http://www.inkscape.org/) -->

<svg
   width="63.822002mm"
   height="42.874416mm"
   viewBox="0 0 63.822003 42.874416"
   version="1.1"
   id="svg1"
   xml:space="preserve"
   inkscape:version="1.4 (unknown)"
   sodipodi:docname="network.svg"
   xmlns:inkscape="http://www.inkscape.org/namespaces/inkscape"
   xmlns:sodipodi="http://sodipodi.sourceforge.net/DTD/sodipodi-0.dtd"
   xmlns="http://www.w3.org/2000/svg"
   xmlns:svg="http://www.w3.org/2000/svg"><sodipodi:namedview
     id="namedview1"
     pagecolor="#000d1b"
     bordercolor="#000000"
     borderopacity="0.25"
     inkscape:showpageshadow="2"
     inkscape:pageopacity="0.0"
     inkscape:pagecheckerboard="true"
     inkscape:deskcolor="#d1d1d1"
     inkscape:document-units="mm"
     labelstyle="default"
     borderlayer="true"
     inkscape:zoom="3.5210345"
     inkscape:cx="121.55518"
     inkscape:cy="89.888354"
     inkscape:window-width="1920"
     inkscape:window-height="1118"
     inkscape:window-x="0"
     inkscape:window-y="27"
     inkscape:window-maximized="1"
     inkscape:current-layer="g23"
     showgrid="false"
     inkscape:connector-spacing="2" /><defs
     id="defs1"><marker
       style="overflow:visible"
       id="marker60"
       refX="0"
       refY="0"
       orient="auto-start-reverse"
       inkscape:stockid="Concave triangle arrow"
       markerWidth="1"
       markerHeight="1"
       viewBox="0 0 1 1"
       inkscape:isstock="true"
       inkscape:collect="always"
       preserveAspectRatio="xMidYMid"><path
         transform="scale(0.7)"
         d="M -2,-4 9,0 -2,4 c 2,-2.33 2,-5.66 0,-8 z"
         style="fill:context-stroke;fill-rule:evenodd;stroke:none"
         id="path60" /></marker><style
       id="style1-8">.cls-1{fill:#e21b1b;}.cls-2{fill:#1a1a1a;}</style></defs><g
     inkscape:label="Layer 1"
     inkscape:groupmode="layer"
     id="layer1"
     transform="translate(-72.418253,-47.859919)"><text
       xml:space="preserve"
       style="font-style:normal;font-variant:normal;font-weight:500;font-stretch:normal;font-size:7.7611px;font-family:Montserrat;-inkscape-font-specification:'Montserrat Medium';text-align:start;letter-spacing:0.3175px;writing-mode:lr-tb;direction:ltr;text-anchor:start;fill:#ffffff;stroke:#ffffff;stroke-width:2.565;stroke-dasharray:none;stroke-opacity:1"
       x="109.58406"
       y="40.136509"
       id="text11"><tspan
         sodipodi:role="line"
         id="tspan11"
         style="stroke-width:2.565"
         x="109.58406"
         y="40.136509" /></text><g
       id="g34" /><path
       style="display:inline;fill:none;fill-rule:evenodd;stroke:#ffffff;stroke-width:0.30669;stroke-linecap:butt;stroke-linejoin:miter;stroke-dasharray:none;stroke-opacity:1;marker-end:url(#marker60)"
       d="M 93.823411,79.766966 V 76.528281"
       id="path59"
       inkscape:connector-type="polyline"
       inkscape:connector-curvature="0" /><path
       class="st0"
       d="m 129.47125,59.849129 v 0.824335 h 2.27166 c 0.36811,0 0.6691,0.300993 0.6691,0.669098 v 0.845343 h 0.90975 c 0.0807,0 0.1471,0.06572 0.1471,0.147112 v 1.713746 c 0,0.08067 -0.0658,0.147105 -0.1471,0.147105 h -0.90975 v 0.845351 c 0,0.368097 -0.30099,0.669089 -0.6691,0.669089 h -4.94871 c -0.36811,0 -0.6691,-0.300992 -0.6691,-0.669089 v -0.845351 h -0.83925 c -0.0813,0 -0.1471,-0.06572 -0.1471,-0.146426 v -1.714425 c 0,-0.08067 0.0657,-0.147112 0.1471,-0.147112 h 0.83925 v -0.844672 c 0,-0.368097 0.30099,-0.669089 0.6691,-0.669089 h 2.27166 v -0.825015 c -0.26099,-0.08542 -0.44878,-0.330135 -0.44878,-0.619605 0,-0.35997 0.2915,-0.65147 0.65148,-0.65147 0.35997,0 0.65147,0.2915 0.65147,0.65147 0,0.28947 -0.18847,0.534194 -0.44878,0.619605 z m -1.55105,4.134552 h 2.76653 c 0.13491,0 0.24541,0.1105 0.24541,0.245403 v 0.115247 c 0,0.134903 -0.1105,0.245403 -0.24541,0.245403 h -2.76653 c -0.13491,0 -0.24541,-0.1105 -0.24541,-0.245403 v -0.115247 c 0,-0.135582 0.1105,-0.245403 0.24541,-0.245403 z m 2.55367,-2.17947 c 0.36404,0 0.6596,0.294895 0.6596,0.659604 0,0.364038 -0.29489,0.658926 -0.6596,0.658926 -0.36471,0 -0.65893,-0.294888 -0.65893,-0.658926 -6.6e-4,-0.364709 0.29489,-0.659604 0.65893,-0.659604 z m -2.34014,0 c 0.36404,0 0.65894,0.294895 0.65894,0.659604 0,0.364038 -0.2949,0.658926 -0.65894,0.658926 -0.36403,0 -0.65891,-0.294888 -0.65891,-0.658926 0,-0.364709 0.29488,-0.659604 0.65891,-0.659604 z"
       id="path1-3"
       style="fill:#ffffff;fill-opacity:1;stroke-width:0.0677906" /><text
       xml:space="preserve"
       style="font-weight:500;font-size:1.41111px;font-family:Montserrat;-inkscape-font-specification:'Montserrat Medium';text-align:start;letter-spacing:0.3175px;writing-mode:lr-tb;direction:ltr;text-anchor:start;fill:#f9e500;fill-opacity:0.485788;stroke:#ffffff;stroke-width:0.564999"
       x="79.876663"
       y="99.712006"
       id="text8"><tspan
         sodipodi:role="line"
         id="tspan8"
         style="stroke-width:0.565"
         x="79.876663"
         y="99.712006" /></text><g
       id="g21"
       transform="translate(81.637715,-16.057108)"><g
         id="g71"
         transform="matrix(0.87712083,0,0,0.87712083,-66.091016,-5.3719208)"><rect
           style="fill:#d98900;fill-opacity:0.742988;stroke:#ffffff;stroke-width:0.564999"
           id="rect8"
           width="32.234779"
           height="11.934001"
           x="76.245438"
           y="96.877884"
           ry="1.840853" /><text
           xml:space="preserve"
           style="font-style:normal;font-variant:normal;font-weight:normal;font-stretch:normal;font-size:5.64444px;font-family:Montserrat;-inkscape-font-specification:Montserrat;text-align:start;letter-spacing:0.3175px;writing-mode:lr-tb;direction:ltr;text-anchor:start;fill:#ffffff;fill-opacity:1;stroke:none;stroke-width:0.264583;stroke-opacity:1"
           x="79.183228"
           y="104.82043"
           id="text17-0"><tspan
             sodipodi:role="line"
             id="tspan17-1"
             style="font-style:normal;font-variant:normal;font-weight:500;font-stretch:normal;font-size:5.64444px;font-family:Montserrat;-inkscape-font-specification:'Montserrat Medium';fill:#ffffff;fill-opacity:1;stroke:none;stroke-width:0.264583"
             x="79.183228"
             y="104.82043">ROUTER</tspan></text></g></g><g
       id="g9"><rect
         style="fill:#ffffff;fill-opacity:0.485788;stroke:#ffffff;stroke-width:0.264583;stroke-opacity:1"
         id="rect16"
         width="8.478364"
         height="8.7320528"
         x="72.550545"
         y="47.99221"
         ry="3.191004" /><text
         xml:space="preserve"
         style="font-style:normal;font-variant:normal;font-weight:normal;font-stretch:normal;font-size:1.69355px;font-family:Montserrat;-inkscape-font-specification:Montserrat;text-align:center;letter-spacing:0.069282px;writing-mode:lr-tb;direction:ltr;text-anchor:middle;fill:#ffffff;fill-opacity:1;stroke:none;stroke-width:0.057735;stroke-opacity:1"
         x="76.845245"
         y="51.921299"
         id="text18-2"><tspan
           sodipodi:role="line"
           id="tspan18-0"
           style="font-style:normal;font-variant:normal;font-weight:500;font-stretch:normal;font-family:Montserrat;-inkscape-font-specification:'Montserrat Medium';text-align:center;text-anchor:middle;fill:#ffffff;fill-opacity:1;stroke:none;stroke-width:0.057735"
           x="76.845245"
           y="51.921299">Vuln</tspan><tspan
           sodipodi:role="line"
           style="font-style:normal;font-variant:normal;font-weight:500;font-stretch:normal;font-family:Montserrat;-inkscape-font-specification:'Montserrat Medium';text-align:center;text-anchor:middle;fill:#ffffff;fill-opacity:1;stroke:none;stroke-width:0.057735"
           x="76.879883"
           y="54.038235"
           id="tspan9">NOP</tspan></text></g><g
       id="g12"
       transform="translate(11.231286)"><rect
         style="fill:#ffffff;fill-opacity:0.485788;stroke:#ffffff;stroke-width:0.264583;stroke-opacity:1"
         id="rect9"
         width="8.478364"
         height="8.7320528"
         x="72.60437"
         y="47.99221"
         ry="3.191004" /><text
         xml:space="preserve"
         style="font-style:normal;font-variant:normal;font-weight:normal;font-stretch:normal;font-size:1.69355px;font-family:Montserrat;-inkscape-font-specification:Montserrat;text-align:center;letter-spacing:0.069282px;writing-mode:lr-tb;direction:ltr;text-anchor:middle;fill:#ffffff;fill-opacity:1;stroke:none;stroke-width:0.057735;stroke-opacity:1"
         x="76.952705"
         y="51.921299"
         id="text12"><tspan
           sodipodi:role="line"
           style="font-style:normal;font-variant:normal;font-weight:500;font-stretch:normal;font-family:Montserrat;-inkscape-font-specification:'Montserrat Medium';text-align:center;text-anchor:middle;fill:#ffffff;fill-opacity:1;stroke:none;stroke-width:0.057735"
           x="76.952705"
           y="51.921299"
           id="tspan12">Vuln</tspan><tspan
           sodipodi:role="line"
           style="font-style:normal;font-variant:normal;font-weight:500;font-stretch:normal;font-family:Montserrat;-inkscape-font-specification:'Montserrat Medium';text-align:center;text-anchor:middle;fill:#ffffff;fill-opacity:1;stroke:none;stroke-width:0.057735"
           x="76.987343"
           y="54.038235"
           id="tspan13">CZE</tspan></text></g><g
       id="g15"
       transform="translate(22.516398)"><rect
         style="fill:#ffffff;fill-opacity:0.485788;stroke:#ffffff;stroke-width:0.264583;stroke-opacity:1"
         id="rect13"
         width="8.478364"
         height="8.7320528"
         x="72.60437"
         y="47.99221"
         ry="3.191004" /><text
         xml:space="preserve"
         style="font-style:normal;font-variant:normal;font-weight:normal;font-stretch:normal;font-size:1.69355px;font-family:Montserrat;-inkscape-font-specification:Montserrat;text-align:center;letter-spacing:0.069282px;writing-mode:lr-tb;direction:ltr;text-anchor:middle;fill:#ffffff;fill-opacity:1;stroke:none;stroke-width:0.057735;stroke-opacity:1"
         x="76.952705"
         y="51.921299"
         id="text15"><tspan
           sodipodi:role="line"
           style="font-style:normal;font-variant:normal;font-weight:500;font-stretch:normal;font-family:Montserrat;-inkscape-font-specification:'Montserrat Medium';text-align:center;text-anchor:middle;fill:#ffffff;fill-opacity:1;stroke:none;stroke-width:0.057735"
           x="76.952705"
           y="51.921299"
           id="tspan14">Vuln</tspan><tspan
           sodipodi:role="line"
           style="font-style:normal;font-variant:normal;font-weight:500;font-stretch:normal;font-family:Montserrat;-inkscape-font-specification:'Montserrat Medium';text-align:center;text-anchor:middle;fill:#ffffff;fill-opacity:1;stroke:none;stroke-width:0.057735"
           x="76.987343"
           y="54.038235"
           id="tspan15">IT</tspan></text></g><g
       id="g18"
       transform="translate(33.80151)"><rect
         style="fill:#ffffff;fill-opacity:0.485788;stroke:#ffffff;stroke-width:0.264583;stroke-opacity:1"
         id="rect15"
         width="8.478364"
         height="8.7320528"
         x="72.60437"
         y="47.99221"
         ry="3.191004" /><text
         xml:space="preserve"
         style="font-style:normal;font-variant:normal;font-weight:normal;font-stretch:normal;font-size:1.69355px;font-family:Montserrat;-inkscape-font-specification:Montserrat;text-align:center;letter-spacing:0.069282px;writing-mode:lr-tb;direction:ltr;text-anchor:middle;fill:#ffffff;fill-opacity:1;stroke:none;stroke-width:0.057735;stroke-opacity:1"
         x="76.952705"
         y="51.921299"
         id="text17"><tspan
           sodipodi:role="line"
           style="font-style:normal;font-variant:normal;font-weight:500;font-stretch:normal;font-family:Montserrat;-inkscape-font-specification:'Montserrat Medium';text-align:center;text-anchor:middle;fill:#ffffff;fill-opacity:1;stroke:none;stroke-width:0.057735"
           x="76.952705"
           y="51.921299"
           id="tspan16">Vuln</tspan><tspan
           sodipodi:role="line"
           style="font-style:normal;font-variant:normal;font-weight:500;font-stretch:normal;font-family:Montserrat;-inkscape-font-specification:'Montserrat Medium';text-align:center;text-anchor:middle;fill:#ffffff;fill-opacity:1;stroke:none;stroke-width:0.057735"
           x="76.987343"
           y="54.038235"
           id="tspan17">GER</tspan></text></g><text
       xml:space="preserve"
       style="font-weight:500;font-size:5.64444px;font-family:Montserrat;-inkscape-font-specification:'Montserrat Medium';text-align:center;letter-spacing:0.3175px;writing-mode:lr-tb;direction:ltr;text-anchor:middle;fill:#d98900;fill-opacity:0.742988;stroke:#ffffff;stroke-width:0.564999"
       x="121.2513"
       y="53.886913"
       id="text20"><tspan
         sodipodi:role="line"
         id="tspan20"
         style="stroke-width:0.565"
         x="121.2513"
         y="53.886913"></tspan></text><text
       xml:space="preserve"
       style="font-style:normal;font-variant:normal;font-weight:normal;font-stretch:normal;font-size:4.53372px;font-family:Montserrat;-inkscape-font-specification:Montserrat;text-align:start;letter-spacing:0.185472px;writing-mode:lr-tb;direction:ltr;text-anchor:start;fill:#ffffff;fill-opacity:1;stroke:none;stroke-width:0.154559;stroke-opacity:1"
       x="117.35015"
       y="52.641594"
       id="text19-0"><tspan
         sodipodi:role="line"
         id="tspan19-6"
         style="font-style:normal;font-variant:normal;font-weight:500;font-stretch:normal;font-family:Montserrat;-inkscape-font-specification:'Montserrat Medium';fill:#ffffff;fill-opacity:1;stroke:none;stroke-width:0.154559"
         x="117.35015"
         y="52.641594">...</tspan><tspan
         sodipodi:role="line"
         style="font-style:normal;font-variant:normal;font-weight:500;font-stretch:normal;font-family:Montserrat;-inkscape-font-specification:'Montserrat Medium';fill:#ffffff;fill-opacity:1;stroke:none;stroke-width:0.154559"
         x="117.35015"
         y="58.308743"
         id="tspan21" /></text><text
       xml:space="preserve"
       style="font-style:normal;font-variant:normal;font-weight:normal;font-stretch:normal;font-size:4.53372px;font-family:Montserrat;-inkscape-font-specification:Montserrat;text-align:start;letter-spacing:0.185472px;writing-mode:lr-tb;direction:ltr;text-anchor:start;fill:#ffffff;fill-opacity:1;stroke:none;stroke-width:0.154559;stroke-opacity:1"
       x="117.35015"
       y="86.232758"
       id="text70"><tspan
         sodipodi:role="line"
         id="tspan69"
         style="font-style:normal;font-variant:normal;font-weight:500;font-stretch:normal;font-family:Montserrat;-inkscape-font-specification:'Montserrat Medium';fill:#ffffff;fill-opacity:1;stroke:none;stroke-width:0.154559"
         x="117.35015"
         y="86.232758">...</tspan><tspan
         sodipodi:role="line"
         style="font-style:normal;font-variant:normal;font-weight:500;font-stretch:normal;font-family:Montserrat;-inkscape-font-specification:'Montserrat Medium';fill:#ffffff;fill-opacity:1;stroke:none;stroke-width:0.154559"
         x="117.35015"
         y="91.89991"
         id="tspan70" /></text><g
       id="g23"
       transform="translate(-2.1915476)"><g
         id="g22"
         transform="translate(2.5088846)"><rect
           style="fill:#ffffff;fill-opacity:0.485788;stroke:#ffffff;stroke-width:0.264583;stroke-opacity:1"
           id="rect9-5"
           width="11.3357"
           height="7.4079237"
           x="72.233208"
           y="82.08503"
           ry="3.191004" /><g
           id="g17"
           transform="matrix(0.36917924,0,0,0.36917924,59.198294,76.140355)"><g
             style="fill:#ffffff;fill-opacity:1"
             id="g1"
             transform="matrix(0.01433509,0,0,0.01433509,51.415104,20.551064)"><g
               id="g4"
               style="fill:#ffffff;fill-opacity:1">
	<g
   id="g3"
   style="fill:#ffffff;fill-opacity:1">
		<path
   d="M 662.914,632.351 H 530.07 254.474 c -11.49,0 -20.806,9.315 -20.806,20.806 v 12.805 c 0,11.49 9.315,20.81 20.806,20.81 h 275.598 132.844 68.82 v -54.418 z"
   id="path1"
   style="fill:#ffffff;fill-opacity:1" />
		<circle
   cx="211.187"
   cy="189.625"
   r="115.19"
   id="circle1"
   style="fill:#ffffff;fill-opacity:1" />
		<path
   d="m 492.234,472.147 -263.969,-0.146 -6.25,-0.02 v -30.632 l -0.217,-25.64 c 0,-61.245 -49.651,-110.898 -110.899,-110.898 -2.075,0 -4.136,0.07 -6.184,0.182 l -0.156,-0.182 C 46.813,304.813 0,351.625 0,409.372 V 704.675 H 222.015 V 578.876 l -2.937,-0.231 c -0.209,-0.019 -0.261,0.002 -0.391,0.002 -15.021,0 -29.417,-6.324 -39.562,-17.399 L 89.013,462.885 c -2.873,-3.135 -2.66,-8.003 0.476,-10.874 3.133,-2.873 8.003,-2.659 10.874,0.476 l 90.111,98.362 c 7.322,7.993 17.648,12.881 28.521,13.039 0.723,0.01 10.594,0.152 10.594,0.152 h 262.645 c 25.375,0 45.947,-20.571 45.947,-45.947 10e-4,-25.376 -20.572,-45.946 -45.947,-45.946 z"
   id="path2"
   style="fill:#ffffff;fill-opacity:1" />
		<path
   d="m 765.197,309.111 c -10.744,-3.681 -22.439,2.049 -26.123,12.794 l -87.209,254.59 H 339.803 c -11.356,0 -20.567,9.206 -20.567,20.564 0,11.358 9.211,20.566 20.567,20.566 H 666.31 c 6.994,0 13.168,-3.503 16.879,-8.841 1.283,-1.694 2.33,-3.607 3.059,-5.729 L 778,335.225 c 3.67,-10.739 -2.053,-22.435 -12.803,-26.114 z"
   id="path3"
   style="fill:#ffffff;fill-opacity:1" />
	</g>
</g></g></g><g
           id="g59"
           transform="matrix(0.36917924,0,0,0.36917924,46.363115,55.551839)"><g
             id="g35"
             transform="matrix(0.05794347,0,0,0.05794347,82.142976,68.033483)"><g
               style="fill:#ffffff;fill-opacity:1"
               id="g33"
               transform="matrix(0.24709122,0,0,0.24709122,2470.0304,74.202467)"><g
                 id="g32"
                 style="fill:#ffffff;fill-opacity:1"
                 transform="translate(-10597.891,290.52623)">
	<g
   id="g31"
   style="fill:#ffffff;fill-opacity:1">
		<path
   d="M 662.914,632.351 H 530.07 254.474 c -11.49,0 -20.806,9.315 -20.806,20.806 v 12.805 c 0,11.49 9.315,20.81 20.806,20.81 h 275.598 132.844 68.82 v -54.418 z"
   id="path29"
   style="fill:#ffffff;fill-opacity:1" />
		<circle
   cx="211.187"
   cy="189.625"
   r="115.19"
   id="circle29"
   style="fill:#ffffff;fill-opacity:1" />
		
		<path
   d="m 765.197,309.111 c -10.744,-3.681 -22.439,2.049 -26.123,12.794 l -87.209,254.59 H 339.803 c -11.356,0 -20.567,9.206 -20.567,20.564 0,11.358 9.211,20.566 20.567,20.566 H 666.31 c 6.994,0 13.168,-3.503 16.879,-8.841 1.283,-1.694 2.33,-3.607 3.059,-5.729 L 778,335.225 c 3.67,-10.739 -2.053,-22.435 -12.803,-26.114 z"
   id="path31"
   style="fill:#ffffff;fill-opacity:1" />
	</g>
</g></g><path
               id="path33"
               style="opacity:1;fill:#3d3d3d;fill-opacity:1;stroke:none;stroke-width:2.565;stroke-dasharray:none;stroke-opacity:1"
               d="m -101.3473,158.64923 c -35.37304,-0.70196 -29.07513,53.34069 -36.9564,57.52259 -8.1355,4.3168 -10.79211,27.22934 -10.79211,27.22934 l 0.48059,31.16554 v 45.54141 h 54.857635 v -31.08389 l -0.725537,-0.0574 c -0.05164,-0.005 -0.06451,5.1e-4 -0.09664,5.1e-4 -3.711557,0 -7.268888,-1.56242 -9.775628,-4.29896 l -22.26582,-24.30446 c -0.70989,-0.77463 -0.65706,-1.97777 0.11782,-2.68717 0.77414,-0.70989 1.97726,-0.65681 2.68666,0.11782 l 22.26582,24.30446 c 1.8092,1.975 4.36049,3.18247 7.047113,3.22151 0.178647,0.002 2.617928,0.0377 2.617928,0.0377 h 64.89733 c 6.26994,0 11.352796,-5.08312 11.352796,-11.35331 2.47e-4,-6.27019 -5.082856,-11.35279 -11.352796,-11.35279 l -65.224442,-0.0362 -1.544609,-0.005 v -7.56905 l -0.05374,-6.33553 c 0,-0.58919 -0.05121,-1.16515 -0.08785,-1.74511 l 0.09198,-5.88491 c 0,0 12.781014,-12.93076 20.418426,-32.19032 7.637412,-19.25957 3.821955,-38.7051 3.821955,-38.7051 0,0 11.124129,-6.80692 -28.225151,-11.28975 -1.229665,-0.14009 -2.41428,-0.21972 -3.55534,-0.24236 z"
               sodipodi:nodetypes="csccccccscccccccsccccccccscsc" /><path
               style="opacity:1;fill:#292929;fill-opacity:1;stroke:none;stroke-width:44.2673;stroke-dasharray:none;stroke-opacity:1"
               d="m -69.566793,170.18088 c 0,0 -12.798256,8.64671 -20.140755,25.41138 -5.894437,13.45839 -4.099591,45.48403 -4.099591,45.48403 0,0 18.780932,-21.35906 23.389175,-34.50073 4.608242,-13.14167 0.851171,-36.39468 0.851171,-36.39468 z"
               id="path35"
               sodipodi:nodetypes="csczc" /><path
               style="opacity:1;fill:#ffffff;fill-opacity:1;stroke:none;stroke-width:2.565;stroke-dasharray:none;stroke-opacity:1"
               d="m -72.955705,173.1722 c 0,0 9.353037,15.78123 2.517503,31.26378 -6.895782,15.61901 -23.40821,16.75231 -23.40821,16.75231 0,0 0.02617,-17.43034 5.231491,-27.95413 5.205317,-10.52379 15.659216,-20.06196 15.659216,-20.06196 z"
               id="path34"
               sodipodi:nodetypes="cscsc" /></g></g></g><text
         xml:space="preserve"
         style="font-style:normal;font-variant:normal;font-weight:normal;font-stretch:normal;font-size:1.69355px;font-family:Montserrat;-inkscape-font-specification:Montserrat;text-align:center;letter-spacing:0.069282px;writing-mode:lr-tb;direction:ltr;text-anchor:middle;fill:#ffffff;fill-opacity:1;stroke:none;stroke-width:0.057735;stroke-opacity:1"
         x="80.454819"
         y="81.332085"
         id="text18-2-2"><tspan
           sodipodi:role="line"
           style="font-style:normal;font-variant:normal;font-weight:500;font-stretch:normal;font-family:Montserrat;-inkscape-font-specification:'Montserrat Medium';text-align:center;text-anchor:middle;fill:#ffffff;fill-opacity:1;stroke:none;stroke-width:0.057735"
           x="80.489456"
           y="81.332085"
           id="tspan9-9">Team CZE</tspan></text><text
         xml:space="preserve"
         style="font-style:normal;font-variant:normal;font-weight:normal;font-stretch:normal;font-size:1.22771px;font-family:Montserrat;-inkscape-font-specification:Montserrat;text-align:center;letter-spacing:0.0502247px;writing-mode:lr-tb;direction:ltr;text-anchor:middle;fill:#ffffff;fill-opacity:1;stroke:none;stroke-width:0.0418539;stroke-opacity:1"
         x="84.925392"
         y="90.734337"
         id="text84"><tspan
           sodipodi:role="line"
           style="font-style:normal;font-variant:normal;font-weight:500;font-stretch:normal;font-family:Montserrat;-inkscape-font-specification:'Montserrat Medium';text-align:center;text-anchor:middle;fill:#ffffff;fill-opacity:1;stroke:none;stroke-width:0.0418539"
           x="84.950508"
           y="90.734337"
           id="tspan84">VPN</tspan></text><text
         xml:space="preserve"
         style="font-style:normal;font-variant:normal;font-weight:normal;font-stretch:normal;font-size:1.22771px;font-family:Montserrat;-inkscape-font-specification:Montserrat;text-align:center;letter-spacing:0.0502247px;writing-mode:lr-tb;direction:ltr;text-anchor:middle;fill:#ffffff;fill-opacity:1;stroke:none;stroke-width:0.0418539;stroke-opacity:1"
         x="99.972214"
         y="90.734337"
         id="text86"><tspan
           sodipodi:role="line"
           style="font-style:normal;font-variant:normal;font-weight:500;font-stretch:normal;font-family:Montserrat;-inkscape-font-specification:'Montserrat Medium';text-align:center;text-anchor:middle;fill:#ffffff;fill-opacity:1;stroke:none;stroke-width:0.0418539"
           x="99.99733"
           y="90.734337"
           id="tspan86">VPN</tspan></text><text
         xml:space="preserve"
         style="font-style:normal;font-variant:normal;font-weight:normal;font-stretch:normal;font-size:1.22771px;font-family:Montserrat;-inkscape-font-specification:Montserrat;text-align:center;letter-spacing:0.0502247px;writing-mode:lr-tb;direction:ltr;text-anchor:middle;fill:#ffffff;fill-opacity:1;stroke:none;stroke-width:0.0418539;stroke-opacity:1"
         x="115.01903"
         y="90.734337"
         id="text87"><tspan
           sodipodi:role="line"
           style="font-style:normal;font-variant:normal;font-weight:500;font-stretch:normal;font-family:Montserrat;-inkscape-font-specification:'Montserrat Medium';text-align:center;text-anchor:middle;fill:#ffffff;fill-opacity:1;stroke:none;stroke-width:0.0418539"
           x="115.04414"
           y="90.734337"
           id="tspan87">VPN</tspan></text></g><g
       id="g42"
       transform="translate(12.855268)"><g
         id="g41"
         transform="translate(2.5088846)"><rect
           style="fill:#ffffff;fill-opacity:0.485788;stroke:#ffffff;stroke-width:0.264583;stroke-opacity:1"
           id="rect23"
           width="11.3357"
           height="7.4079237"
           x="72.233208"
           y="82.08503"
           ry="3.191004" /><g
           id="g28"
           transform="matrix(0.36917924,0,0,0.36917924,59.198294,76.140355)"><g
             style="fill:#ffffff;fill-opacity:1"
             id="g27"
             transform="matrix(0.01433509,0,0,0.01433509,51.415104,20.551064)"><g
               id="g26"
               style="fill:#ffffff;fill-opacity:1">
	<g
   id="g25"
   style="fill:#ffffff;fill-opacity:1">
		<path
   d="M 662.914,632.351 H 530.07 254.474 c -11.49,0 -20.806,9.315 -20.806,20.806 v 12.805 c 0,11.49 9.315,20.81 20.806,20.81 h 275.598 132.844 68.82 v -54.418 z"
   id="path23"
   style="fill:#ffffff;fill-opacity:1" />
		<circle
   cx="211.187"
   cy="189.625"
   r="115.19"
   id="circle23"
   style="fill:#ffffff;fill-opacity:1" />
		<path
   d="m 492.234,472.147 -263.969,-0.146 -6.25,-0.02 v -30.632 l -0.217,-25.64 c 0,-61.245 -49.651,-110.898 -110.899,-110.898 -2.075,0 -4.136,0.07 -6.184,0.182 l -0.156,-0.182 C 46.813,304.813 0,351.625 0,409.372 V 704.675 H 222.015 V 578.876 l -2.937,-0.231 c -0.209,-0.019 -0.261,0.002 -0.391,0.002 -15.021,0 -29.417,-6.324 -39.562,-17.399 L 89.013,462.885 c -2.873,-3.135 -2.66,-8.003 0.476,-10.874 3.133,-2.873 8.003,-2.659 10.874,0.476 l 90.111,98.362 c 7.322,7.993 17.648,12.881 28.521,13.039 0.723,0.01 10.594,0.152 10.594,0.152 h 262.645 c 25.375,0 45.947,-20.571 45.947,-45.947 10e-4,-25.376 -20.572,-45.946 -45.947,-45.946 z"
   id="path24"
   style="fill:#ffffff;fill-opacity:1" />
		<path
   d="m 765.197,309.111 c -10.744,-3.681 -22.439,2.049 -26.123,12.794 l -87.209,254.59 H 339.803 c -11.356,0 -20.567,9.206 -20.567,20.564 0,11.358 9.211,20.566 20.567,20.566 H 666.31 c 6.994,0 13.168,-3.503 16.879,-8.841 1.283,-1.694 2.33,-3.607 3.059,-5.729 L 778,335.225 c 3.67,-10.739 -2.053,-22.435 -12.803,-26.114 z"
   id="path25"
   style="fill:#ffffff;fill-opacity:1" />
	</g>
</g></g></g><g
           id="g40"
           transform="matrix(0.36917924,0,0,0.36917924,46.363115,55.551839)"><g
             id="g39"
             transform="matrix(0.05794347,0,0,0.05794347,82.142976,68.033483)"><g
               style="fill:#ffffff;fill-opacity:1"
               id="g37"
               transform="matrix(0.24709122,0,0,0.24709122,2470.0304,74.202467)"><g
                 id="g36"
                 style="fill:#ffffff;fill-opacity:1"
                 transform="translate(-10597.891,290.52623)">
	<g
   id="g30"
   style="fill:#ffffff;fill-opacity:1">
		<path
   d="M 662.914,632.351 H 530.07 254.474 c -11.49,0 -20.806,9.315 -20.806,20.806 v 12.805 c 0,11.49 9.315,20.81 20.806,20.81 h 275.598 132.844 68.82 v -54.418 z"
   id="path28"
   style="fill:#ffffff;fill-opacity:1" />
		<circle
   cx="211.187"
   cy="189.625"
   r="115.19"
   id="circle28"
   style="fill:#ffffff;fill-opacity:1" />
		
		<path
   d="m 765.197,309.111 c -10.744,-3.681 -22.439,2.049 -26.123,12.794 l -87.209,254.59 H 339.803 c -11.356,0 -20.567,9.206 -20.567,20.564 0,11.358 9.211,20.566 20.567,20.566 H 666.31 c 6.994,0 13.168,-3.503 16.879,-8.841 1.283,-1.694 2.33,-3.607 3.059,-5.729 L 778,335.225 c 3.67,-10.739 -2.053,-22.435 -12.803,-26.114 z"
   id="path30"
   style="fill:#ffffff;fill-opacity:1" />
	</g>
</g></g><path
               id="path37"
               style="opacity:1;fill:#3d3d3d;fill-opacity:1;stroke:none;stroke-width:2.565;stroke-dasharray:none;stroke-opacity:1"
               d="m -101.3473,158.64923 c -35.37304,-0.70196 -29.07513,53.34069 -36.9564,57.52259 -8.1355,4.3168 -10.79211,27.22934 -10.79211,27.22934 l 0.48059,31.16554 v 45.54141 h 54.857635 v -31.08389 l -0.725537,-0.0574 c -0.05164,-0.005 -0.06451,5.1e-4 -0.09664,5.1e-4 -3.711557,0 -7.268888,-1.56242 -9.775628,-4.29896 l -22.26582,-24.30446 c -0.70989,-0.77463 -0.65706,-1.97777 0.11782,-2.68717 0.77414,-0.70989 1.97726,-0.65681 2.68666,0.11782 l 22.26582,24.30446 c 1.8092,1.975 4.36049,3.18247 7.047113,3.22151 0.178647,0.002 2.617928,0.0377 2.617928,0.0377 h 64.89733 c 6.26994,0 11.352796,-5.08312 11.352796,-11.35331 2.47e-4,-6.27019 -5.082856,-11.35279 -11.352796,-11.35279 l -65.224442,-0.0362 -1.544609,-0.005 v -7.56905 l -0.05374,-6.33553 c 0,-0.58919 -0.05121,-1.16515 -0.08785,-1.74511 l 0.09198,-5.88491 c 0,0 12.781014,-12.93076 20.418426,-32.19032 7.637412,-19.25957 3.821955,-38.7051 3.821955,-38.7051 0,0 11.124129,-6.80692 -28.225151,-11.28975 -1.229665,-0.14009 -2.41428,-0.21972 -3.55534,-0.24236 z"
               sodipodi:nodetypes="csccccccscccccccsccccccccscsc" /><path
               style="opacity:1;fill:#292929;fill-opacity:1;stroke:none;stroke-width:44.2673;stroke-dasharray:none;stroke-opacity:1"
               d="m -69.566793,170.18088 c 0,0 -12.798256,8.64671 -20.140755,25.41138 -5.894437,13.45839 -4.099591,45.48403 -4.099591,45.48403 0,0 18.780932,-21.35906 23.389175,-34.50073 4.608242,-13.14167 0.851171,-36.39468 0.851171,-36.39468 z"
               id="path38"
               sodipodi:nodetypes="csczc" /><path
               style="opacity:1;fill:#ffffff;fill-opacity:1;stroke:none;stroke-width:2.565;stroke-dasharray:none;stroke-opacity:1"
               d="m -72.955705,173.1722 c 0,0 9.353037,15.78123 2.517503,31.26378 -6.895782,15.61901 -23.40821,16.75231 -23.40821,16.75231 0,0 0.02617,-17.43034 5.231491,-27.95413 5.205317,-10.52379 15.659216,-20.06196 15.659216,-20.06196 z"
               id="path39"
               sodipodi:nodetypes="cscsc" /></g></g></g><text
         xml:space="preserve"
         style="font-style:normal;font-variant:normal;font-weight:normal;font-stretch:normal;font-size:1.69355px;font-family:Montserrat;-inkscape-font-specification:Montserrat;text-align:center;letter-spacing:0.069282px;writing-mode:lr-tb;direction:ltr;text-anchor:middle;fill:#ffffff;fill-opacity:1;stroke:none;stroke-width:0.057735;stroke-opacity:1"
         x="80.444656"
         y="81.332085"
         id="text41"><tspan
           sodipodi:role="line"
           style="font-style:normal;font-variant:normal;font-weight:500;font-stretch:normal;font-family:Montserrat;-inkscape-font-specification:'Montserrat Medium';text-align:center;text-anchor:middle;fill:#ffffff;fill-opacity:1;stroke:none;stroke-width:0.057735"
           x="80.479294"
           y="81.332085"
           id="tspan41">Team IT</tspan></text></g><g
       id="g69"
       transform="translate(27.902084)"><g
         id="g68"
         transform="translate(2.5088846)"><rect
           style="fill:#ffffff;fill-opacity:0.485788;stroke:#ffffff;stroke-width:0.264583;stroke-opacity:1"
           id="rect54"
           width="11.3357"
           height="7.4079237"
           x="72.233208"
           y="82.08503"
           ry="3.191004" /><g
           id="g60"
           transform="matrix(0.36917924,0,0,0.36917924,59.198294,76.140355)"><g
             style="fill:#ffffff;fill-opacity:1"
             id="g58"
             transform="matrix(0.01433509,0,0,0.01433509,51.415104,20.551064)"><g
               id="g57"
               style="fill:#ffffff;fill-opacity:1">
	<g
   id="g56"
   style="fill:#ffffff;fill-opacity:1">
		<path
   d="M 662.914,632.351 H 530.07 254.474 c -11.49,0 -20.806,9.315 -20.806,20.806 v 12.805 c 0,11.49 9.315,20.81 20.806,20.81 h 275.598 132.844 68.82 v -54.418 z"
   id="path54"
   style="fill:#ffffff;fill-opacity:1" />
		<circle
   cx="211.187"
   cy="189.625"
   r="115.19"
   id="circle54"
   style="fill:#ffffff;fill-opacity:1" />
		<path
   d="m 492.234,472.147 -263.969,-0.146 -6.25,-0.02 v -30.632 l -0.217,-25.64 c 0,-61.245 -49.651,-110.898 -110.899,-110.898 -2.075,0 -4.136,0.07 -6.184,0.182 l -0.156,-0.182 C 46.813,304.813 0,351.625 0,409.372 V 704.675 H 222.015 V 578.876 l -2.937,-0.231 c -0.209,-0.019 -0.261,0.002 -0.391,0.002 -15.021,0 -29.417,-6.324 -39.562,-17.399 L 89.013,462.885 c -2.873,-3.135 -2.66,-8.003 0.476,-10.874 3.133,-2.873 8.003,-2.659 10.874,0.476 l 90.111,98.362 c 7.322,7.993 17.648,12.881 28.521,13.039 0.723,0.01 10.594,0.152 10.594,0.152 h 262.645 c 25.375,0 45.947,-20.571 45.947,-45.947 10e-4,-25.376 -20.572,-45.946 -45.947,-45.946 z"
   id="path55"
   style="fill:#ffffff;fill-opacity:1" />
		<path
   d="m 765.197,309.111 c -10.744,-3.681 -22.439,2.049 -26.123,12.794 l -87.209,254.59 H 339.803 c -11.356,0 -20.567,9.206 -20.567,20.564 0,11.358 9.211,20.566 20.567,20.566 H 666.31 c 6.994,0 13.168,-3.503 16.879,-8.841 1.283,-1.694 2.33,-3.607 3.059,-5.729 L 778,335.225 c 3.67,-10.739 -2.053,-22.435 -12.803,-26.114 z"
   id="path56"
   style="fill:#ffffff;fill-opacity:1" />
	</g>
</g></g></g><g
           id="g67"
           transform="matrix(0.36917924,0,0,0.36917924,46.363115,55.551839)"><g
             id="g66"
             transform="matrix(0.05794347,0,0,0.05794347,82.142976,68.033483)"><g
               style="fill:#ffffff;fill-opacity:1"
               id="g64"
               transform="matrix(0.24709122,0,0,0.24709122,2470.0304,74.202467)"><g
                 id="g63"
                 style="fill:#ffffff;fill-opacity:1"
                 transform="translate(-10597.891,290.52623)">
	<g
   id="g62"
   style="fill:#ffffff;fill-opacity:1">
		<path
   d="M 662.914,632.351 H 530.07 254.474 c -11.49,0 -20.806,9.315 -20.806,20.806 v 12.805 c 0,11.49 9.315,20.81 20.806,20.81 h 275.598 132.844 68.82 v -54.418 z"
   id="path61"
   style="fill:#ffffff;fill-opacity:1" />
		<circle
   cx="211.187"
   cy="189.625"
   r="115.19"
   id="circle61"
   style="fill:#ffffff;fill-opacity:1" />
		
		<path
   d="m 765.197,309.111 c -10.744,-3.681 -22.439,2.049 -26.123,12.794 l -87.209,254.59 H 339.803 c -11.356,0 -20.567,9.206 -20.567,20.564 0,11.358 9.211,20.566 20.567,20.566 H 666.31 c 6.994,0 13.168,-3.503 16.879,-8.841 1.283,-1.694 2.33,-3.607 3.059,-5.729 L 778,335.225 c 3.67,-10.739 -2.053,-22.435 -12.803,-26.114 z"
   id="path62"
   style="fill:#ffffff;fill-opacity:1" />
	</g>
</g></g><path
               id="path64"
               style="opacity:1;fill:#3d3d3d;fill-opacity:1;stroke:none;stroke-width:2.565;stroke-dasharray:none;stroke-opacity:1"
               d="m -101.3473,158.64923 c -35.37304,-0.70196 -29.07513,53.34069 -36.9564,57.52259 -8.1355,4.3168 -10.79211,27.22934 -10.79211,27.22934 l 0.48059,31.16554 v 45.54141 h 54.857635 v -31.08389 l -0.725537,-0.0574 c -0.05164,-0.005 -0.06451,5.1e-4 -0.09664,5.1e-4 -3.711557,0 -7.268888,-1.56242 -9.775628,-4.29896 l -22.26582,-24.30446 c -0.70989,-0.77463 -0.65706,-1.97777 0.11782,-2.68717 0.77414,-0.70989 1.97726,-0.65681 2.68666,0.11782 l 22.26582,24.30446 c 1.8092,1.975 4.36049,3.18247 7.047113,3.22151 0.178647,0.002 2.617928,0.0377 2.617928,0.0377 h 64.89733 c 6.26994,0 11.352796,-5.08312 11.352796,-11.35331 2.47e-4,-6.27019 -5.082856,-11.35279 -11.352796,-11.35279 l -65.224442,-0.0362 -1.544609,-0.005 v -7.56905 l -0.05374,-6.33553 c 0,-0.58919 -0.05121,-1.16515 -0.08785,-1.74511 l 0.09198,-5.88491 c 0,0 12.781014,-12.93076 20.418426,-32.19032 7.637412,-19.25957 3.821955,-38.7051 3.821955,-38.7051 0,0 11.124129,-6.80692 -28.225151,-11.28975 -1.229665,-0.14009 -2.41428,-0.21972 -3.55534,-0.24236 z"
               sodipodi:nodetypes="csccccccscccccccsccccccccscsc" /><path
               style="opacity:1;fill:#292929;fill-opacity:1;stroke:none;stroke-width:44.2673;stroke-dasharray:none;stroke-opacity:1"
               d="m -69.566793,170.18088 c 0,0 -12.798256,8.64671 -20.140755,25.41138 -5.894437,13.45839 -4.099591,45.48403 -4.099591,45.48403 0,0 18.780932,-21.35906 23.389175,-34.50073 4.608242,-13.14167 0.851171,-36.39468 0.851171,-36.39468 z"
               id="path65"
               sodipodi:nodetypes="csczc" /><path
               style="opacity:1;fill:#ffffff;fill-opacity:1;stroke:none;stroke-width:2.565;stroke-dasharray:none;stroke-opacity:1"
               d="m -72.955705,173.1722 c 0,0 9.353037,15.78123 2.517503,31.26378 -6.895782,15.61901 -23.40821,16.75231 -23.40821,16.75231 0,0 0.02617,-17.43034 5.231491,-27.95413 5.205317,-10.52379 15.659216,-20.06196 15.659216,-20.06196 z"
               id="path66"
               sodipodi:nodetypes="cscsc" /></g></g></g><text
         xml:space="preserve"
         style="font-style:normal;font-variant:normal;font-weight:normal;font-stretch:normal;font-size:1.69355px;font-family:Montserrat;-inkscape-font-specification:Montserrat;text-align:center;letter-spacing:0.069282px;writing-mode:lr-tb;direction:ltr;text-anchor:middle;fill:#ffffff;fill-opacity:1;stroke:none;stroke-width:0.057735;stroke-opacity:1"
         x="80.444656"
         y="81.332085"
         id="text68"><tspan
           sodipodi:role="line"
           style="font-style:normal;font-variant:normal;font-weight:500;font-stretch:normal;font-family:Montserrat;-inkscape-font-specification:'Montserrat Medium';text-align:center;text-anchor:middle;fill:#ffffff;fill-opacity:1;stroke:none;stroke-width:0.057735"
           x="80.479294"
           y="81.332085"
           id="tspan68">Team GER</tspan></text></g><g
       id="g70"
       transform="matrix(0.7833672,0,0,0.7833672,31.497907,9.9219587)"><rect
         style="fill:#f9e500;fill-opacity:0.485788;stroke:#ffffff;stroke-width:0.440206;stroke-opacity:1"
         id="rect85"
         width="17.269125"
         height="13.089091"
         x="116.21863"
         y="73.831139"
         ry="5.3091006" /><text
         xml:space="preserve"
         style="font-style:normal;font-variant:normal;font-weight:normal;font-stretch:normal;font-size:2.30379px;font-family:Montserrat;-inkscape-font-specification:Montserrat;text-align:start;letter-spacing:0.0942462px;writing-mode:lr-tb;direction:ltr;text-anchor:start;fill:#ffffff;fill-opacity:1;stroke:none;stroke-width:0.0785385;stroke-opacity:1"
         x="117.33687"
         y="81.182007"
         id="text85"><tspan
           sodipodi:role="line"
           id="tspan85"
           style="font-style:normal;font-variant:normal;font-weight:500;font-stretch:normal;font-family:Montserrat;-inkscape-font-specification:'Montserrat Medium';fill:#ffffff;fill-opacity:1;stroke:none;stroke-width:0.0785385"
           x="117.33687"
           y="81.182007">Gameserver</tspan></text></g><path
       style="display:inline;fill:none;fill-rule:evenodd;stroke:#ffffff;stroke-width:0.30669;stroke-linecap:butt;stroke-linejoin:miter;stroke-dasharray:none;stroke-opacity:1;marker-end:url(#marker60)"
       d="m 108.21757,79.527063 -0.41983,-3.118734"
       id="path71"
       inkscape:connector-type="polyline"
       inkscape:connector-curvature="0" /><path
       style="display:inline;fill:none;fill-rule:evenodd;stroke:#ffffff;stroke-width:0.30669;stroke-linecap:butt;stroke-linejoin:miter;stroke-dasharray:none;stroke-opacity:1;marker-end:url(#marker60)"
       d="M 79.069401,79.587039 83.62755,75.9885"
       id="path78"
       inkscape:connector-type="polyline"
       inkscape:connector-curvature="0" /><path
       style="display:inline;fill:none;fill-rule:evenodd;stroke:#ffffff;stroke-width:0.30669;stroke-linecap:butt;stroke-linejoin:miter;stroke-dasharray:none;stroke-opacity:1;marker-end:url(#marker60)"
       d="m 111.87608,69.391178 8.15669,2.578953"
       id="path79"
       inkscape:connector-type="polyline"
       inkscape:connector-curvature="0" /><path
       style="display:inline;fill:none;fill-rule:evenodd;stroke:#ffffff;stroke-width:0.30669;stroke-linecap:butt;stroke-linejoin:miter;stroke-dasharray:none;stroke-opacity:1;marker-end:url(#marker60)"
       d="m 123.99116,63.15371 -10.49574,3.058758"
       id="path80"
       inkscape:connector-type="polyline"
       inkscape:connector-curvature="0" /><path
       style="display:inline;fill:none;fill-rule:evenodd;stroke:#ffffff;stroke-width:0.30669;stroke-linecap:butt;stroke-linejoin:miter;stroke-dasharray:none;stroke-opacity:1;marker-end:url(#marker60)"
       d="m 109.3571,62.673905 0.65974,-3.538564"
       id="path81"
       inkscape:connector-type="polyline"
       inkscape:connector-curvature="0" /><path
       style="display:inline;fill:none;fill-rule:evenodd;stroke:#ffffff;stroke-width:0.30669;stroke-linecap:butt;stroke-linejoin:miter;stroke-dasharray:none;stroke-opacity:1;marker-end:url(#marker60)"
       d="m 98.921341,62.314051 3e-6,-3.17871"
       id="path82"
       inkscape:connector-type="polyline"
       inkscape:connector-curvature="0" /><path
       style="display:inline;fill:none;fill-rule:evenodd;stroke:#ffffff;stroke-width:0.30669;stroke-linecap:butt;stroke-linejoin:miter;stroke-dasharray:none;stroke-opacity:1;marker-end:url(#marker60)"
       d="M 88.665505,62.553954 88.485581,59.135341"
       id="path83"
       inkscape:connector-type="polyline"
       inkscape:connector-curvature="0" /><path
       style="display:inline;fill:none;fill-rule:evenodd;stroke:#ffffff;stroke-width:0.30669;stroke-linecap:butt;stroke-linejoin:miter;stroke-dasharray:none;stroke-opacity:1;marker-end:url(#marker60)"
       d="M 82.607964,62.434002 79.909059,58.955415"
       id="path84"
       inkscape:connector-type="polyline"
       inkscape:connector-curvature="0" /></g><style
     type="text/css"
     id="style1">.st0{fill-rule:evenodd;clip-rule:evenodd;}</style></svg>
