<?xml version="1.0" encoding="utf-8"?>
<!-- Generator: Adobe Illustrator 19.2.1, SVG Export Plug-In . SVG Version: 6.00 Build 0)  -->
<svg version="1.1" id="Слой_1" xmlns="http://www.w3.org/2000/svg" xmlns:xlink="http://www.w3.org/1999/xlink" x="0px" y="0px"
     viewBox="0 0 237 241.7" style="enable-background:new 0 0 237 241.7;" xml:space="preserve">
<g>
	<path d="M114.5,116.4L65.8,88.3V31.4h-2.4v56.9l-26.7,15.4V16.6h9.7v-2.4H35.5h-1.2v1.2v89.7l-20.1,11.6l1.2,2.1l18.9-10.9v88.5
		v1.2h1.2h10.9v-2.4h-9.7v-88.7l27.9-16.1l43.5,25.1v38.7h2.4l0-37.3l3.4,2l0.6,0.3l0.6-0.3l3.4-2v37.3h2.4l0-38.7l25.9-14.9
		l-1.2-2.1L114.5,116.4z M64.6,89L64.6,89L64.6,89L64.6,89z"/>
    <polygon points="213.7,118.8 214.9,116.7 196.1,105.9 196.1,15.4 196.1,14.2 194.9,14.2 184,14.2 184,16.6 193.7,16.6 193.7,104.5
		180.4,96.8 179.2,98.9 193.7,107.3 193.7,195.2 184,195.2 184,197.6 194.9,197.6 196.1,197.6 196.1,196.4 196.1,108.7 	"/>
    <path d="M164.4,74.2c-8,0-13,5.6-13,14.6s5,14.6,13,14.6s13-5.6,13-14.6S172.4,74.2,164.4,74.2z M164.4,100.1
		c-5.8,0-9.4-4.4-9.4-11.3c0-7,3.6-11.3,9.4-11.3s9.4,4.4,9.4,11.3C173.8,95.7,170.2,100.1,164.4,100.1z"/>
    <path d="M114.5,160.6c-8,0-13,5.6-13,14.6c0,8.9,5,14.6,13,14.6c8,0,13-5.6,13-14.6C127.5,166.2,122.5,160.6,114.5,160.6z
		 M114.5,186.5c-5.8,0-9.4-4.4-9.4-11.3c0-7,3.6-11.3,9.4-11.3c5.8,0,9.4,4.4,9.4,11.3C123.9,182.1,120.3,186.5,114.5,186.5z"/>
    <path d="M215.3,206.3c-3.3,0-5.5,1.2-6.9,3.6h-0.1v-3.4h-3.2v21.1h3.4v-12.2c0-3.6,2.3-6,5.7-6c3.3,0,5.1,1.9,5.1,5.3v12.9h3.4V214
		C222.8,209.3,219.9,206.3,215.3,206.3z"/>
</g>
</svg>

