<?xml version="1.0" encoding="UTF-8" standalone="no"?>
<!-- Created with Inkscape (http://www.inkscape.org/) -->

<svg
   width="103.19734mm"
   height="12.699994mm"
   viewBox="0 0 103.19734 12.699994"
   version="1.1"
   id="svg1"
   inkscape:version="1.4 (e7c3feb100, 2024-10-09)"
   sodipodi:docname="pio_isr.svg"
   xmlns:inkscape="http://www.inkscape.org/namespaces/inkscape"
   xmlns:sodipodi="http://sodipodi.sourceforge.net/DTD/sodipodi-0.dtd"
   xmlns="http://www.w3.org/2000/svg"
   xmlns:svg="http://www.w3.org/2000/svg">
  <sodipodi:namedview
     id="namedview1"
     pagecolor="#ffffff"
     bordercolor="#000000"
     borderopacity="0.25"
     inkscape:showpageshadow="2"
     inkscape:pageopacity="0.0"
     inkscape:pagecheckerboard="0"
     inkscape:deskcolor="#d1d1d1"
     inkscape:document-units="mm"
     inkscape:zoom="0.40494356"
     inkscape:cx="-127.17822"
     inkscape:cy="302.51129"
     inkscape:window-width="638"
     inkscape:window-height="998"
     inkscape:window-x="1280"
     inkscape:window-y="27"
     inkscape:window-maximized="1"
     inkscape:current-layer="layer1" />
  <defs
     id="defs1">
    <clipPath
       clipPathUnits="userSpaceOnUse"
       id="clipPath2">
      <path
         d="m 115,702.4 h 292.52792 v 36 H 115 Z"
         transform="matrix(1.3333333,0,0,1.3333333,-38.333333,-246.13333)"
         id="path2" />
    </clipPath>
    <clipPath
       clipPathUnits="userSpaceOnUse"
       id="clipPath4">
      <path
         d="m 115,702.4 h 292.52792 v 36 H 115 Z"
         transform="matrix(1.3333333,0,0,1.3333333,-38.333333,-246.13333)"
         id="path4" />
    </clipPath>
    <clipPath
       clipPathUnits="userSpaceOnUse"
       id="clipPath6">
      <path
         d="m 115,702.4 h 292.52792 v 36 H 115 Z"
         transform="matrix(1.3333333,0,0,1.3333333,-38.333333,-246.13333)"
         id="path6" />
    </clipPath>
    <clipPath
       clipPathUnits="userSpaceOnUse"
       id="clipPath8">
      <path
         d="m 115,702.4 h 292.52792 v 36 H 115 Z"
         transform="matrix(1.3333333,0,0,1.3333333,-38.333333,-246.13333)"
         id="path8" />
    </clipPath>
    <clipPath
       clipPathUnits="userSpaceOnUse"
       id="clipPath10">
      <path
         d="m 115,702.4 h 292.52792 v 36 H 115 Z"
         transform="matrix(1.3333333,0,0,1.3333333,-38.333333,-246.13333)"
         id="path10" />
    </clipPath>
    <clipPath
       clipPathUnits="userSpaceOnUse"
       id="clipPath12">
      <path
         d="m 115,702.4 h 292.52792 v 36 H 115 Z"
         transform="matrix(1.3333333,0,0,1.3333333,-38.333333,-246.13333)"
         id="path12" />
    </clipPath>
    <clipPath
       clipPathUnits="userSpaceOnUse"
       id="clipPath14">
      <path
         d="m 115,702.4 h 292.52792 v 36 H 115 Z"
         transform="matrix(1.3333333,0,0,1.3333333,-38.333333,-246.13333)"
         id="path14" />
    </clipPath>
    <clipPath
       clipPathUnits="userSpaceOnUse"
       id="clipPath16">
      <path
         d="m 115,702.4 h 292.52792 v 36 H 115 Z"
         transform="matrix(1.3333333,0,0,1.3333333,-38.333333,-246.13333)"
         id="path16" />
    </clipPath>
    <clipPath
       clipPathUnits="userSpaceOnUse"
       id="clipPath18">
      <path
         d="m 115,702.4 h 292.52792 v 36 H 115 Z"
         transform="matrix(1.3333333,0,0,1.3333333,-38.333333,-246.13333)"
         id="path18" />
    </clipPath>
    <clipPath
       clipPathUnits="userSpaceOnUse"
       id="clipPath20">
      <path
         d="m 115,702.4 h 292.52792 v 36 H 115 Z"
         transform="matrix(1.3333333,0,0,1.3333333,-38.333333,-246.13333)"
         id="path20" />
    </clipPath>
    <clipPath
       clipPathUnits="userSpaceOnUse"
       id="clipPath22">
      <path
         d="m 115,702.4 h 292.52792 v 36 H 115 Z"
         transform="matrix(1.3333333,0,0,1.3333333,-38.333333,-246.13333)"
         id="path22" />
    </clipPath>
    <clipPath
       clipPathUnits="userSpaceOnUse"
       id="clipPath24">
      <path
         d="m 115,702.4 h 292.52792 v 36 H 115 Z"
         transform="matrix(1.3333333,0,0,1.3333333,-38.333333,-246.13333)"
         id="path24" />
    </clipPath>
    <clipPath
       clipPathUnits="userSpaceOnUse"
       id="clipPath26">
      <path
         d="m 115,702.4 h 292.52792 v 36 H 115 Z"
         transform="matrix(1.3333333,0,0,1.3333333,-38.333333,-246.13333)"
         id="path26" />
    </clipPath>
    <clipPath
       clipPathUnits="userSpaceOnUse"
       id="clipPath28">
      <path
         d="m 115,702.4 h 292.52792 v 36 H 115 Z"
         transform="matrix(1.3333333,0,0,1.3333333,-38.333333,-246.13333)"
         id="path28" />
    </clipPath>
    <clipPath
       clipPathUnits="userSpaceOnUse"
       id="clipPath30">
      <path
         d="m 115,702.4 h 292.52792 v 36 H 115 Z"
         transform="matrix(1.3333333,0,0,1.3333333,-38.333333,-246.13333)"
         id="path30" />
    </clipPath>
    <clipPath
       clipPathUnits="userSpaceOnUse"
       id="clipPath32">
      <path
         d="m 115,702.4 h 292.52792 v 36 H 115 Z"
         transform="matrix(1.3333333,0,0,1.3333333,-38.333333,-246.13333)"
         id="path32" />
    </clipPath>
    <clipPath
       clipPathUnits="userSpaceOnUse"
       id="clipPath34">
      <path
         d="m 115,702.4 h 292.52792 v 36 H 115 Z"
         transform="matrix(1.3333333,0,0,1.3333333,-38.333333,-246.13333)"
         id="path34" />
    </clipPath>
    <clipPath
       clipPathUnits="userSpaceOnUse"
       id="clipPath36">
      <path
         d="m 115,702.4 h 292.52792 v 36 H 115 Z"
         transform="matrix(1.3333333,0,0,1.3333333,-38.333333,-246.13333)"
         id="path36" />
    </clipPath>
    <clipPath
       clipPathUnits="userSpaceOnUse"
       id="clipPath38">
      <path
         d="m 115,702.4 h 292.52792 v 36 H 115 Z"
         transform="matrix(1.3333333,0,0,1.3333333,-38.333333,-246.13333)"
         id="path38" />
    </clipPath>
    <clipPath
       clipPathUnits="userSpaceOnUse"
       id="clipPath40">
      <path
         d="m 115,702.4 h 292.52792 v 36 H 115 Z"
         transform="matrix(1.3333333,0,0,1.3333333,-38.333333,-246.13333)"
         id="path40" />
    </clipPath>
    <clipPath
       clipPathUnits="userSpaceOnUse"
       id="clipPath42">
      <path
         d="m 115,702.4 h 292.52792 v 36 H 115 Z"
         transform="matrix(1.3333333,0,0,1.3333333,-38.333333,-246.13333)"
         id="path42" />
    </clipPath>
    <clipPath
       clipPathUnits="userSpaceOnUse"
       id="clipPath44">
      <path
         d="m 115,702.4 h 292.52792 v 36 H 115 Z"
         transform="matrix(1.3333333,0,0,1.3333333,-38.333333,-246.13333)"
         id="path44" />
    </clipPath>
    <clipPath
       clipPathUnits="userSpaceOnUse"
       id="clipPath46">
      <path
         d="m 115,702.4 h 292.52792 v 36 H 115 Z"
         transform="matrix(1.3333333,0,0,1.3333333,-38.333333,-246.13333)"
         id="path46" />
    </clipPath>
    <clipPath
       clipPathUnits="userSpaceOnUse"
       id="clipPath48">
      <path
         d="m 115,702.4 h 292.52792 v 36 H 115 Z"
         transform="matrix(1.3333333,0,0,1.3333333,-38.333333,-246.13333)"
         id="path48" />
    </clipPath>
    <clipPath
       clipPathUnits="userSpaceOnUse"
       id="clipPath50">
      <path
         d="m 115,702.4 h 292.52792 v 36 H 115 Z"
         transform="matrix(1.3333333,0,0,1.3333333,-38.333333,-246.13333)"
         id="path50" />
    </clipPath>
    <clipPath
       clipPathUnits="userSpaceOnUse"
       id="clipPath52">
      <path
         d="m 115,702.4 h 292.52792 v 36 H 115 Z"
         transform="matrix(1.3333333,0,0,1.3333333,-38.333333,-246.13333)"
         id="path52" />
    </clipPath>
    <clipPath
       clipPathUnits="userSpaceOnUse"
       id="clipPath54">
      <path
         d="m 115,702.4 h 292.52792 v 36 H 115 Z"
         transform="matrix(1.3333333,0,0,1.3333333,-38.333333,-246.13333)"
         id="path54" />
    </clipPath>
    <clipPath
       clipPathUnits="userSpaceOnUse"
       id="clipPath56">
      <path
         d="m 115,702.4 h 292.52792 v 36 H 115 Z"
         transform="matrix(1.3333333,0,0,1.3333333,-38.333333,-246.13333)"
         id="path56" />
    </clipPath>
    <clipPath
       clipPathUnits="userSpaceOnUse"
       id="clipPath58">
      <path
         d="m 115,702.4 h 292.52792 v 36 H 115 Z"
         transform="matrix(1.3333333,0,0,1.3333333,-38.333333,-246.13333)"
         id="path58" />
    </clipPath>
    <clipPath
       clipPathUnits="userSpaceOnUse"
       id="clipPath60">
      <path
         d="m 115,702.4 h 292.52792 v 36 H 115 Z"
         transform="matrix(1.3333333,0,0,1.3333333,-38.333333,-246.13333)"
         id="path60" />
    </clipPath>
    <clipPath
       clipPathUnits="userSpaceOnUse"
       id="clipPath62">
      <path
         d="m 115,702.4 h 292.52792 v 36 H 115 Z"
         transform="matrix(1.3333333,0,0,1.3333333,-38.333333,-246.13333)"
         id="path62" />
    </clipPath>
    <clipPath
       clipPathUnits="userSpaceOnUse"
       id="clipPath64">
      <path
         d="m 115,702.4 h 292.52792 v 36 H 115 Z"
         transform="matrix(1.3333333,0,0,1.3333333,-38.333333,-246.13333)"
         id="path64" />
    </clipPath>
    <clipPath
       clipPathUnits="userSpaceOnUse"
       id="clipPath66">
      <path
         d="m 115,702.4 h 292.52792 v 36 H 115 Z"
         transform="matrix(1.3333333,0,0,1.3333333,-38.333333,-246.13333)"
         id="path66" />
    </clipPath>
    <clipPath
       clipPathUnits="userSpaceOnUse"
       id="clipPath68">
      <path
         d="m 115,702.4 h 292.52792 v 36 H 115 Z"
         transform="matrix(1.3333333,0,0,1.3333333,-38.333333,-246.13333)"
         id="path68" />
    </clipPath>
    <clipPath
       clipPathUnits="userSpaceOnUse"
       id="clipPath70">
      <path
         d="m 115,702.4 h 292.52792 v 36 H 115 Z"
         transform="matrix(1.3333333,0,0,1.3333333,-38.333333,-246.13333)"
         id="path70" />
    </clipPath>
    <clipPath
       clipPathUnits="userSpaceOnUse"
       id="clipPath72">
      <path
         d="m 115,702.4 h 292.52792 v 36 H 115 Z"
         transform="matrix(1.3333333,0,0,1.3333333,-38.333333,-246.13333)"
         id="path72" />
    </clipPath>
    <clipPath
       clipPathUnits="userSpaceOnUse"
       id="clipPath74">
      <path
         d="m 115,702.4 h 292.52792 v 36 H 115 Z"
         transform="matrix(1.3333333,0,0,1.3333333,-38.333333,-246.13333)"
         id="path74" />
    </clipPath>
    <clipPath
       clipPathUnits="userSpaceOnUse"
       id="clipPath76">
      <path
         d="m 115,702.4 h 292.52792 v 36 H 115 Z"
         transform="matrix(1.3333333,0,0,1.3333333,-38.333333,-246.13333)"
         id="path76" />
    </clipPath>
    <clipPath
       clipPathUnits="userSpaceOnUse"
       id="clipPath78">
      <path
         d="m 115,702.4 h 292.52792 v 36 H 115 Z"
         transform="matrix(1.3333333,0,0,1.3333333,-38.333333,-246.13333)"
         id="path78" />
    </clipPath>
    <clipPath
       clipPathUnits="userSpaceOnUse"
       id="clipPath80">
      <path
         d="m 115,702.4 h 292.52792 v 36 H 115 Z"
         transform="matrix(1.3333333,0,0,1.3333333,-38.333333,-246.13333)"
         id="path80" />
    </clipPath>
    <clipPath
       clipPathUnits="userSpaceOnUse"
       id="clipPath82">
      <path
         d="m 115,702.4 h 292.52792 v 36 H 115 Z"
         transform="matrix(1.3333333,0,0,1.3333333,-38.333333,-246.13333)"
         id="path82" />
    </clipPath>
    <clipPath
       clipPathUnits="userSpaceOnUse"
       id="clipPath84">
      <path
         d="m 115,702.4 h 292.52792 v 36 H 115 Z"
         transform="matrix(1.3333333,0,0,1.3333333,-38.333333,-246.13333)"
         id="path84" />
    </clipPath>
    <clipPath
       clipPathUnits="userSpaceOnUse"
       id="clipPath86">
      <path
         d="m 115,702.4 h 292.52792 v 36 H 115 Z"
         transform="matrix(1.3333333,0,0,1.3333333,-38.333333,-246.13333)"
         id="path86" />
    </clipPath>
    <clipPath
       clipPathUnits="userSpaceOnUse"
       id="clipPath88">
      <path
         d="m 115,702.4 h 292.52792 v 36 H 115 Z"
         transform="matrix(1.3333333,0,0,1.3333333,-38.333333,-246.13333)"
         id="path88" />
    </clipPath>
    <clipPath
       clipPathUnits="userSpaceOnUse"
       id="clipPath90">
      <path
         d="m 115,702.4 h 292.52792 v 36 H 115 Z"
         transform="matrix(1.3333333,0,0,1.3333333,-38.333333,-246.13333)"
         id="path90" />
    </clipPath>
    <clipPath
       clipPathUnits="userSpaceOnUse"
       id="clipPath92">
      <path
         d="m 115,702.4 h 292.52792 v 36 H 115 Z"
         transform="matrix(1.3333333,0,0,1.3333333,-38.333333,-246.13333)"
         id="path92" />
    </clipPath>
    <clipPath
       clipPathUnits="userSpaceOnUse"
       id="clipPath94">
      <path
         d="m 115,702.4 h 292.52792 v 36 H 115 Z"
         transform="matrix(1.3333333,0,0,1.3333333,-38.333333,-246.13333)"
         id="path94" />
    </clipPath>
    <clipPath
       clipPathUnits="userSpaceOnUse"
       id="clipPath96">
      <path
         d="m 115,702.4 h 292.52792 v 36 H 115 Z"
         transform="matrix(1.3333333,0,0,1.3333333,-38.333333,-246.13333)"
         id="path96" />
    </clipPath>
    <clipPath
       clipPathUnits="userSpaceOnUse"
       id="clipPath98">
      <path
         d="m 115,702.4 h 292.52792 v 36 H 115 Z"
         transform="matrix(1.3333333,0,0,1.3333333,-38.333333,-246.13333)"
         id="path98" />
    </clipPath>
    <clipPath
       clipPathUnits="userSpaceOnUse"
       id="clipPath100">
      <path
         d="m 115,702.4 h 292.52792 v 36 H 115 Z"
         transform="matrix(1.3333333,0,0,1.3333333,-38.333333,-246.13333)"
         id="path100" />
    </clipPath>
    <clipPath
       clipPathUnits="userSpaceOnUse"
       id="clipPath102">
      <path
         d="m 115,702.4 h 292.52792 v 36 H 115 Z"
         transform="matrix(1.3333333,0,0,1.3333333,-38.333333,-246.13333)"
         id="path102" />
    </clipPath>
    <clipPath
       clipPathUnits="userSpaceOnUse"
       id="clipPath104">
      <path
         d="m 115,702.4 h 292.52792 v 36 H 115 Z"
         transform="matrix(1.3333333,0,0,1.3333333,-38.333333,-246.13333)"
         id="path104" />
    </clipPath>
    <clipPath
       clipPathUnits="userSpaceOnUse"
       id="clipPath106">
      <path
         d="m 115,702.4 h 292.52792 v 36 H 115 Z"
         transform="matrix(1.3333333,0,0,1.3333333,-38.333333,-246.13333)"
         id="path106" />
    </clipPath>
    <clipPath
       clipPathUnits="userSpaceOnUse"
       id="clipPath108">
      <path
         d="m 115,702.4 h 292.52792 v 36 H 115 Z"
         transform="matrix(1.3333333,0,0,1.3333333,-38.333333,-246.13333)"
         id="path108" />
    </clipPath>
    <clipPath
       clipPathUnits="userSpaceOnUse"
       id="clipPath110">
      <path
         d="m 115,702.4 h 292.52792 v 36 H 115 Z"
         transform="matrix(1.3333333,0,0,1.3333333,-38.333333,-246.13333)"
         id="path110" />
    </clipPath>
    <clipPath
       clipPathUnits="userSpaceOnUse"
       id="clipPath112">
      <path
         d="m 115,702.4 h 292.52792 v 36 H 115 Z"
         transform="matrix(1.3333333,0,0,1.3333333,-38.333333,-246.13333)"
         id="path112" />
    </clipPath>
    <clipPath
       clipPathUnits="userSpaceOnUse"
       id="clipPath114">
      <path
         d="m 115,702.4 h 292.52792 v 36 H 115 Z"
         transform="matrix(1.3333333,0,0,1.3333333,-38.333333,-246.13333)"
         id="path114" />
    </clipPath>
    <clipPath
       clipPathUnits="userSpaceOnUse"
       id="clipPath116">
      <path
         d="m 115,702.4 h 292.52792 v 36 H 115 Z"
         transform="matrix(1.3333333,0,0,1.3333333,-38.333333,-246.13333)"
         id="path116" />
    </clipPath>
    <clipPath
       clipPathUnits="userSpaceOnUse"
       id="clipPath118">
      <path
         d="m 115,702.4 h 292.52792 v 36 H 115 Z"
         transform="matrix(1.3333333,0,0,1.3333333,-38.333333,-246.13333)"
         id="path118" />
    </clipPath>
    <clipPath
       clipPathUnits="userSpaceOnUse"
       id="clipPath120">
      <path
         d="m 115,702.4 h 292.52792 v 36 H 115 Z"
         transform="matrix(1.3333333,0,0,1.3333333,-38.333333,-246.13333)"
         id="path120" />
    </clipPath>
    <clipPath
       clipPathUnits="userSpaceOnUse"
       id="clipPath122">
      <path
         d="m 115,702.4 h 292.52792 v 36 H 115 Z"
         transform="matrix(1.3333333,0,0,1.3333333,-38.333333,-246.13333)"
         id="path122" />
    </clipPath>
    <clipPath
       clipPathUnits="userSpaceOnUse"
       id="clipPath124">
      <path
         d="m 115,702.4 h 292.52792 v 36 H 115 Z"
         transform="matrix(1.3333333,0,0,1.3333333,-38.333333,-246.13333)"
         id="path124" />
    </clipPath>
    <clipPath
       clipPathUnits="userSpaceOnUse"
       id="clipPath126">
      <path
         d="m 115,702.4 h 292.52792 v 36 H 115 Z"
         transform="matrix(1.3333333,0,0,1.3333333,-38.333333,-246.13333)"
         id="path126" />
    </clipPath>
    <clipPath
       clipPathUnits="userSpaceOnUse"
       id="clipPath128">
      <path
         d="m 115,702.4 h 292.52792 v 36 H 115 Z"
         transform="matrix(1.3333333,0,0,1.3333333,-38.333333,-246.13333)"
         id="path128" />
    </clipPath>
    <clipPath
       clipPathUnits="userSpaceOnUse"
       id="clipPath130">
      <path
         d="m 115,702.4 h 292.52792 v 36 H 115 Z"
         transform="matrix(1.3333333,0,0,1.3333333,-38.333333,-246.13333)"
         id="path130" />
    </clipPath>
    <clipPath
       clipPathUnits="userSpaceOnUse"
       id="clipPath132">
      <path
         d="m 115,702.4 h 292.52792 v 36 H 115 Z"
         transform="matrix(1.3333333,0,0,1.3333333,-38.333333,-246.13333)"
         id="path132" />
    </clipPath>
    <clipPath
       clipPathUnits="userSpaceOnUse"
       id="clipPath134">
      <path
         d="m 115,702.4 h 292.52792 v 36 H 115 Z"
         transform="matrix(1.3333333,0,0,1.3333333,-38.333333,-246.13333)"
         id="path134" />
    </clipPath>
    <clipPath
       clipPathUnits="userSpaceOnUse"
       id="clipPath136">
      <path
         d="m 115,702.4 h 292.52792 v 36 H 115 Z"
         transform="matrix(1.3333333,0,0,1.3333333,-38.333333,-246.13333)"
         id="path136" />
    </clipPath>
    <clipPath
       clipPathUnits="userSpaceOnUse"
       id="clipPath138">
      <path
         d="m 115,702.4 h 292.52792 v 36 H 115 Z"
         transform="matrix(1.3333333,0,0,1.3333333,-38.333333,-246.13333)"
         id="path138" />
    </clipPath>
    <clipPath
       clipPathUnits="userSpaceOnUse"
       id="clipPath140">
      <path
         d="m 115,702.4 h 292.52792 v 36 H 115 Z"
         transform="matrix(1.3333333,0,0,1.3333333,-38.333333,-246.13333)"
         id="path140" />
    </clipPath>
    <clipPath
       clipPathUnits="userSpaceOnUse"
       id="clipPath142">
      <path
         d="m 115,702.4 h 292.52792 v 36 H 115 Z"
         transform="matrix(1.3333333,0,0,1.3333333,-38.333333,-246.13333)"
         id="path142" />
    </clipPath>
    <clipPath
       clipPathUnits="userSpaceOnUse"
       id="clipPath144">
      <path
         d="m 115,702.4 h 292.52792 v 36 H 115 Z"
         transform="matrix(1.3333333,0,0,1.3333333,-38.333333,-246.13333)"
         id="path144" />
    </clipPath>
    <clipPath
       clipPathUnits="userSpaceOnUse"
       id="clipPath146">
      <path
         d="m 115,702.4 h 292.52792 v 36 H 115 Z"
         transform="matrix(1.3333333,0,0,1.3333333,-38.333333,-246.13333)"
         id="path146" />
    </clipPath>
    <clipPath
       clipPathUnits="userSpaceOnUse"
       id="clipPath148">
      <path
         d="m 115,702.4 h 292.52792 v 36 H 115 Z"
         transform="matrix(1.3333333,0,0,1.3333333,-38.333333,-246.13333)"
         id="path148" />
    </clipPath>
    <clipPath
       clipPathUnits="userSpaceOnUse"
       id="clipPath150">
      <path
         d="m 115,702.4 h 292.52792 v 36 H 115 Z"
         transform="matrix(1.3333333,0,0,1.3333333,-38.333333,-246.13333)"
         id="path150" />
    </clipPath>
    <clipPath
       clipPathUnits="userSpaceOnUse"
       id="clipPath152">
      <path
         d="m 115,702.4 h 292.52792 v 36 H 115 Z"
         transform="matrix(1.3333333,0,0,1.3333333,-38.333333,-246.13333)"
         id="path152" />
    </clipPath>
    <clipPath
       clipPathUnits="userSpaceOnUse"
       id="clipPath154">
      <path
         d="m 115,702.4 h 292.52792 v 36 H 115 Z"
         transform="matrix(1.3333333,0,0,1.3333333,-38.333333,-246.13333)"
         id="path154" />
    </clipPath>
    <clipPath
       clipPathUnits="userSpaceOnUse"
       id="clipPath156">
      <path
         d="m 115,702.4 h 292.52792 v 36 H 115 Z"
         transform="matrix(1.3333333,0,0,1.3333333,-38.333333,-246.13333)"
         id="path156" />
    </clipPath>
    <clipPath
       clipPathUnits="userSpaceOnUse"
       id="clipPath158">
      <path
         d="m 115,702.4 h 292.52792 v 36 H 115 Z"
         transform="matrix(1.3333333,0,0,1.3333333,-38.333333,-246.13333)"
         id="path158" />
    </clipPath>
    <clipPath
       clipPathUnits="userSpaceOnUse"
       id="clipPath160">
      <path
         d="m 115,702.4 h 292.52792 v 36 H 115 Z"
         transform="matrix(1.3333333,0,0,1.3333333,-38.333333,-246.13333)"
         id="path160" />
    </clipPath>
    <clipPath
       clipPathUnits="userSpaceOnUse"
       id="clipPath162">
      <path
         d="m 115,702.4 h 292.52792 v 36 H 115 Z"
         transform="matrix(1.3333333,0,0,1.3333333,-38.333333,-246.13333)"
         id="path162" />
    </clipPath>
    <clipPath
       clipPathUnits="userSpaceOnUse"
       id="clipPath164">
      <path
         d="m 115,702.4 h 292.52792 v 36 H 115 Z"
         transform="matrix(1.3333333,0,0,1.3333333,-38.333333,-246.13333)"
         id="path164" />
    </clipPath>
    <clipPath
       clipPathUnits="userSpaceOnUse"
       id="clipPath166">
      <path
         d="m 115,702.4 h 292.52792 v 36 H 115 Z"
         transform="matrix(1.3333333,0,0,1.3333333,-38.333333,-246.13333)"
         id="path166" />
    </clipPath>
    <clipPath
       clipPathUnits="userSpaceOnUse"
       id="clipPath168">
      <path
         d="m 115,702.4 h 292.52792 v 36 H 115 Z"
         transform="matrix(1.3333333,0,0,1.3333333,-38.333333,-246.13333)"
         id="path168" />
    </clipPath>
    <clipPath
       clipPathUnits="userSpaceOnUse"
       id="clipPath170">
      <path
         d="m 115,702.4 h 292.52792 v 36 H 115 Z"
         transform="matrix(1.3333333,0,0,1.3333333,-38.333333,-246.13333)"
         id="path170" />
    </clipPath>
    <clipPath
       clipPathUnits="userSpaceOnUse"
       id="clipPath172">
      <path
         d="m 115,702.4 h 292.52792 v 36 H 115 Z"
         transform="matrix(1.3333333,0,0,1.3333333,-38.333333,-246.13333)"
         id="path172" />
    </clipPath>
    <clipPath
       clipPathUnits="userSpaceOnUse"
       id="clipPath174">
      <path
         d="m 115,702.4 h 292.52792 v 36 H 115 Z"
         transform="matrix(1.3333333,0,0,1.3333333,-38.333333,-246.13333)"
         id="path174" />
    </clipPath>
    <clipPath
       clipPathUnits="userSpaceOnUse"
       id="clipPath176">
      <path
         d="m 115,702.4 h 292.52792 v 36 H 115 Z"
         transform="matrix(1.3333333,0,0,1.3333333,-38.333333,-246.13333)"
         id="path176" />
    </clipPath>
    <clipPath
       clipPathUnits="userSpaceOnUse"
       id="clipPath178">
      <path
         d="m 115,702.4 h 292.52792 v 36 H 115 Z"
         transform="matrix(1.3333333,0,0,1.3333333,-38.333333,-246.13333)"
         id="path178" />
    </clipPath>
    <clipPath
       clipPathUnits="userSpaceOnUse"
       id="clipPath180">
      <path
         d="m 115,702.4 h 292.52792 v 36 H 115 Z"
         transform="matrix(1.3333333,0,0,1.3333333,-38.333333,-246.13333)"
         id="path180" />
    </clipPath>
    <clipPath
       clipPathUnits="userSpaceOnUse"
       id="clipPath182">
      <path
         d="m 115,702.4 h 292.52792 v 36 H 115 Z"
         transform="matrix(1.3333333,0,0,1.3333333,-38.333333,-246.13333)"
         id="path182" />
    </clipPath>
    <clipPath
       clipPathUnits="userSpaceOnUse"
       id="clipPath184">
      <path
         d="m 115,702.4 h 292.52792 v 36 H 115 Z"
         transform="matrix(1.3333333,0,0,1.3333333,-38.333333,-246.13333)"
         id="path184" />
    </clipPath>
    <clipPath
       clipPathUnits="userSpaceOnUse"
       id="clipPath186">
      <path
         d="m 115,702.4 h 292.52792 v 36 H 115 Z"
         transform="matrix(1.3333333,0,0,1.3333333,-38.333333,-246.13333)"
         id="path186" />
    </clipPath>
    <clipPath
       clipPathUnits="userSpaceOnUse"
       id="clipPath188">
      <path
         d="m 115,702.4 h 292.52792 v 36 H 115 Z"
         transform="matrix(1.3333333,0,0,1.3333333,-38.333333,-246.13333)"
         id="path188" />
    </clipPath>
    <clipPath
       clipPathUnits="userSpaceOnUse"
       id="clipPath190">
      <path
         d="m 115,702.4 h 292.52792 v 36 H 115 Z"
         transform="matrix(1.3333333,0,0,1.3333333,-38.333333,-246.13333)"
         id="path190" />
    </clipPath>
    <clipPath
       clipPathUnits="userSpaceOnUse"
       id="clipPath192">
      <path
         d="m 115,702.4 h 292.52792 v 36 H 115 Z"
         transform="matrix(1.3333333,0,0,1.3333333,-38.333333,-246.13333)"
         id="path192" />
    </clipPath>
    <clipPath
       clipPathUnits="userSpaceOnUse"
       id="clipPath194">
      <path
         d="m 115,702.4 h 292.52792 v 36 H 115 Z"
         transform="matrix(1.3333333,0,0,1.3333333,-38.333333,-246.13333)"
         id="path194" />
    </clipPath>
    <clipPath
       clipPathUnits="userSpaceOnUse"
       id="clipPath196">
      <path
         d="m 115,702.4 h 292.52792 v 36 H 115 Z"
         transform="matrix(1.3333333,0,0,1.3333333,-38.333333,-246.13333)"
         id="path196" />
    </clipPath>
    <clipPath
       clipPathUnits="userSpaceOnUse"
       id="clipPath198">
      <path
         d="m 115,702.4 h 292.52792 v 36 H 115 Z"
         transform="matrix(1.3333333,0,0,1.3333333,-38.333333,-246.13333)"
         id="path198" />
    </clipPath>
  </defs>
  <g
     inkscape:label="Layer 1"
     inkscape:groupmode="layer"
     id="layer1"
     transform="translate(-78.316667,-150.54791)">
    <path
       id="path1"
       d="m 115,690.4 h 390.03723 v 48 H 115 Z"
       style="fill:#f6f6f6;fill-opacity:1;fill-rule:nonzero;stroke:none"
       transform="matrix(0.26458333,0,0,-0.26458333,47.889584,345.91624)"
       clip-path="url(#clipPath2)" />
    <path
       id="path3"
       d="m 408.15942,719.9 h 35.63086 v 1 h -35.63086 z"
       style="fill:#1d1d1b;fill-opacity:1;fill-rule:nonzero;stroke:none"
       transform="matrix(0.26458333,0,0,-0.26458333,47.889584,345.91624)"
       clip-path="url(#clipPath4)" />
    <path
       id="path5"
       d="M 409.56363,722.25156 408.77701,720.4 409.56363,718.54844 405.17447,720.4 Z"
       style="fill:#1d1d1b;fill-opacity:1;fill-rule:nonzero;stroke:none"
       transform="matrix(0.26458333,0,0,-0.26458333,47.889584,345.91624)"
       clip-path="url(#clipPath6)" />
    <path
       id="path7"
       d="m 306.46263,697.9 h -66.18407 v 15 h 19.80809 v -1 h -18.80809 v -13 h 65.18407 z"
       style="fill:#1d1d1b;fill-opacity:1;fill-rule:nonzero;stroke:none"
       transform="matrix(0.26458333,0,0,-0.26458333,47.889584,345.91624)"
       clip-path="url(#clipPath8)" />
    <path
       id="path9"
       d="m 426.12329,697.9 h -66.18458 v 1 h 65.18458 v 13 h -16.96387 v 1 h 17.96387 z"
       style="fill:#1d1d1b;fill-opacity:1;fill-rule:nonzero;stroke:none"
       transform="matrix(0.26458333,0,0,-0.26458333,47.889584,345.91624)"
       clip-path="url(#clipPath10)" />
    <path
       id="path11"
       d="m 409.56363,710.54844 -0.78662,1.85156 0.78662,1.85156 -4.38916,-1.85156 z"
       style="fill:#1d1d1b;fill-opacity:1;fill-rule:nonzero;stroke:none"
       transform="matrix(0.26458333,0,0,-0.26458333,47.889584,345.91624)"
       clip-path="url(#clipPath12)" />
    <path
       id="path13"
       d="m 316.30736,719.9 h 12.22607 v 1 h -12.22607 z"
       style="fill:#1d1d1b;fill-opacity:1;fill-rule:nonzero;stroke:none"
       transform="matrix(0.26458333,0,0,-0.26458333,47.889584,345.91624)"
       clip-path="url(#clipPath14)" />
    <path
       id="path15"
       d="M 317.71153,722.25156 316.92491,720.4 317.71153,718.54844 313.32237,720.4 Z"
       style="fill:#1d1d1b;fill-opacity:1;fill-rule:nonzero;stroke:none"
       transform="matrix(0.26458333,0,0,-0.26458333,47.889584,345.91624)"
       clip-path="url(#clipPath16)" />
    <path
       id="path17"
       d="m 336.75462,719.9 h 15.18408 v 1 h -15.18408 z"
       style="fill:#1d1d1b;fill-opacity:1;fill-rule:nonzero;stroke:none"
       transform="matrix(0.26458333,0,0,-0.26458333,47.889584,345.91624)"
       clip-path="url(#clipPath18)" />
    <path
       id="path19"
       d="m 168.23526,710.42954 h 53.23526 V 730.4 h -53.23526 z"
       style="fill:#d9e3f1;fill-opacity:1;fill-rule:nonzero;stroke:none"
       transform="matrix(0.26458333,0,0,-0.26458333,47.889584,345.91624)"
       clip-path="url(#clipPath20)" />
    <path
       id="path21"
       d="M 221.72045,710.1793 H 167.9851 V 730.65 h 53.73535 z m -53.23535,0.5 h 52.73535 V 730.15 H 168.4851 Z"
       style="fill:#4896c2;fill-opacity:1;fill-rule:nonzero;stroke:none"
       transform="matrix(0.26458333,0,0,-0.26458333,47.889584,345.91624)"
       clip-path="url(#clipPath22)" />
    <path
       id="path23"
       d="m 186.31322,720.18076 h -1.23925 v -1.77832 h -0.36328 v 4.26563 h 1.38574 c 0.45508,0 0.81054,-0.11036 1.0664,-0.33057 0.25586,-0.2207 0.38379,-0.52881 0.38379,-0.9248 0,-0.27295 -0.0801,-0.51416 -0.24023,-0.72266 -0.16016,-0.20899 -0.375,-0.35303 -0.64453,-0.43311 l 1.0664,-1.8164 v -0.0381 h -0.38379 l -1.03125,1.77832 z m -1.23925,0.30469 h 1.10449 c 0.30273,0 0.5459,0.0859 0.72949,0.2583 0.1836,0.17187 0.27539,0.39502 0.27539,0.66895 0,0.30126 -0.0957,0.53515 -0.28711,0.70117 -0.1914,0.1665 -0.45996,0.24951 -0.80566,0.24951 h -1.0166 z"
       style="fill:#1d1d1b;fill-opacity:1;fill-rule:nonzero;stroke:none"
       transform="matrix(0.26458333,0,0,-0.26458333,47.889584,345.91624)"
       clip-path="url(#clipPath24)" />
    <path
       id="path25"
       d="m 189.82592,720.86338 1.20117,1.80469 h 0.43067 l -1.41211,-2.10352 1.45605,-2.16211 h -0.43359 l -1.24219,1.86328 -1.24805,-1.86328 h -0.42773 l 1.45898,2.16211 -1.41504,2.10352 h 0.43067 z"
       style="fill:#1d1d1b;fill-opacity:1;fill-rule:nonzero;stroke:none"
       transform="matrix(0.26458333,0,0,-0.26458333,47.889584,345.91624)"
       clip-path="url(#clipPath26)" />
    <path
       id="path27"
       d="m 196.00756,720.39756 h -1.98926 v -1.99512 h -0.36035 v 4.26563 h 2.64258 v -0.30469 h -2.28223 v -1.66113 h 1.98926 z"
       style="fill:#1d1d1b;fill-opacity:1;fill-rule:nonzero;stroke:none"
       transform="matrix(0.26458333,0,0,-0.26458333,47.889584,345.91624)"
       clip-path="url(#clipPath28)" />
    <path
       id="path29"
       d="m 197.4724,718.40244 h -0.36035 v 4.26563 h 0.36035 z"
       style="fill:#1d1d1b;fill-opacity:1;fill-rule:nonzero;stroke:none"
       transform="matrix(0.26458333,0,0,-0.26458333,47.889584,345.91624)"
       clip-path="url(#clipPath30)" />
    <path
       id="path31"
       d="m 200.97924,720.39756 h -1.98926 v -1.99512 h -0.36035 v 4.26563 h 2.64258 v -0.30469 h -2.28223 v -1.66113 h 1.98926 z"
       style="fill:#1d1d1b;fill-opacity:1;fill-rule:nonzero;stroke:none"
       transform="matrix(0.26458333,0,0,-0.26458333,47.889584,345.91624)"
       clip-path="url(#clipPath32)" />
    <path
       id="path33"
       d="m 205.15697,720.30381 c 0,-0.39258 -0.0679,-0.73731 -0.20361,-1.03418 -0.13574,-0.29688 -0.32959,-0.52539 -0.58154,-0.68555 -0.25195,-0.16015 -0.54297,-0.24023 -0.87305,-0.24023 -0.49805,0 -0.90039,0.17822 -1.20703,0.53467 -0.30664,0.35644 -0.45996,0.8374 -0.45996,1.44287 v 0.43945 c 0,0.38867 0.0688,0.73291 0.20654,1.03271 0.1377,0.29981 0.33252,0.53028 0.58448,0.69141 0.25195,0.16113 0.54199,0.2417 0.87011,0.2417 0.32813,0 0.61768,-0.0791 0.86865,-0.2373 0.25098,-0.15821 0.44483,-0.38184 0.58155,-0.6709 0.13672,-0.28907 0.20801,-0.62403 0.21386,-1.00489 z m -0.36035,0.46289 c 0,0.51367 -0.11621,0.91601 -0.34863,1.20703 -0.23242,0.29102 -0.55078,0.43652 -0.95508,0.43652 -0.39648,0 -0.7124,-0.14599 -0.94775,-0.43798 -0.23535,-0.292 -0.35303,-0.69971 -0.35303,-1.22315 v -0.44531 c 0,-0.50586 0.11719,-0.90674 0.35156,-1.20264 0.23438,-0.2959 0.55274,-0.44385 0.95508,-0.44385 0.4082,0 0.72656,0.146 0.95508,0.43799 0.22852,0.29199 0.34277,0.69873 0.34277,1.22022 z"
       style="fill:#1d1d1b;fill-opacity:1;fill-rule:nonzero;stroke:none"
       transform="matrix(0.26458333,0,0,-0.26458333,47.889584,345.91624)"
       clip-path="url(#clipPath34)" />
    <path
       id="path35"
       d="m 260.08742,710.42954 h 53.23526 V 730.4 h -53.23526 z"
       style="fill:#d9e3f1;fill-opacity:1;fill-rule:nonzero;stroke:none"
       transform="matrix(0.26458333,0,0,-0.26458333,47.889584,345.91624)"
       clip-path="url(#clipPath36)" />
    <path
       id="path37"
       d="M 313.57249,710.1793 H 259.83763 V 730.65 h 53.73486 z m -53.23486,0.5 h 52.73486 V 730.15 h -52.73486 z"
       style="fill:#4896c2;fill-opacity:1;fill-rule:nonzero;stroke:none"
       transform="matrix(0.26458333,0,0,-0.26458333,47.889584,345.91624)"
       clip-path="url(#clipPath38)" />
    <path
       id="path39"
       d="m 262.61888,718.40244 h -0.36035 v 4.26563 h 0.36035 z"
       style="fill:#1d1d1b;fill-opacity:1;fill-rule:nonzero;stroke:none"
       transform="matrix(0.26458333,0,0,-0.26458333,47.889584,345.91624)"
       clip-path="url(#clipPath40)" />
    <path
       id="path41"
       d="m 264.02806,721.57236 0.0117,-0.54199 c 0.11914,0.19531 0.26758,0.34424 0.44531,0.44678 0.17774,0.10254 0.37403,0.15381 0.58887,0.15381 0.33984,0 0.59277,-0.0957 0.75879,-0.28711 0.16601,-0.19141 0.25,-0.47852 0.25195,-0.86133 v -2.08008 h -0.34863 v 2.08301 c -0.002,0.2832 -0.062,0.49414 -0.18018,0.63281 -0.11816,0.13867 -0.30713,0.20801 -0.56689,0.20801 -0.2168,0 -0.40869,-0.0679 -0.57569,-0.20361 -0.16699,-0.13575 -0.29052,-0.31885 -0.3706,-0.54932 v -2.1709 h -0.34863 v 3.16992 h 0.33398 z"
       style="fill:#1d1d1b;fill-opacity:1;fill-rule:nonzero;stroke:none"
       transform="matrix(0.26458333,0,0,-0.26458333,47.889584,345.91624)"
       clip-path="url(#clipPath42)" />
    <path
       id="path43"
       d="m 269.5388,719.95518 c 0,-0.49414 -0.10937,-0.88623 -0.32812,-1.17627 -0.21875,-0.29004 -0.51172,-0.43506 -0.87891,-0.43506 -0.43359,0 -0.76562,0.15234 -0.99609,0.45703 v -1.61719 h -0.34863 v 4.38867 h 0.32519 l 0.0176,-0.44824 c 0.22851,0.33789 0.55957,0.50684 0.99316,0.50684 0.37891,0 0.67627,-0.14356 0.89209,-0.43067 0.21582,-0.28711 0.32373,-0.68554 0.32373,-1.19531 v -0.0498 z m -0.35156,0.0615 c 0,0.4043 -0.083,0.72363 -0.24902,0.95801 -0.16602,0.23437 -0.39746,0.35156 -0.69434,0.35156 -0.21484,0 -0.39941,-0.0518 -0.55371,-0.15527 -0.1543,-0.10352 -0.27246,-0.25391 -0.35449,-0.45118 v -1.5205 c 0.084,-0.18164 0.2041,-0.32032 0.36035,-0.41602 0.15625,-0.0957 0.34082,-0.14355 0.55371,-0.14355 0.29492,0 0.5249,0.11767 0.68994,0.35302 0.16504,0.23535 0.24756,0.57666 0.24756,1.02393 z"
       style="fill:#1d1d1b;fill-opacity:1;fill-rule:nonzero;stroke:none"
       transform="matrix(0.26458333,0,0,-0.26458333,47.889584,345.91624)"
       clip-path="url(#clipPath44)" />
    <path
       id="path45"
       d="m 272.35423,718.80381 c -0.21093,-0.30664 -0.54785,-0.45996 -1.01074,-0.45996 -0.33789,0 -0.59473,0.0981 -0.77051,0.29443 -0.17578,0.19629 -0.26562,0.48682 -0.26953,0.87158 v 2.0625 h 0.34863 v -2.01855 c 0,-0.60352 0.24414,-0.90527 0.73243,-0.90527 0.50781,0 0.8291,0.20996 0.96386,0.62988 v 2.29394 h 0.35157 v -3.16992 h -0.33985 l -0.006,0.40137 z"
       style="fill:#1d1d1b;fill-opacity:1;fill-rule:nonzero;stroke:none"
       transform="matrix(0.26458333,0,0,-0.26458333,47.889584,345.91624)"
       clip-path="url(#clipPath46)" />
    <path
       id="path47"
       d="m 274.15599,722.38389 v -0.81153 h 0.65625 v -0.28711 h -0.65625 v -2.11474 c 0,-0.17578 0.0317,-0.30713 0.0952,-0.39307 0.0635,-0.0859 0.16943,-0.1289 0.31787,-0.1289 0.0586,0 0.15332,0.01 0.28418,0.0293 l 0.0146,-0.28467 c -0.0918,-0.0327 -0.21679,-0.0493 -0.375,-0.0493 -0.24023,0 -0.41503,0.0698 -0.52441,0.20947 -0.10937,0.13965 -0.16406,0.34522 -0.16406,0.6167 v 2.11523 h -0.58301 v 0.28711 h 0.58301 v 0.81153 h 0.35156 z"
       style="fill:#1d1d1b;fill-opacity:1;fill-rule:nonzero;stroke:none"
       transform="matrix(0.26458333,0,0,-0.26458333,47.889584,345.91624)"
       clip-path="url(#clipPath48)" />
    <path
       id="path49"
       d="m 279.49388,719.45127 c 0,0.23633 -0.083,0.42334 -0.24902,0.56103 -0.16602,0.1377 -0.46973,0.26856 -0.91114,0.39258 -0.4414,0.12403 -0.76367,0.25928 -0.96679,0.40576 -0.28906,0.20704 -0.4336,0.47852 -0.4336,0.81446 0,0.32617 0.13428,0.59131 0.40284,0.79541 0.26855,0.2041 0.61181,0.30615 1.02978,0.30615 0.2832,0 0.53662,-0.0547 0.76026,-0.16406 0.22363,-0.10938 0.39697,-0.26172 0.52001,-0.45703 0.12305,-0.19532 0.18458,-0.41309 0.18458,-0.65332 h -0.36329 c 0,0.29199 -0.0996,0.52636 -0.29882,0.70361 -0.19922,0.17725 -0.4668,0.26611 -0.80274,0.26611 -0.32617,0 -0.58594,-0.0728 -0.7793,-0.21875 -0.19335,-0.14551 -0.29003,-0.33593 -0.29003,-0.5708 0,-0.2168 0.0869,-0.39404 0.26074,-0.53076 0.17383,-0.13721 0.45215,-0.25781 0.83496,-0.36279 0.38281,-0.10449 0.67285,-0.21289 0.87012,-0.3252 0.19726,-0.1123 0.3457,-0.24658 0.44531,-0.40283 0.0996,-0.15625 0.14941,-0.34082 0.14941,-0.55371 0,-0.33594 -0.13427,-0.60547 -0.40283,-0.80859 -0.26855,-0.20313 -0.62256,-0.30469 -1.06201,-0.30469 -0.30078,0 -0.57666,0.0537 -0.82764,0.16113 -0.25097,0.10742 -0.4414,0.25781 -0.57129,0.45117 -0.12988,0.19336 -0.19482,0.41504 -0.19482,0.66504 h 0.36035 c 0,-0.30078 0.1123,-0.53808 0.33691,-0.71191 0.22461,-0.17383 0.52344,-0.26074 0.89649,-0.26074 0.33203,0 0.59863,0.0732 0.7998,0.21972 0.20118,0.14649 0.30176,0.34082 0.30176,0.58301 z"
       style="fill:#1d1d1b;fill-opacity:1;fill-rule:nonzero;stroke:none"
       transform="matrix(0.26458333,0,0,-0.26458333,47.889584,345.91624)"
       clip-path="url(#clipPath50)" />
    <path
       id="path51"
       d="m 280.90013,721.03623 c 0.11524,0.18945 0.2627,0.33594 0.44238,0.43945 0.17969,0.10352 0.37598,0.15528 0.58887,0.15528 0.33984,0 0.59277,-0.0957 0.75879,-0.28711 0.16602,-0.19141 0.25,-0.47852 0.25195,-0.86133 v -2.08008 h -0.34863 v 2.08301 c -0.002,0.2832 -0.062,0.49414 -0.18018,0.63281 -0.11816,0.13867 -0.30712,0.20801 -0.56689,0.20801 -0.2168,0 -0.40869,-0.0679 -0.57568,-0.20361 -0.167,-0.13575 -0.29053,-0.31885 -0.37061,-0.54932 v -2.1709 h -0.34863 v 4.5 h 0.34863 z"
       style="fill:#1d1d1b;fill-opacity:1;fill-rule:nonzero;stroke:none"
       transform="matrix(0.26458333,0,0,-0.26458333,47.889584,345.91624)"
       clip-path="url(#clipPath52)" />
    <path
       id="path53"
       d="m 283.82396,722.48789 c 0,0.0659 0.0215,0.12158 0.0645,0.16748 0.043,0.0454 0.10157,0.0684 0.17578,0.0684 0.0742,0 0.1333,-0.023 0.17725,-0.0684 0.0439,-0.0459 0.0659,-0.10156 0.0659,-0.16748 0,-0.0659 -0.022,-0.12109 -0.0659,-0.16601 -0.0439,-0.0444 -0.10303,-0.0669 -0.17725,-0.0669 -0.0742,0 -0.13281,0.0225 -0.17578,0.0669 -0.043,0.0449 -0.0645,0.10009 -0.0645,0.16601 z m 0.41309,-4.08545 h -0.35157 v 3.16992 h 0.35157 z"
       style="fill:#1d1d1b;fill-opacity:1;fill-rule:nonzero;stroke:none"
       transform="matrix(0.26458333,0,0,-0.26458333,47.889584,345.91624)"
       clip-path="url(#clipPath54)" />
    <path
       id="path55"
       d="m 285.44115,718.40244 v 2.88281 h -0.52442 v 0.28711 h 0.52442 v 0.38379 c 0,0.32422 0.0825,0.57324 0.24756,0.74707 0.16503,0.17383 0.39501,0.26074 0.68994,0.26074 0.13281,0 0.25683,-0.0166 0.37207,-0.0493 l -0.0264,-0.29053 c -0.0977,0.0234 -0.2041,0.0352 -0.31934,0.0352 -0.19336,0 -0.34375,-0.0601 -0.45117,-0.18067 -0.10742,-0.1206 -0.16113,-0.2915 -0.16113,-0.51269 v -0.39356 h 0.75586 v -0.28711 h -0.75586 v -2.88281 h -0.35156 z"
       style="fill:#1d1d1b;fill-opacity:1;fill-rule:nonzero;stroke:none"
       transform="matrix(0.26458333,0,0,-0.26458333,47.889584,345.91624)"
       clip-path="url(#clipPath56)" />
    <path
       id="path57"
       d="m 287.72044,722.38389 v -0.81153 h 0.65625 v -0.28711 h -0.65625 v -2.11474 c 0,-0.17578 0.0317,-0.30713 0.0952,-0.39307 0.0635,-0.0859 0.16943,-0.1289 0.31787,-0.1289 0.0586,0 0.15332,0.01 0.28418,0.0293 l 0.0147,-0.28467 c -0.0918,-0.0327 -0.2168,-0.0493 -0.375,-0.0493 -0.24024,0 -0.41504,0.0698 -0.52442,0.20947 -0.10937,0.13965 -0.16406,0.34522 -0.16406,0.6167 v 2.11523 h -0.58301 v 0.28711 h 0.58301 v 0.81153 h 0.35156 z"
       style="fill:#1d1d1b;fill-opacity:1;fill-rule:nonzero;stroke:none"
       transform="matrix(0.26458333,0,0,-0.26458333,47.889584,345.91624)"
       clip-path="url(#clipPath58)" />
    <path
       id="path59"
       d="m 292.23802,720.18076 h -1.23926 v -1.77832 h -0.36328 v 4.26563 h 1.38575 c 0.45507,0 0.81054,-0.11036 1.0664,-0.33057 0.25586,-0.2207 0.38379,-0.52881 0.38379,-0.9248 0,-0.27295 -0.0801,-0.51416 -0.24023,-0.72266 -0.16016,-0.20899 -0.375,-0.35303 -0.64454,-0.43311 l 1.06641,-1.8164 v -0.0381 h -0.38379 l -1.03125,1.77832 z m -1.23926,0.30469 h 1.1045 c 0.30273,0 0.54589,0.0859 0.72949,0.2583 0.18359,0.17187 0.27539,0.39502 0.27539,0.66895 0,0.30126 -0.0957,0.53515 -0.28711,0.70117 -0.19141,0.1665 -0.45996,0.24951 -0.80566,0.24951 h -1.01661 z"
       style="fill:#1d1d1b;fill-opacity:1;fill-rule:nonzero;stroke:none"
       transform="matrix(0.26458333,0,0,-0.26458333,47.889584,345.91624)"
       clip-path="url(#clipPath60)" />
    <path
       id="path61"
       d="m 295.59837,718.34385 c -0.26953,0 -0.51318,0.0664 -0.73095,0.19922 -0.21778,0.13281 -0.38721,0.31787 -0.5083,0.55517 -0.1211,0.23731 -0.18164,0.50342 -0.18164,0.79834 v 0.12598 c 0,0.30469 0.0591,0.5791 0.17724,0.82324 0.11817,0.24414 0.28272,0.43604 0.49365,0.57568 0.21094,0.13965 0.43946,0.20948 0.68555,0.20948 0.38477,0 0.68994,-0.13135 0.91553,-0.39405 0.22558,-0.26269 0.33838,-0.62158 0.33838,-1.07666 v -0.19629 h -2.26172 v -0.0674 c 0,-0.35937 0.10303,-0.65869 0.30908,-0.89795 0.20605,-0.23925 0.46533,-0.35888 0.77783,-0.35888 0.1875,0 0.35303,0.0342 0.49658,0.10254 0.14356,0.0684 0.27393,0.17773 0.39112,0.32812 l 0.21972,-0.16699 c -0.25781,-0.37305 -0.63183,-0.55957 -1.12207,-0.55957 z m -0.0644,2.98828 c -0.26367,0 -0.48584,-0.0967 -0.6665,-0.29004 -0.18067,-0.19336 -0.29053,-0.45313 -0.32959,-0.7793 h 1.90136 v 0.0381 c -0.01,0.30469 -0.0967,0.55273 -0.26074,0.74414 -0.16406,0.19141 -0.3789,0.28711 -0.64453,0.28711 z"
       style="fill:#1d1d1b;fill-opacity:1;fill-rule:nonzero;stroke:none"
       transform="matrix(0.26458333,0,0,-0.26458333,47.889584,345.91624)"
       clip-path="url(#clipPath62)" />
    <path
       id="path63"
       d="m 297.32982,720.0167 c 0,0.49609 0.10986,0.88916 0.32959,1.1792 0.21973,0.29004 0.51806,0.43506 0.89502,0.43506 0.43164,0 0.75976,-0.17188 0.98437,-0.51563 l 0.0176,0.45703 h 0.32813 v -3.10547 c 0,-0.4082 -0.11426,-0.73144 -0.34278,-0.96972 -0.22851,-0.23828 -0.53808,-0.35742 -0.92871,-0.35742 -0.2207,0 -0.43115,0.0493 -0.63135,0.14795 -0.20019,0.0986 -0.35791,0.22998 -0.47314,0.39404 l 0.19629,0.21094 c 0.24805,-0.30469 0.54297,-0.45704 0.88476,-0.45704 0.29297,0 0.52149,0.0864 0.68555,0.25928 0.16406,0.17285 0.24902,0.4126 0.25488,0.71924 v 0.39844 c -0.22461,-0.3125 -0.55175,-0.46875 -0.98144,-0.46875 -0.36719,0 -0.66211,0.14648 -0.88477,0.43945 -0.22265,0.29297 -0.33398,0.68848 -0.33398,1.18652 v 0.0469 z m 0.35449,-0.0615 c 0,-0.4043 0.0811,-0.72315 0.24317,-0.95655 0.1621,-0.2334 0.39062,-0.35009 0.68554,-0.35009 0.43164,0 0.73731,0.19335 0.91699,0.58007 v 1.47364 c -0.082,0.20312 -0.20019,0.35791 -0.35449,0.46435 -0.1543,0.10645 -0.33984,0.15967 -0.55664,0.15967 -0.29492,0 -0.52441,-0.11572 -0.68848,-0.34717 -0.16406,-0.23144 -0.24609,-0.57275 -0.24609,-1.02392 z"
       style="fill:#1d1d1b;fill-opacity:1;fill-rule:nonzero;stroke:none"
       transform="matrix(0.26458333,0,0,-0.26458333,47.889584,345.91624)"
       clip-path="url(#clipPath64)" />
    <path
       id="path65"
       d="m 300.77806,722.48789 c 0,0.0659 0.0215,0.12158 0.0645,0.16748 0.043,0.0454 0.10157,0.0684 0.17579,0.0684 0.0742,0 0.1333,-0.023 0.17724,-0.0684 0.0439,-0.0459 0.0659,-0.10156 0.0659,-0.16748 0,-0.0659 -0.022,-0.12109 -0.0659,-0.16601 -0.0439,-0.0444 -0.10303,-0.0669 -0.17724,-0.0669 -0.0742,0 -0.13282,0.0225 -0.17579,0.0669 -0.043,0.0449 -0.0645,0.10009 -0.0645,0.16601 z m 0.41309,-4.08545 h -0.35157 v 3.16992 h 0.35157 z"
       style="fill:#1d1d1b;fill-opacity:1;fill-rule:nonzero;stroke:none"
       transform="matrix(0.26458333,0,0,-0.26458333,47.889584,345.91624)"
       clip-path="url(#clipPath66)" />
    <path
       id="path67"
       d="m 304.04173,719.20811 c 0,0.17382 -0.0698,0.31347 -0.20947,0.41894 -0.13965,0.10547 -0.3501,0.18799 -0.63135,0.24756 -0.28125,0.0596 -0.49951,0.12793 -0.65478,0.20508 -0.15528,0.0771 -0.27051,0.17138 -0.34571,0.28271 -0.0752,0.11133 -0.11279,0.2461 -0.11279,0.4043 0,0.25 0.10449,0.45654 0.31348,0.61963 0.20898,0.16308 0.47656,0.24463 0.80273,0.24463 0.35352,0 0.63721,-0.0874 0.85108,-0.26221 0.21386,-0.1748 0.3208,-0.40283 0.3208,-0.68408 h -0.35157 c 0,0.18554 -0.0776,0.33984 -0.23291,0.46289 -0.15527,0.12305 -0.35107,0.18457 -0.5874,0.18457 -0.23047,0 -0.41553,-0.0513 -0.55517,-0.15381 -0.13965,-0.10254 -0.20948,-0.23584 -0.20948,-0.3999 0,-0.15821 0.0581,-0.28076 0.17432,-0.36768 0.11621,-0.0869 0.32813,-0.1665 0.63574,-0.23877 0.30762,-0.0723 0.53809,-0.14941 0.69141,-0.23144 0.15332,-0.082 0.26709,-0.18067 0.34131,-0.2959 0.0742,-0.11524 0.11133,-0.25488 0.11133,-0.41895 0,-0.26757 -0.10792,-0.48144 -0.32374,-0.6416 -0.21582,-0.16015 -0.49755,-0.24023 -0.84521,-0.24023 -0.36914,0 -0.66846,0.0894 -0.89795,0.26806 -0.22949,0.17871 -0.34424,0.40479 -0.34424,0.67823 h 0.35156 c 0.0137,-0.20508 0.1001,-0.36475 0.25928,-0.47901 0.15918,-0.11425 0.36963,-0.17138 0.63135,-0.17138 0.24414,0 0.44141,0.0537 0.5918,0.16113 0.15039,0.10742 0.22558,0.24316 0.22558,0.40723 z"
       style="fill:#1d1d1b;fill-opacity:1;fill-rule:nonzero;stroke:none"
       transform="matrix(0.26458333,0,0,-0.26458333,47.889584,345.91624)"
       clip-path="url(#clipPath68)" />
    <path
       id="path69"
       d="m 305.7263,722.38389 v -0.81153 h 0.65625 v -0.28711 h -0.65625 v -2.11474 c 0,-0.17578 0.0317,-0.30713 0.0952,-0.39307 0.0635,-0.0859 0.16943,-0.1289 0.31787,-0.1289 0.0586,0 0.15332,0.01 0.28418,0.0293 l 0.0147,-0.28467 c -0.0918,-0.0327 -0.2168,-0.0493 -0.375,-0.0493 -0.24024,0 -0.41504,0.0698 -0.52442,0.20947 -0.10937,0.13965 -0.16406,0.34522 -0.16406,0.6167 v 2.11523 h -0.58301 v 0.28711 h 0.58301 v 0.81153 h 0.35156 z"
       style="fill:#1d1d1b;fill-opacity:1;fill-rule:nonzero;stroke:none"
       transform="matrix(0.26458333,0,0,-0.26458333,47.889584,345.91624)"
       clip-path="url(#clipPath70)" />
    <path
       id="path71"
       d="m 308.33665,718.34385 c -0.26953,0 -0.51318,0.0664 -0.73095,0.19922 -0.21778,0.13281 -0.38721,0.31787 -0.5083,0.55517 -0.1211,0.23731 -0.18164,0.50342 -0.18164,0.79834 v 0.12598 c 0,0.30469 0.0591,0.5791 0.17724,0.82324 0.11817,0.24414 0.28272,0.43604 0.49365,0.57568 0.21094,0.13965 0.43946,0.20948 0.68555,0.20948 0.38477,0 0.68994,-0.13135 0.91553,-0.39405 0.22558,-0.26269 0.33838,-0.62158 0.33838,-1.07666 v -0.19629 h -2.26172 v -0.0674 c 0,-0.35937 0.10303,-0.65869 0.30908,-0.89795 0.20606,-0.23925 0.46533,-0.35888 0.77783,-0.35888 0.1875,0 0.35303,0.0342 0.49658,0.10254 0.14356,0.0684 0.27393,0.17773 0.39112,0.32812 l 0.21972,-0.16699 c -0.25781,-0.37305 -0.63183,-0.55957 -1.12207,-0.55957 z m -0.0645,2.98828 c -0.26367,0 -0.48584,-0.0967 -0.6665,-0.29004 -0.18067,-0.19336 -0.29053,-0.45313 -0.32959,-0.7793 h 1.90137 v 0.0381 c -0.01,0.30469 -0.0967,0.55273 -0.26075,0.74414 -0.16406,0.19141 -0.3789,0.28711 -0.64453,0.28711 z"
       style="fill:#1d1d1b;fill-opacity:1;fill-rule:nonzero;stroke:none"
       transform="matrix(0.26458333,0,0,-0.26458333,47.889584,345.91624)"
       clip-path="url(#clipPath72)" />
    <path
       id="path73"
       d="m 311.67357,721.27354 c -0.0742,0.0137 -0.15332,0.0205 -0.23731,0.0205 -0.21875,0 -0.4038,-0.061 -0.55517,-0.1831 -0.15137,-0.12207 -0.25928,-0.29932 -0.32373,-0.53174 v -2.17676 h -0.34864 v 3.16992 h 0.34278 l 0.006,-0.5039 c 0.18554,0.375 0.4834,0.5625 0.89355,0.5625 0.0977,0 0.17481,-0.0127 0.23145,-0.0381 l -0.009,-0.31933 z"
       style="fill:#1d1d1b;fill-opacity:1;fill-rule:nonzero;stroke:none"
       transform="matrix(0.26458333,0,0,-0.26458333,47.889584,345.91624)"
       clip-path="url(#clipPath74)" />
    <path
       id="path75"
       d="m 312.07738,698.73008 h -1.98926 v -1.99512 h -0.36035 v 4.26563 h 2.64258 v -0.30469 h -2.28223 v -1.66113 h 1.98926 z"
       style="fill:#1d1d1b;fill-opacity:1;fill-rule:nonzero;stroke:none"
       transform="matrix(0.26458333,0,0,-0.26458333,47.889584,345.91624)"
       clip-path="url(#clipPath76)" />
    <path
       id="path77"
       d="m 314.40941,699.60605 c -0.0742,0.0137 -0.15332,0.0205 -0.23731,0.0205 -0.21875,0 -0.4038,-0.061 -0.55517,-0.1831 -0.15137,-0.12207 -0.25928,-0.29932 -0.32373,-0.53174 v -2.17676 h -0.34864 v 3.16992 h 0.34278 l 0.006,-0.5039 c 0.18554,0.375 0.4834,0.5625 0.89355,0.5625 0.0977,0 0.17481,-0.0127 0.23145,-0.0381 l -0.009,-0.31934 z"
       style="fill:#1d1d1b;fill-opacity:1;fill-rule:nonzero;stroke:none"
       transform="matrix(0.26458333,0,0,-0.26458333,47.889584,345.91624)"
       clip-path="url(#clipPath78)" />
    <path
       id="path79"
       d="m 314.71117,698.3668 c 0,0.30468 0.0591,0.5791 0.17724,0.82324 0.11817,0.24414 0.28516,0.43408 0.50098,0.56982 0.21582,0.13575 0.46045,0.20362 0.73389,0.20362 0.42187,0 0.76367,-0.14795 1.02539,-0.44385 0.26172,-0.2959 0.39257,-0.68799 0.39257,-1.17627 v -0.0732 c 0,-0.30664 -0.0591,-0.58252 -0.17724,-0.82764 -0.11817,-0.24512 -0.28467,-0.43408 -0.49951,-0.56689 -0.21485,-0.13282 -0.45996,-0.19922 -0.73535,-0.19922 -0.41993,0 -0.76124,0.14795 -1.02393,0.44384 -0.2627,0.2959 -0.39404,0.68799 -0.39404,1.17627 v 0.0703 z m 0.35156,-0.0967 c 0,-0.37891 0.0981,-0.68994 0.29443,-0.93311 0.19629,-0.24316 0.45362,-0.36474 0.77198,-0.36474 0.3164,0 0.57275,0.12158 0.76904,0.36474 0.19629,0.24317 0.29443,0.56397 0.29443,0.9624 v 0.0674 c 0,0.24218 -0.0449,0.46386 -0.13476,0.66504 -0.0898,0.20117 -0.21582,0.35693 -0.37793,0.46728 -0.16211,0.11035 -0.34766,0.16553 -0.55664,0.16553 -0.3125,0 -0.56739,-0.12256 -0.76465,-0.36768 -0.19727,-0.24511 -0.2959,-0.56592 -0.2959,-0.9624 v -0.0644 z"
       style="fill:#1d1d1b;fill-opacity:1;fill-rule:nonzero;stroke:none"
       transform="matrix(0.26458333,0,0,-0.26458333,47.889584,345.91624)"
       clip-path="url(#clipPath80)" />
    <path
       id="path81"
       d="m 318.58421,699.90488 0.0117,-0.51562 c 0.11719,0.1914 0.26367,0.33496 0.43946,0.43066 0.17578,0.0957 0.37109,0.14356 0.58593,0.14356 0.5,0 0.81739,-0.20508 0.95215,-0.61524 0.11328,0.19727 0.26465,0.34912 0.4541,0.45557 0.18946,0.10644 0.39844,0.15967 0.62696,0.15967 0.67968,0 1.02636,-0.3711 1.04003,-1.11328 v -2.11524 h -0.35156 v 2.08887 c -0.002,0.2832 -0.063,0.49316 -0.1831,0.62988 -0.12012,0.13672 -0.31592,0.20508 -0.58741,0.20508 -0.25195,-0.004 -0.46484,-0.0854 -0.63867,-0.24463 -0.17383,-0.15918 -0.27051,-0.35303 -0.29004,-0.58154 v -2.09766 h -0.35156 v 2.11524 c -0.002,0.27148 -0.0659,0.47412 -0.19189,0.60791 -0.12598,0.13378 -0.31983,0.20068 -0.58155,0.20068 -0.2207,0 -0.41015,-0.063 -0.56836,-0.18897 -0.1582,-0.12597 -0.27539,-0.31298 -0.35156,-0.56103 v -2.17383 h -0.35156 v 3.16992 h 0.33691 z"
       style="fill:#1d1d1b;fill-opacity:1;fill-rule:nonzero;stroke:none"
       transform="matrix(0.26458333,0,0,-0.26458333,47.889584,345.91624)"
       clip-path="url(#clipPath82)" />
    <path
       id="path83"
       d="m 327.59007,698.2877 c 0,-0.49415 -0.10937,-0.88624 -0.32812,-1.17627 -0.21875,-0.29004 -0.51172,-0.43506 -0.87891,-0.43506 -0.43359,0 -0.76562,0.15234 -0.99609,0.45703 v -1.61719 h -0.34864 v 4.38867 h 0.3252 l 0.0176,-0.44824 c 0.22851,0.33789 0.55957,0.50684 0.99316,0.50684 0.37891,0 0.67627,-0.14356 0.89209,-0.43067 0.21582,-0.28711 0.32373,-0.68554 0.32373,-1.19531 v -0.0498 z m -0.35156,0.0615 c 0,0.4043 -0.083,0.72363 -0.24902,0.95801 -0.16602,0.23437 -0.39746,0.35156 -0.69434,0.35156 -0.21484,0 -0.39941,-0.0518 -0.55371,-0.15527 -0.1543,-0.10352 -0.27246,-0.25391 -0.35449,-0.45118 v -1.5205 c 0.084,-0.18164 0.2041,-0.32032 0.36035,-0.41602 0.15625,-0.0957 0.34082,-0.14355 0.55371,-0.14355 0.29492,0 0.5249,0.11767 0.68994,0.35302 0.16504,0.23535 0.24756,0.57666 0.24756,1.02393 z"
       style="fill:#1d1d1b;fill-opacity:1;fill-rule:nonzero;stroke:none"
       transform="matrix(0.26458333,0,0,-0.26458333,47.889584,345.91624)"
       clip-path="url(#clipPath84)" />
    <path
       id="path85"
       d="m 329.83128,699.60605 c -0.0742,0.0137 -0.15332,0.0205 -0.2373,0.0205 -0.21875,0 -0.40381,-0.061 -0.55518,-0.1831 -0.15136,-0.12207 -0.25927,-0.29932 -0.32373,-0.53174 v -2.17676 h -0.34863 v 3.16992 h 0.34277 l 0.006,-0.5039 c 0.18555,0.375 0.4834,0.5625 0.89356,0.5625 0.0976,0 0.1748,-0.0127 0.23144,-0.0381 l -0.009,-0.31934 z"
       style="fill:#1d1d1b;fill-opacity:1;fill-rule:nonzero;stroke:none"
       transform="matrix(0.26458333,0,0,-0.26458333,47.889584,345.91624)"
       clip-path="url(#clipPath86)" />
    <path
       id="path87"
       d="m 331.55687,696.67637 c -0.26953,0 -0.51318,0.0664 -0.73096,0.19922 -0.21777,0.13281 -0.3872,0.31787 -0.5083,0.55517 -0.12109,0.23731 -0.18164,0.50342 -0.18164,0.79834 v 0.12598 c 0,0.30469 0.0591,0.5791 0.17725,0.82324 0.11816,0.24414 0.28271,0.43604 0.49365,0.57568 0.21094,0.13965 0.43945,0.20948 0.68555,0.20948 0.38476,0 0.68994,-0.13135 0.91552,-0.39405 0.22559,-0.26269 0.33838,-0.62158 0.33838,-1.07666 v -0.19629 h -2.26172 v -0.0674 c 0,-0.35937 0.10303,-0.65869 0.30909,-0.89795 0.20605,-0.23926 0.46533,-0.35888 0.77783,-0.35888 0.1875,0 0.35303,0.0342 0.49658,0.10253 0.14355,0.0684 0.27393,0.17774 0.39111,0.32813 l 0.21973,-0.16699 c -0.25781,-0.37305 -0.63184,-0.55957 -1.12207,-0.55957 z m -0.0645,2.98828 c -0.26368,0 -0.48584,-0.0967 -0.66651,-0.29004 -0.18066,-0.19336 -0.29052,-0.45313 -0.32959,-0.7793 h 1.90137 v 0.0381 c -0.01,0.30469 -0.0967,0.55273 -0.26074,0.74414 -0.16406,0.19141 -0.37891,0.28711 -0.64453,0.28711 z"
       style="fill:#1d1d1b;fill-opacity:1;fill-rule:nonzero;stroke:none"
       transform="matrix(0.26458333,0,0,-0.26458333,47.889584,345.91624)"
       clip-path="url(#clipPath88)" />
    <path
       id="path89"
       d="m 334.37816,697.21836 0.96387,2.68652 h 0.36035 l -1.1836,-3.16992 h -0.28418 l -1.18945,3.16992 h 0.36035 z"
       style="fill:#1d1d1b;fill-opacity:1;fill-rule:nonzero;stroke:none"
       transform="matrix(0.26458333,0,0,-0.26458333,47.889584,345.91624)"
       clip-path="url(#clipPath90)" />
    <path
       id="path91"
       d="m 336.25609,700.82041 c 0,0.0659 0.0215,0.12158 0.0645,0.16748 0.043,0.0454 0.10156,0.0684 0.17578,0.0684 0.0742,0 0.1333,-0.0229 0.17725,-0.0684 0.0439,-0.0459 0.0659,-0.10156 0.0659,-0.16748 0,-0.0659 -0.022,-0.12109 -0.0659,-0.16602 -0.0439,-0.0444 -0.10303,-0.0669 -0.17725,-0.0669 -0.0742,0 -0.13281,0.0225 -0.17578,0.0669 -0.043,0.0449 -0.0645,0.1001 -0.0645,0.16602 z m 0.41308,-4.08545 h -0.35156 v 3.16992 h 0.35156 z"
       style="fill:#1d1d1b;fill-opacity:1;fill-rule:nonzero;stroke:none"
       transform="matrix(0.26458333,0,0,-0.26458333,47.889584,345.91624)"
       clip-path="url(#clipPath92)" />
    <path
       id="path93"
       d="m 337.42796,698.3668 c 0,0.30468 0.0591,0.5791 0.17725,0.82324 0.11816,0.24414 0.28516,0.43408 0.50098,0.56982 0.21582,0.13575 0.46045,0.20362 0.73388,0.20362 0.42188,0 0.76367,-0.14795 1.02539,-0.44385 0.26172,-0.2959 0.39258,-0.68799 0.39258,-1.17627 v -0.0732 c 0,-0.30664 -0.0591,-0.58252 -0.17724,-0.82764 -0.11817,-0.24512 -0.28467,-0.43408 -0.49952,-0.56689 -0.21484,-0.13282 -0.45996,-0.19922 -0.73535,-0.19922 -0.41992,0 -0.76123,0.14795 -1.02392,0.44384 -0.2627,0.2959 -0.39405,0.68799 -0.39405,1.17627 v 0.0703 z m 0.35157,-0.0967 c 0,-0.37891 0.0981,-0.68994 0.29443,-0.93311 0.19629,-0.24316 0.45361,-0.36474 0.77197,-0.36474 0.31641,0 0.57276,0.12158 0.76905,0.36474 0.19628,0.24317 0.29443,0.56397 0.29443,0.9624 v 0.0674 c 0,0.24218 -0.0449,0.46386 -0.13477,0.66504 -0.0898,0.20117 -0.21582,0.35693 -0.37793,0.46728 -0.16211,0.11035 -0.34765,0.16553 -0.55664,0.16553 -0.3125,0 -0.56738,-0.12256 -0.76465,-0.36768 -0.19726,-0.24511 -0.29589,-0.56592 -0.29589,-0.9624 v -0.0644 z"
       style="fill:#1d1d1b;fill-opacity:1;fill-rule:nonzero;stroke:none"
       transform="matrix(0.26458333,0,0,-0.26458333,47.889584,345.91624)"
       clip-path="url(#clipPath94)" />
    <path
       id="path95"
       d="m 343.02074,697.13633 c -0.21094,-0.30664 -0.54785,-0.45996 -1.01075,-0.45996 -0.33789,0 -0.59472,0.0981 -0.7705,0.29443 -0.17578,0.19629 -0.26563,0.48682 -0.26953,0.87158 v 2.0625 h 0.34863 v -2.01855 c 0,-0.60352 0.24414,-0.90528 0.73242,-0.90528 0.50781,0 0.8291,0.20997 0.96387,0.62989 v 2.29394 h 0.35156 v -3.16992 h -0.33984 l -0.006,0.40137 z"
       style="fill:#1d1d1b;fill-opacity:1;fill-rule:nonzero;stroke:none"
       transform="matrix(0.26458333,0,0,-0.26458333,47.889584,345.91624)"
       clip-path="url(#clipPath96)" />
    <path
       id="path97"
       d="m 346.17601,697.54062 c 0,0.17383 -0.0698,0.31348 -0.20947,0.41895 -0.13965,0.10547 -0.3501,0.18799 -0.63135,0.24756 -0.28125,0.0596 -0.49951,0.12793 -0.65479,0.20508 -0.15527,0.0772 -0.2705,0.17138 -0.3457,0.28271 -0.0752,0.11133 -0.11279,0.2461 -0.11279,0.4043 0,0.25 0.10449,0.45654 0.31347,0.61963 0.20899,0.16308 0.47657,0.24463 0.80274,0.24463 0.35352,0 0.63721,-0.0874 0.85107,-0.26221 0.21387,-0.17481 0.3208,-0.40283 0.3208,-0.68408 h -0.35156 c 0,0.18554 -0.0776,0.33984 -0.23291,0.46289 -0.15527,0.12304 -0.35107,0.18457 -0.5874,0.18457 -0.23047,0 -0.41553,-0.0513 -0.55518,-0.15381 -0.13964,-0.10254 -0.20947,-0.23584 -0.20947,-0.3999 0,-0.15821 0.0581,-0.28076 0.17432,-0.36768 0.11621,-0.0869 0.32812,-0.1665 0.63574,-0.23877 0.30762,-0.0723 0.53809,-0.14941 0.69141,-0.23144 0.15332,-0.082 0.26709,-0.18067 0.3413,-0.2959 0.0742,-0.11524 0.11133,-0.25488 0.11133,-0.41895 0,-0.26757 -0.10791,-0.48144 -0.32373,-0.6416 -0.21582,-0.16015 -0.49756,-0.24023 -0.84521,-0.24023 -0.36914,0 -0.66846,0.0893 -0.89795,0.26806 -0.22949,0.17871 -0.34424,0.40479 -0.34424,0.67823 h 0.35156 c 0.0137,-0.20508 0.1001,-0.36475 0.25928,-0.47901 0.15918,-0.11426 0.36963,-0.17138 0.63135,-0.17138 0.24414,0 0.4414,0.0537 0.59179,0.16113 0.15039,0.10742 0.22559,0.24316 0.22559,0.40722 z"
       style="fill:#1d1d1b;fill-opacity:1;fill-rule:nonzero;stroke:none"
       transform="matrix(0.26458333,0,0,-0.26458333,47.889584,345.91624)"
       clip-path="url(#clipPath98)" />
    <path
       id="path99"
       d="m 349.29613,696.73496 h -0.36035 v 4.26563 h 0.36035 z"
       style="fill:#1d1d1b;fill-opacity:1;fill-rule:nonzero;stroke:none"
       transform="matrix(0.26458333,0,0,-0.26458333,47.889584,345.91624)"
       clip-path="url(#clipPath100)" />
    <path
       id="path101"
       d="m 353.62914,696.73496 h -0.36036 l -2.45214,3.65039 v -3.65039 h -0.36329 v 4.26563 h 0.36329 l 2.45507,-3.65332 v 3.65332 h 0.35743 z"
       style="fill:#1d1d1b;fill-opacity:1;fill-rule:nonzero;stroke:none"
       transform="matrix(0.26458333,0,0,-0.26458333,47.889584,345.91624)"
       clip-path="url(#clipPath102)" />
    <path
       id="path103"
       d="m 356.52953,697.54062 c 0,0.17383 -0.0698,0.31348 -0.20948,0.41895 -0.13965,0.10547 -0.35009,0.18799 -0.63134,0.24756 -0.28125,0.0596 -0.49952,0.12793 -0.65479,0.20508 -0.15527,0.0772 -0.27051,0.17138 -0.3457,0.28271 -0.0752,0.11133 -0.1128,0.2461 -0.1128,0.4043 0,0.25 0.1045,0.45654 0.31348,0.61963 0.20899,0.16308 0.47656,0.24463 0.80274,0.24463 0.35351,0 0.6372,-0.0874 0.85107,-0.26221 0.21387,-0.17481 0.3208,-0.40283 0.3208,-0.68408 h -0.35156 c 0,0.18554 -0.0776,0.33984 -0.23291,0.46289 -0.15528,0.12304 -0.35108,0.18457 -0.5874,0.18457 -0.23047,0 -0.41553,-0.0513 -0.55518,-0.15381 -0.13965,-0.10254 -0.20947,-0.23584 -0.20947,-0.3999 0,-0.15821 0.0581,-0.28076 0.17431,-0.36768 0.11621,-0.0869 0.32813,-0.1665 0.63575,-0.23877 0.30761,-0.0723 0.53808,-0.14941 0.6914,-0.23144 0.15332,-0.082 0.26709,-0.18067 0.34131,-0.2959 0.0742,-0.11524 0.11133,-0.25488 0.11133,-0.41895 0,-0.26757 -0.10791,-0.48144 -0.32373,-0.6416 -0.21582,-0.16015 -0.49756,-0.24023 -0.84522,-0.24023 -0.36914,0 -0.66845,0.0893 -0.89795,0.26806 -0.22949,0.17871 -0.34423,0.40479 -0.34423,0.67823 h 0.35156 c 0.0137,-0.20508 0.1001,-0.36475 0.25928,-0.47901 0.15917,-0.11426 0.36962,-0.17138 0.63134,-0.17138 0.24414,0 0.44141,0.0537 0.5918,0.16113 0.15039,0.10742 0.22559,0.24316 0.22559,0.40722 z"
       style="fill:#1d1d1b;fill-opacity:1;fill-rule:nonzero;stroke:none"
       transform="matrix(0.26458333,0,0,-0.26458333,47.889584,345.91624)"
       clip-path="url(#clipPath104)" />
    <path
       id="path105"
       d="m 330.69456,718.40244 h -0.36035 v 4.26563 h 0.36035 z"
       style="fill:#1d1d1b;fill-opacity:1;fill-rule:nonzero;stroke:none"
       transform="matrix(0.26458333,0,0,-0.26458333,47.889584,345.91624)"
       clip-path="url(#clipPath106)" />
    <path
       id="path107"
       d="m 335.02757,718.40244 h -0.36035 l -2.45215,3.65039 v -3.65039 h -0.36328 v 4.26563 h 0.36328 l 2.45508,-3.65332 v 3.65332 h 0.35742 z"
       style="fill:#1d1d1b;fill-opacity:1;fill-rule:nonzero;stroke:none"
       transform="matrix(0.26458333,0,0,-0.26458333,47.889584,345.91624)"
       clip-path="url(#clipPath108)" />
    <path
       id="path109"
       d="m 351.93921,710.42954 h 53.23526 V 730.4 h -53.23526 z"
       style="fill:#e4dff0;fill-opacity:1;fill-rule:nonzero;stroke:none"
       transform="matrix(0.26458333,0,0,-0.26458333,47.889584,345.91624)"
       clip-path="url(#clipPath110)" />
    <path
       id="path111"
       d="M 405.42456,710.1793 H 351.68919 V 730.65 h 53.73537 z m -53.23537,0.5 h 52.73537 V 730.15 h -52.73537 z"
       style="fill:#9681ba;fill-opacity:1;fill-rule:nonzero;stroke:none"
       transform="matrix(0.26458333,0,0,-0.26458333,47.889584,345.91624)"
       clip-path="url(#clipPath112)" />
    <path
       id="path113"
       d="m 372.89868,719.45127 c 0,0.23633 -0.083,0.42334 -0.24902,0.56103 -0.16602,0.1377 -0.46973,0.26856 -0.91113,0.39258 -0.44141,0.12403 -0.76369,0.25928 -0.96682,0.40576 -0.28906,0.20704 -0.43359,0.47852 -0.43359,0.81446 0,0.32617 0.13428,0.59131 0.40283,0.79541 0.26857,0.2041 0.61183,0.30615 1.0298,0.30615 0.28321,0 0.53662,-0.0547 0.76026,-0.16406 0.22363,-0.10938 0.39697,-0.26172 0.52002,-0.45703 0.12304,-0.19532 0.18457,-0.41309 0.18457,-0.65332 h -0.36329 c 0,0.29199 -0.0996,0.52636 -0.29882,0.70361 -0.19922,0.17725 -0.4668,0.26611 -0.80274,0.26611 -0.32617,0 -0.58594,-0.0728 -0.77931,-0.21875 -0.19336,-0.14551 -0.29004,-0.33593 -0.29004,-0.5708 0,-0.2168 0.0869,-0.39404 0.26074,-0.53076 0.17385,-0.13721 0.45217,-0.25781 0.83498,-0.36279 0.38281,-0.10449 0.67285,-0.21289 0.87012,-0.3252 0.19726,-0.1123 0.3457,-0.24658 0.44531,-0.40283 0.0996,-0.15625 0.14941,-0.34082 0.14941,-0.55371 0,-0.33594 -0.13427,-0.60547 -0.40283,-0.80859 -0.26855,-0.20313 -0.62256,-0.30469 -1.06201,-0.30469 -0.30078,0 -0.57666,0.0537 -0.82765,0.16113 -0.25098,0.10742 -0.44141,0.25781 -0.57129,0.45117 -0.12988,0.19336 -0.19483,0.41504 -0.19483,0.66504 h 0.36036 c 0,-0.30078 0.1123,-0.53808 0.33691,-0.71191 0.22462,-0.17383 0.52345,-0.26074 0.8965,-0.26074 0.33203,0 0.59863,0.0732 0.7998,0.21972 0.20118,0.14649 0.30176,0.34082 0.30176,0.58301 z"
       style="fill:#1d1d1b;fill-opacity:1;fill-rule:nonzero;stroke:none"
       transform="matrix(0.26458333,0,0,-0.26458333,47.889584,345.91624)"
       clip-path="url(#clipPath114)" />
    <path
       id="path115"
       d="m 374.30493,721.03623 c 0.11524,0.18945 0.2627,0.33594 0.44238,0.43945 0.17969,0.10352 0.37598,0.15528 0.58887,0.15528 0.33985,0 0.59278,-0.0957 0.75879,-0.28711 0.16602,-0.19141 0.25,-0.47852 0.25195,-0.86133 v -2.08008 h -0.34863 v 2.08301 c -0.002,0.2832 -0.062,0.49414 -0.18017,0.63281 -0.11817,0.13867 -0.30713,0.20801 -0.5669,0.20801 -0.2168,0 -0.40869,-0.0679 -0.57568,-0.20361 -0.167,-0.13575 -0.29053,-0.31885 -0.37061,-0.54932 v -2.1709 h -0.34863 v 4.5 h 0.34863 z"
       style="fill:#1d1d1b;fill-opacity:1;fill-rule:nonzero;stroke:none"
       transform="matrix(0.26458333,0,0,-0.26458333,47.889584,345.91624)"
       clip-path="url(#clipPath116)" />
    <path
       id="path117"
       d="m 377.22876,722.48789 c 0,0.0659 0.0215,0.12158 0.0644,0.16748 0.043,0.0454 0.10157,0.0684 0.17578,0.0684 0.0742,0 0.1333,-0.023 0.17725,-0.0684 0.0439,-0.0459 0.0659,-0.10156 0.0659,-0.16748 0,-0.0659 -0.022,-0.12109 -0.0659,-0.16601 -0.0439,-0.0444 -0.10303,-0.0669 -0.17725,-0.0669 -0.0742,0 -0.13281,0.0225 -0.17578,0.0669 -0.043,0.0449 -0.0644,0.10009 -0.0644,0.16601 z m 0.41309,-4.08545 h -0.35157 v 3.16992 h 0.35157 z"
       style="fill:#1d1d1b;fill-opacity:1;fill-rule:nonzero;stroke:none"
       transform="matrix(0.26458333,0,0,-0.26458333,47.889584,345.91624)"
       clip-path="url(#clipPath118)" />
    <path
       id="path119"
       d="m 378.84595,718.40244 v 2.88281 h -0.52442 v 0.28711 h 0.52442 v 0.38379 c 0,0.32422 0.0825,0.57324 0.24756,0.74707 0.16503,0.17383 0.39502,0.26074 0.68994,0.26074 0.13281,0 0.25683,-0.0166 0.37207,-0.0493 l -0.0264,-0.29053 c -0.0977,0.0234 -0.2041,0.0352 -0.31934,0.0352 -0.19335,0 -0.34375,-0.0601 -0.45117,-0.18067 -0.10742,-0.1206 -0.16113,-0.2915 -0.16113,-0.51269 v -0.39356 h 0.75586 v -0.28711 h -0.75586 v -2.88281 h -0.35156 z"
       style="fill:#1d1d1b;fill-opacity:1;fill-rule:nonzero;stroke:none"
       transform="matrix(0.26458333,0,0,-0.26458333,47.889584,345.91624)"
       clip-path="url(#clipPath120)" />
    <path
       id="path121"
       d="m 381.12524,722.38389 v -0.81153 h 0.65625 v -0.28711 h -0.65625 v -2.11474 c 0,-0.17578 0.0317,-0.30713 0.0952,-0.39307 0.0635,-0.0859 0.16943,-0.1289 0.31787,-0.1289 0.0586,0 0.15332,0.01 0.28418,0.0293 l 0.0146,-0.28467 c -0.0918,-0.0327 -0.2168,-0.0493 -0.375,-0.0493 -0.24024,0 -0.41504,0.0698 -0.52442,0.20947 -0.10937,0.13965 -0.16406,0.34522 -0.16406,0.6167 v 2.11523 h -0.58301 v 0.28711 h 0.58301 v 0.81153 h 0.35156 z"
       style="fill:#1d1d1b;fill-opacity:1;fill-rule:nonzero;stroke:none"
       transform="matrix(0.26458333,0,0,-0.26458333,47.889584,345.91624)"
       clip-path="url(#clipPath122)" />
    <path
       id="path123"
       d="m 383.7356,718.34385 c -0.26954,0 -0.51319,0.0664 -0.73096,0.19922 -0.21777,0.13281 -0.38721,0.31787 -0.5083,0.55517 -0.1211,0.23731 -0.18164,0.50342 -0.18164,0.79834 v 0.12598 c 0,0.30469 0.0591,0.5791 0.17724,0.82324 0.11817,0.24414 0.28272,0.43604 0.49366,0.57568 0.21093,0.13965 0.43945,0.20948 0.68554,0.20948 0.38477,0 0.68994,-0.13135 0.91553,-0.39405 0.22559,-0.26269 0.33838,-0.62158 0.33838,-1.07666 v -0.19629 h -2.26172 v -0.0674 c 0,-0.35937 0.10303,-0.65869 0.30908,-0.89795 0.20606,-0.23925 0.46533,-0.35888 0.77783,-0.35888 0.1875,0 0.35303,0.0342 0.49659,0.10254 0.14355,0.0684 0.27392,0.17773 0.39111,0.32812 l 0.21973,-0.16699 c -0.25782,-0.37305 -0.63184,-0.55957 -1.12207,-0.55957 z m -0.0645,2.98828 c -0.26367,0 -0.48584,-0.0967 -0.6665,-0.29004 -0.18067,-0.19336 -0.29053,-0.45313 -0.32959,-0.7793 h 1.90137 v 0.0381 c -0.01,0.30469 -0.0967,0.55273 -0.26075,0.74414 -0.16406,0.19141 -0.3789,0.28711 -0.64453,0.28711 z"
       style="fill:#1d1d1b;fill-opacity:1;fill-rule:nonzero;stroke:none"
       transform="matrix(0.26458333,0,0,-0.26458333,47.889584,345.91624)"
       clip-path="url(#clipPath124)" />
    <path
       id="path125"
       d="m 387.07251,721.27354 c -0.0742,0.0137 -0.15332,0.0205 -0.2373,0.0205 -0.21875,0 -0.40381,-0.061 -0.55518,-0.1831 -0.15137,-0.12207 -0.25928,-0.29932 -0.32373,-0.53174 v -2.17676 h -0.34863 v 3.16992 h 0.34277 l 0.006,-0.5039 c 0.18555,0.375 0.4834,0.5625 0.89355,0.5625 0.0977,0 0.17481,-0.0127 0.23145,-0.0381 l -0.009,-0.31933 z"
       style="fill:#1d1d1b;fill-opacity:1;fill-rule:nonzero;stroke:none"
       transform="matrix(0.26458333,0,0,-0.26458333,47.889584,345.91624)"
       clip-path="url(#clipPath126)" />
    <path
       id="path127"
       d="m 443.79099,710.42954 h 53.23526 V 730.4 h -53.23526 z"
       style="fill:#d9e3f1;fill-opacity:1;fill-rule:nonzero;stroke:none"
       transform="matrix(0.26458333,0,0,-0.26458333,47.889584,345.91624)"
       clip-path="url(#clipPath128)" />
    <path
       id="path129"
       d="M 497.27661,710.1793 H 443.54126 V 730.65 h 53.73535 z m -53.23535,0.5 h 52.73535 V 730.15 h -52.73535 z"
       style="fill:#4896c2;fill-opacity:1;fill-rule:nonzero;stroke:none"
       transform="matrix(0.26458333,0,0,-0.26458333,47.889584,345.91624)"
       clip-path="url(#clipPath130)" />
    <path
       id="path131"
       d="m 465.62231,724.13975 v -1.73731 h -0.36132 v 4.26563 h 1.45312 c 0.44336,0 0.79395,-0.11328 1.05078,-0.33985 0.25684,-0.22656 0.38477,-0.53808 0.38477,-0.93457 0,-0.40039 -0.12305,-0.70947 -0.37012,-0.92724 -0.24707,-0.21778 -0.60449,-0.32666 -1.07324,-0.32666 z m 0,0.30468 h 1.0918 c 0.34961,0 0.61719,0.083 0.80078,0.24952 0.1836,0.16601 0.27539,0.39794 0.27539,0.69531 0,0.29541 -0.0918,0.53076 -0.27441,0.70556 -0.18262,0.1753 -0.44238,0.26465 -0.77832,0.26856 h -1.11524 z"
       style="fill:#1d1d1b;fill-opacity:1;fill-rule:nonzero;stroke:none"
       transform="matrix(0.26458333,0,0,-0.26458333,47.889584,345.91624)"
       clip-path="url(#clipPath132)" />
    <path
       id="path133"
       d="m 468.85278,726.48789 c 0,0.0659 0.0215,0.12158 0.0645,0.16748 0.043,0.0454 0.10156,0.0684 0.17578,0.0684 0.0742,0 0.13379,-0.023 0.17773,-0.0684 0.0439,-0.0459 0.0664,-0.10156 0.0664,-0.16748 0,-0.0659 -0.0225,-0.12109 -0.0664,-0.16601 -0.0439,-0.0444 -0.10351,-0.0669 -0.17773,-0.0669 -0.0742,0 -0.13282,0.0225 -0.17578,0.0669 -0.043,0.0449 -0.0645,0.10009 -0.0645,0.16601 z m 0.41407,-4.08545 h -0.35157 v 3.16992 h 0.35157 z"
       style="fill:#1d1d1b;fill-opacity:1;fill-rule:nonzero;stroke:none"
       transform="matrix(0.26458333,0,0,-0.26458333,47.889584,345.91624)"
       clip-path="url(#clipPath134)" />
    <path
       id="path135"
       d="m 470.552,725.57236 0.0117,-0.54199 c 0.11914,0.19531 0.26758,0.34424 0.44531,0.44678 0.17774,0.10254 0.375,0.15381 0.58985,0.15381 0.33984,0 0.59179,-0.0957 0.75781,-0.28711 0.16602,-0.19141 0.25,-0.47852 0.25195,-0.86133 v -2.08008 h -0.34765 v 2.08301 c -0.002,0.2832 -0.0625,0.49414 -0.18067,0.63281 -0.11816,0.13867 -0.30761,0.20801 -0.56738,0.20801 -0.2168,0 -0.4082,-0.0679 -0.5752,-0.20361 -0.16699,-0.13575 -0.29003,-0.31885 -0.37011,-0.54932 v -2.1709 H 470.218 v 3.16992 h 0.33398 z"
       style="fill:#1d1d1b;fill-opacity:1;fill-rule:nonzero;stroke:none"
       transform="matrix(0.26458333,0,0,-0.26458333,47.889584,345.91624)"
       clip-path="url(#clipPath136)" />
    <path
       id="path137"
       d="m 475.41333,723.20811 c 0,0.17382 -0.0703,0.31347 -0.20996,0.41894 -0.13965,0.10547 -0.35059,0.18799 -0.63184,0.24756 -0.28125,0.0596 -0.49902,0.12793 -0.65429,0.20508 -0.15528,0.0771 -0.27051,0.17138 -0.34571,0.28271 -0.0752,0.11133 -0.11328,0.2461 -0.11328,0.4043 0,0.25 0.10547,0.45654 0.31446,0.61963 0.20898,0.16308 0.47656,0.24463 0.80273,0.24463 0.35352,0 0.63672,-0.0874 0.85059,-0.26221 0.21386,-0.1748 0.32128,-0.40283 0.32128,-0.68408 h -0.35156 c 0,0.18554 -0.0781,0.33984 -0.2334,0.46289 -0.15527,0.12305 -0.35058,0.18457 -0.58691,0.18457 -0.23047,0 -0.41602,-0.0513 -0.55566,-0.15381 -0.13965,-0.10254 -0.20997,-0.23584 -0.20997,-0.3999 0,-0.15821 0.0586,-0.28076 0.17481,-0.36768 0.11621,-0.0869 0.32812,-0.1665 0.63574,-0.23877 0.30762,-0.0723 0.53809,-0.14941 0.69141,-0.23144 0.15332,-0.082 0.26758,-0.18067 0.34179,-0.2959 0.0742,-0.11524 0.11133,-0.25488 0.11133,-0.41895 0,-0.26757 -0.1084,-0.48144 -0.32422,-0.6416 -0.21582,-0.16015 -0.49804,-0.24023 -0.8457,-0.24023 -0.36914,0 -0.66797,0.0894 -0.89746,0.26806 -0.22949,0.17871 -0.34473,0.40479 -0.34473,0.67823 h 0.35157 c 0.0137,-0.20508 0.10058,-0.36475 0.25976,-0.47901 0.15918,-0.11425 0.36914,-0.17138 0.63086,-0.17138 0.24414,0 0.44141,0.0537 0.5918,0.16113 0.15039,0.10742 0.22656,0.24316 0.22656,0.40723 z"
       style="fill:#1d1d1b;fill-opacity:1;fill-rule:nonzero;stroke:none"
       transform="matrix(0.26458333,0,0,-0.26458333,47.889584,345.91624)"
       clip-path="url(#clipPath138)" />
    <path
       id="path139"
       d="m 452.07056,716.30381 c 0,-0.39258 -0.0674,-0.73731 -0.2041,-1.03418 -0.13477,-0.29688 -0.32911,-0.52539 -0.58106,-0.68555 -0.25195,-0.16015 -0.54297,-0.24023 -0.87305,-0.24023 -0.49804,0 -0.90039,0.17822 -1.20703,0.53467 -0.30664,0.35644 -0.45996,0.8374 -0.45996,1.44287 v 0.43945 c 0,0.38867 0.0684,0.73291 0.20703,1.03271 0.13672,0.29981 0.33203,0.53028 0.58399,0.69141 0.25195,0.16113 0.54199,0.2417 0.87011,0.2417 0.32813,0 0.61817,-0.0791 0.86817,-0.2373 0.25195,-0.15821 0.44531,-0.38184 0.58203,-0.6709 0.13672,-0.28907 0.20801,-0.62403 0.21387,-1.00489 z m -0.36035,0.46289 c 0,0.51367 -0.11622,0.91601 -0.34864,1.20703 -0.23242,0.29102 -0.55078,0.43652 -0.95508,0.43652 -0.39648,0 -0.71191,-0.14599 -0.94824,-0.43798 -0.23437,-0.292 -0.35254,-0.69971 -0.35254,-1.22315 v -0.44531 c 0,-0.50586 0.11719,-0.90674 0.35157,-1.20264 0.23437,-0.2959 0.55273,-0.44385 0.95507,-0.44385 0.40821,0 0.72657,0.146 0.95508,0.43799 0.22852,0.29199 0.34277,0.69873 0.34277,1.22022 v 0.45117 z"
       style="fill:#1d1d1b;fill-opacity:1;fill-rule:nonzero;stroke:none"
       transform="matrix(0.26458333,0,0,-0.26458333,47.889584,345.91624)"
       clip-path="url(#clipPath140)" />
    <path
       id="path141"
       d="m 453.44165,718.38389 v -0.81153 h 0.65625 v -0.28711 h -0.65625 v -2.11474 c 0,-0.17578 0.0322,-0.30713 0.0947,-0.39307 0.0644,-0.0859 0.16992,-0.1289 0.31836,-0.1289 0.0586,0 0.15332,0.01 0.28418,0.0293 l 0.0146,-0.28467 c -0.0918,-0.0327 -0.21679,-0.0493 -0.375,-0.0493 -0.24023,0 -0.41503,0.0698 -0.52441,0.20947 -0.10937,0.13965 -0.16406,0.34522 -0.16406,0.6167 v 2.11523 h -0.58301 v 0.28711 h 0.58301 v 0.81153 h 0.35156 z"
       style="fill:#1d1d1b;fill-opacity:1;fill-rule:nonzero;stroke:none"
       transform="matrix(0.26458333,0,0,-0.26458333,47.889584,345.91624)"
       clip-path="url(#clipPath142)" />
    <path
       id="path143"
       d="m 455.1731,717.03623 c 0.11523,0.18945 0.26269,0.33594 0.44238,0.43945 0.17969,0.10352 0.37598,0.15528 0.58887,0.15528 0.33984,0 0.59277,-0.0957 0.75878,-0.28711 0.16602,-0.19141 0.25,-0.47852 0.25196,-0.86133 v -2.08008 h -0.34863 v 2.08301 c -0.002,0.2832 -0.0625,0.49414 -0.17969,0.63281 -0.11914,0.13867 -0.30762,0.20801 -0.56739,0.20801 -0.21679,0 -0.40917,-0.0679 -0.57519,-0.20361 -0.16797,-0.13575 -0.29102,-0.31885 -0.37109,-0.54932 v -2.1709 h -0.34864 v 4.5 h 0.34864 z"
       style="fill:#1d1d1b;fill-opacity:1;fill-rule:nonzero;stroke:none"
       transform="matrix(0.26458333,0,0,-0.26458333,47.889584,345.91624)"
       clip-path="url(#clipPath144)" />
    <path
       id="path145"
       d="m 459.34497,714.34385 c -0.26953,0 -0.51367,0.0664 -0.73047,0.19922 -0.21875,0.13281 -0.38769,0.31787 -0.50879,0.55517 -0.12109,0.23731 -0.18164,0.50342 -0.18164,0.79834 v 0.12598 c 0,0.30469 0.0596,0.5791 0.17676,0.82324 0.11914,0.24414 0.2832,0.43604 0.49414,0.57568 0.21094,0.13965 0.43945,0.20948 0.68555,0.20948 0.38476,0 0.68945,-0.13135 0.91601,-0.39405 0.22461,-0.26269 0.33789,-0.62158 0.33789,-1.07666 v -0.19629 h -2.26172 v -0.0674 c 0,-0.35937 0.10352,-0.65869 0.3086,-0.89795 0.20703,-0.23925 0.46582,-0.35888 0.77832,-0.35888 0.1875,0 0.35254,0.0342 0.49707,0.10254 0.14258,0.0684 0.27344,0.17773 0.39062,0.32812 l 0.21973,-0.16699 c -0.25781,-0.37305 -0.63183,-0.55957 -1.12207,-0.55957 z m -0.0644,2.98828 c -0.26367,0 -0.48633,-0.0967 -0.66602,-0.29004 -0.18164,-0.19336 -0.29101,-0.45313 -0.33008,-0.7793 h 1.90137 v 0.0381 c -0.01,0.30469 -0.0967,0.55273 -0.26074,0.74414 -0.16406,0.19141 -0.37891,0.28711 -0.64453,0.28711 z"
       style="fill:#1d1d1b;fill-opacity:1;fill-rule:nonzero;stroke:none"
       transform="matrix(0.26458333,0,0,-0.26458333,47.889584,345.91624)"
       clip-path="url(#clipPath146)" />
    <path
       id="path147"
       d="m 462.68188,717.27354 c -0.0742,0.0137 -0.15332,0.0205 -0.2373,0.0205 -0.21875,0 -0.4043,-0.061 -0.55469,-0.1831 -0.15234,-0.12207 -0.25976,-0.29932 -0.32422,-0.53174 v -2.17676 h -0.34863 v 3.16992 h 0.34277 l 0.006,-0.5039 c 0.18555,0.375 0.4834,0.5625 0.89356,0.5625 0.0976,0 0.1748,-0.0127 0.23144,-0.0381 l -0.009,-0.31933 z"
       style="fill:#1d1d1b;fill-opacity:1;fill-rule:nonzero;stroke:none"
       transform="matrix(0.26458333,0,0,-0.26458333,47.889584,345.91624)"
       clip-path="url(#clipPath148)" />
    <path
       id="path149"
       d="m 465.21606,714.40244 h -0.36035 v 4.26563 h 0.36035 z"
       style="fill:#1d1d1b;fill-opacity:1;fill-rule:nonzero;stroke:none"
       transform="matrix(0.26458333,0,0,-0.26458333,47.889584,345.91624)"
       clip-path="url(#clipPath150)" />
    <path
       id="path151"
       d="m 469.54907,714.40244 h -0.36035 l -2.45215,3.65039 v -3.65039 h -0.36328 v 4.26563 h 0.36328 l 2.45508,-3.65332 v 3.65332 h 0.35742 z"
       style="fill:#1d1d1b;fill-opacity:1;fill-rule:nonzero;stroke:none"
       transform="matrix(0.26458333,0,0,-0.26458333,47.889584,345.91624)"
       clip-path="url(#clipPath152)" />
    <path
       id="path153"
       d="m 473.90845,715.20811 c 0,0.17382 -0.0693,0.31347 -0.20996,0.41894 -0.13868,0.10547 -0.34961,0.18799 -0.63086,0.24756 -0.28125,0.0596 -0.5,0.12793 -0.6543,0.20508 -0.15625,0.0771 -0.27148,0.17138 -0.3457,0.28271 -0.0762,0.11133 -0.11328,0.2461 -0.11328,0.4043 0,0.25 0.10449,0.45654 0.31347,0.61963 0.20899,0.16308 0.47656,0.24463 0.80274,0.24463 0.35351,0 0.63769,-0.0874 0.85058,-0.26221 0.21485,-0.1748 0.32129,-0.40283 0.32129,-0.68408 h -0.35156 c 0,0.18554 -0.0772,0.33984 -0.2334,0.46289 -0.1543,0.12305 -0.35059,0.18457 -0.58691,0.18457 -0.23047,0 -0.41504,-0.0513 -0.55567,-0.15381 -0.13867,-0.10254 -0.20898,-0.23584 -0.20898,-0.3999 0,-0.15821 0.0586,-0.28076 0.17383,-0.36768 0.11718,-0.0869 0.32812,-0.1665 0.63672,-0.23877 0.30664,-0.0723 0.5371,-0.14941 0.6914,-0.23144 0.15235,-0.082 0.2666,-0.18067 0.34082,-0.2959 0.0742,-0.11524 0.11133,-0.25488 0.11133,-0.41895 0,-0.26757 -0.1084,-0.48144 -0.32324,-0.6416 -0.2168,-0.16015 -0.49805,-0.24023 -0.84571,-0.24023 -0.36914,0 -0.66796,0.0894 -0.89843,0.26806 -0.22852,0.17871 -0.34375,0.40479 -0.34375,0.67823 h 0.35156 c 0.0137,-0.20508 0.0996,-0.36475 0.25977,-0.47901 0.1582,-0.11425 0.36914,-0.17138 0.63085,-0.17138 0.24415,0 0.44141,0.0537 0.5918,0.16113 0.15039,0.10742 0.22559,0.24316 0.22559,0.40723 z"
       style="fill:#1d1d1b;fill-opacity:1;fill-rule:nonzero;stroke:none"
       transform="matrix(0.26458333,0,0,-0.26458333,47.889584,345.91624)"
       clip-path="url(#clipPath154)" />
    <path
       id="path155"
       d="m 474.85474,716.03428 c 0,0.30468 0.0586,0.5791 0.17773,0.82324 0.11719,0.24414 0.28516,0.43408 0.5,0.56982 0.2168,0.13575 0.46094,0.20362 0.73438,0.20362 0.42187,0 0.76367,-0.14795 1.02539,-0.44385 0.26172,-0.2959 0.39257,-0.68799 0.39257,-1.17627 v -0.0732 c 0,-0.30664 -0.0586,-0.58252 -0.17773,-0.82764 -0.11719,-0.24512 -0.28418,-0.43408 -0.49902,-0.56689 -0.21485,-0.13282 -0.45996,-0.19922 -0.73536,-0.19922 -0.41992,0 -0.76171,0.14795 -1.02343,0.44385 -0.26367,0.29589 -0.39453,0.68798 -0.39453,1.17626 v 0.0703 z m 0.35156,-0.0967 c 0,-0.37891 0.0977,-0.68994 0.29492,-0.93311 0.19531,-0.24316 0.45313,-0.36474 0.77149,-0.36474 0.3164,0 0.57226,0.12158 0.76953,0.36474 0.19531,0.24317 0.29394,0.56397 0.29394,0.9624 v 0.0674 c 0,0.24218 -0.0449,0.46386 -0.13476,0.66504 -0.0899,0.20117 -0.21582,0.35693 -0.37793,0.46728 -0.16211,0.11035 -0.34766,0.16553 -0.55664,0.16553 -0.3125,0 -0.56739,-0.12256 -0.76465,-0.36768 -0.19727,-0.24511 -0.2959,-0.56591 -0.2959,-0.9624 v -0.0645 z"
       style="fill:#1d1d1b;fill-opacity:1;fill-rule:nonzero;stroke:none"
       transform="matrix(0.26458333,0,0,-0.26458333,47.889584,345.91624)"
       clip-path="url(#clipPath156)" />
    <path
       id="path157"
       d="m 480.44751,714.80381 c -0.21094,-0.30664 -0.54785,-0.45996 -1.01074,-0.45996 -0.33789,0 -0.59473,0.0981 -0.77051,0.29443 -0.17578,0.19629 -0.26563,0.48682 -0.26953,0.87158 v 2.0625 h 0.34863 v -2.01855 c 0,-0.60352 0.24414,-0.90527 0.73242,-0.90527 0.50782,0 0.8291,0.20996 0.96387,0.62988 v 2.29394 h 0.35156 v -3.16992 h -0.33984 l -0.006,0.40137 z"
       style="fill:#1d1d1b;fill-opacity:1;fill-rule:nonzero;stroke:none"
       transform="matrix(0.26458333,0,0,-0.26458333,47.889584,345.91624)"
       clip-path="url(#clipPath158)" />
    <path
       id="path159"
       d="m 483.16919,717.27354 c -0.0742,0.0137 -0.15332,0.0205 -0.23731,0.0205 -0.21875,0 -0.40332,-0.061 -0.55566,-0.1831 -0.15039,-0.12207 -0.25879,-0.29932 -0.32324,-0.53174 v -2.17676 h -0.34863 v 3.16992 h 0.34277 l 0.006,-0.5039 c 0.18555,0.375 0.4834,0.5625 0.89355,0.5625 0.0977,0 0.17481,-0.0127 0.23145,-0.0381 l -0.009,-0.31933 z"
       style="fill:#1d1d1b;fill-opacity:1;fill-rule:nonzero;stroke:none"
       transform="matrix(0.26458333,0,0,-0.26458333,47.889584,345.91624)"
       clip-path="url(#clipPath160)" />
    <path
       id="path161"
       d="m 484.83911,714.63975 c 0.24414,0 0.44922,0.0688 0.61328,0.20654 0.16602,0.13769 0.25489,0.31592 0.26856,0.53467 h 0.33691 c -0.01,-0.19336 -0.0703,-0.36963 -0.18164,-0.52881 -0.11133,-0.15918 -0.25976,-0.28369 -0.44336,-0.37354 -0.18555,-0.0898 -0.38281,-0.13476 -0.59375,-0.13476 -0.41601,0 -0.74609,0.14453 -0.98828,0.43359 -0.24414,0.28906 -0.36523,0.67774 -0.36523,1.16602 v 0.10547 c 0,0.3125 0.0547,0.58886 0.16406,0.8291 0.10937,0.24023 0.26562,0.42578 0.4707,0.55664 0.20313,0.13086 0.44238,0.19629 0.71582,0.19629 0.34766,0 0.63379,-0.10352 0.86035,-0.31055 0.22461,-0.20703 0.34571,-0.47949 0.36133,-0.81738 h -0.33691 c -0.0156,0.24804 -0.10449,0.44824 -0.26856,0.60058 -0.16211,0.15235 -0.36816,0.22852 -0.61621,0.22852 -0.3164,0 -0.56152,-0.11426 -0.7373,-0.34277 -0.17383,-0.22852 -0.26172,-0.54883 -0.26172,-0.96094 v -0.10254 c 0,-0.4043 0.0879,-0.71973 0.26172,-0.94629 0.17578,-0.22656 0.42187,-0.33984 0.74023,-0.33984 z"
       style="fill:#1d1d1b;fill-opacity:1;fill-rule:nonzero;stroke:none"
       transform="matrix(0.26458333,0,0,-0.26458333,47.889584,345.91624)"
       clip-path="url(#clipPath162)" />
    <path
       id="path163"
       d="m 487.9856,714.34385 c -0.26954,0 -0.51368,0.0664 -0.73047,0.19922 -0.21875,0.13281 -0.3877,0.31787 -0.50879,0.55517 -0.1211,0.23731 -0.18164,0.50342 -0.18164,0.79834 v 0.12598 c 0,0.30469 0.0596,0.5791 0.17676,0.82324 0.11914,0.24414 0.2832,0.43604 0.49414,0.57568 0.21093,0.13965 0.43945,0.20948 0.68554,0.20948 0.38477,0 0.68946,-0.13135 0.91602,-0.39405 0.22461,-0.26269 0.33789,-0.62158 0.33789,-1.07666 v -0.19629 h -2.26172 v -0.0674 c 0,-0.35937 0.10352,-0.65869 0.30859,-0.89795 0.20703,-0.23925 0.46582,-0.35888 0.77832,-0.35888 0.1875,0 0.35254,0.0342 0.49707,0.10254 0.14258,0.0684 0.27344,0.17773 0.39063,0.32812 l 0.21973,-0.16699 c -0.25782,-0.37305 -0.63184,-0.55957 -1.12207,-0.55957 z m -0.0645,2.98828 c -0.26367,0 -0.48633,-0.0967 -0.66601,-0.29004 -0.18164,-0.19336 -0.29102,-0.45313 -0.33008,-0.7793 h 1.90137 v 0.0381 c -0.01,0.30469 -0.0967,0.55273 -0.26075,0.74414 -0.16406,0.19141 -0.3789,0.28711 -0.64453,0.28711 z"
       style="fill:#1d1d1b;fill-opacity:1;fill-rule:nonzero;stroke:none"
       transform="matrix(0.26458333,0,0,-0.26458333,47.889584,345.91624)"
       clip-path="url(#clipPath164)" />
    <path
       id="path165"
       d="m 491.7561,715.20811 c 0,0.17382 -0.0693,0.31347 -0.20996,0.41894 -0.13867,0.10547 -0.34961,0.18799 -0.63086,0.24756 -0.28125,0.0596 -0.5,0.12793 -0.65429,0.20508 -0.15625,0.0771 -0.27149,0.17138 -0.34571,0.28271 -0.0762,0.11133 -0.11328,0.2461 -0.11328,0.4043 0,0.25 0.10449,0.45654 0.31348,0.61963 0.20898,0.16308 0.47656,0.24463 0.80273,0.24463 0.35352,0 0.6377,-0.0874 0.85059,-0.26221 0.21484,-0.1748 0.32129,-0.40283 0.32129,-0.68408 h -0.35156 c 0,0.18554 -0.0772,0.33984 -0.2334,0.46289 -0.1543,0.12305 -0.35059,0.18457 -0.58692,0.18457 -0.23047,0 -0.41504,-0.0513 -0.55566,-0.15381 -0.13867,-0.10254 -0.20899,-0.23584 -0.20899,-0.3999 0,-0.15821 0.0586,-0.28076 0.17383,-0.36768 0.11719,-0.0869 0.32813,-0.1665 0.63672,-0.23877 0.30664,-0.0723 0.53711,-0.14941 0.69141,-0.23144 0.15234,-0.082 0.2666,-0.18067 0.34082,-0.2959 0.0742,-0.11524 0.11133,-0.25488 0.11133,-0.41895 0,-0.26757 -0.1084,-0.48144 -0.32325,-0.6416 -0.21679,-0.16015 -0.49804,-0.24023 -0.8457,-0.24023 -0.36914,0 -0.66797,0.0894 -0.89844,0.26806 -0.22851,0.17871 -0.34375,0.40479 -0.34375,0.67823 h 0.35157 c 0.0137,-0.20508 0.0996,-0.36475 0.25976,-0.47901 0.1582,-0.11425 0.36914,-0.17138 0.63086,-0.17138 0.24414,0 0.44141,0.0537 0.5918,0.16113 0.15039,0.10742 0.22558,0.24316 0.22558,0.40723 z"
       style="fill:#1d1d1b;fill-opacity:1;fill-rule:nonzero;stroke:none"
       transform="matrix(0.26458333,0,0,-0.26458333,47.889584,345.91624)"
       clip-path="url(#clipPath166)" />
    <path
       id="path167"
       d="m 224.45531,719.9 h 8.03027 v 1 h -8.03027 z"
       style="fill:#1d1d1b;fill-opacity:1;fill-rule:nonzero;stroke:none"
       transform="matrix(0.26458333,0,0,-0.26458333,47.889584,345.91624)"
       clip-path="url(#clipPath168)" />
    <path
       id="path169"
       d="M 225.85944,722.25156 225.07282,720.4 225.85944,718.54844 221.47028,720.4 Z"
       style="fill:#1d1d1b;fill-opacity:1;fill-rule:nonzero;stroke:none"
       transform="matrix(0.26458333,0,0,-0.26458333,47.889584,345.91624)"
       clip-path="url(#clipPath170)" />
    <path
       id="path171"
       d="m 249.09837,719.9 h 10.98828 v 1 h -10.98828 z"
       style="fill:#1d1d1b;fill-opacity:1;fill-rule:nonzero;stroke:none"
       transform="matrix(0.26458333,0,0,-0.26458333,47.889584,345.91624)"
       clip-path="url(#clipPath172)" />
    <path
       id="path173"
       d="m 233.97338,720.13975 v -1.73731 h -0.36035 v 4.26563 h 1.45312 c 0.44336,0 0.79346,-0.11328 1.0503,-0.33985 0.25683,-0.22656 0.38525,-0.53808 0.38525,-0.93457 0,-0.40039 -0.12353,-0.70947 -0.3706,-0.92724 -0.24707,-0.21778 -0.60498,-0.32666 -1.07373,-0.32666 z m 0,0.30468 h 1.09277 c 0.34961,0 0.61622,0.083 0.79981,0.24952 0.18359,0.16601 0.27539,0.39794 0.27539,0.69531 0,0.29541 -0.0913,0.53076 -0.27393,0.70556 -0.18261,0.1753 -0.44189,0.26465 -0.77783,0.26856 h -1.11621 z"
       style="fill:#1d1d1b;fill-opacity:1;fill-rule:nonzero;stroke:none"
       transform="matrix(0.26458333,0,0,-0.26458333,47.889584,345.91624)"
       clip-path="url(#clipPath174)" />
    <path
       id="path175"
       d="m 240.24584,722.66807 v -2.91211 c -0.002,-0.28711 -0.0654,-0.53711 -0.19043,-0.75 -0.125,-0.21289 -0.30127,-0.37647 -0.52881,-0.49073 -0.22754,-0.11425 -0.48877,-0.17138 -0.78369,-0.17138 -0.44922,0 -0.80908,0.12256 -1.07959,0.36767 -0.27051,0.24512 -0.41064,0.58448 -0.42041,1.01807 v 2.93848 h 0.35742 v -2.88575 c 0,-0.35937 0.10254,-0.63818 0.30762,-0.83642 0.20508,-0.19824 0.4834,-0.29736 0.83496,-0.29736 0.35156,0 0.6294,0.0996 0.8335,0.29882 0.2041,0.19922 0.30615,0.47657 0.30615,0.83203 v 2.88868 z"
       style="fill:#1d1d1b;fill-opacity:1;fill-rule:nonzero;stroke:none"
       transform="matrix(0.26458333,0,0,-0.26458333,47.889584,345.91624)"
       clip-path="url(#clipPath176)" />
    <path
       id="path177"
       d="m 243.66478,719.45127 c 0,0.23633 -0.083,0.42334 -0.24902,0.56103 -0.16602,0.1377 -0.46972,0.26856 -0.91113,0.39258 -0.44141,0.12403 -0.76367,0.25928 -0.9668,0.40576 -0.28906,0.20704 -0.43359,0.47852 -0.43359,0.81446 0,0.32617 0.13428,0.59131 0.40283,0.79541 0.26856,0.2041 0.61182,0.30615 1.02979,0.30615 0.2832,0 0.53661,-0.0547 0.76024,-0.16406 0.22364,-0.10938 0.39698,-0.26172 0.52002,-0.45703 0.12305,-0.19532 0.18457,-0.41309 0.18457,-0.65332 h -0.36328 c 0,0.29199 -0.0996,0.52636 -0.29883,0.70361 -0.19921,0.17725 -0.46678,0.26611 -0.80272,0.26611 -0.32617,0 -0.58594,-0.0728 -0.7793,-0.21875 -0.19336,-0.14551 -0.29004,-0.33593 -0.29004,-0.5708 0,-0.2168 0.0869,-0.39404 0.26074,-0.53076 0.17383,-0.13721 0.45215,-0.25781 0.83496,-0.36279 0.38282,-0.10449 0.67285,-0.21289 0.87011,-0.3252 0.19727,-0.1123 0.34571,-0.24658 0.44532,-0.40283 0.0996,-0.15625 0.14941,-0.34082 0.14941,-0.55371 0,-0.33594 -0.13428,-0.60547 -0.40283,-0.80859 -0.26856,-0.20313 -0.62256,-0.30469 -1.06201,-0.30469 -0.30078,0 -0.57666,0.0537 -0.82763,0.16113 -0.25098,0.10742 -0.44141,0.25781 -0.57129,0.45117 -0.12988,0.19336 -0.19483,0.41504 -0.19483,0.66504 h 0.36036 c 0,-0.30078 0.1123,-0.53808 0.33691,-0.71191 0.22461,-0.17383 0.52344,-0.26074 0.89648,-0.26074 0.33204,0 0.59863,0.0732 0.7998,0.21972 0.20117,0.14649 0.30176,0.34082 0.30176,0.58301 z"
       style="fill:#1d1d1b;fill-opacity:1;fill-rule:nonzero;stroke:none"
       transform="matrix(0.26458333,0,0,-0.26458333,47.889584,345.91624)"
       clip-path="url(#clipPath178)" />
    <path
       id="path179"
       d="m 247.96556,718.40244 h -0.36328 v 2.04492 h -2.4375 v -2.04492 h -0.36035 v 4.26563 h 0.36035 v -1.91602 h 2.4375 v 1.91602 h 0.36328 z"
       style="fill:#1d1d1b;fill-opacity:1;fill-rule:nonzero;stroke:none"
       transform="matrix(0.26458333,0,0,-0.26458333,47.889584,345.91624)"
       clip-path="url(#clipPath180)" />
    <path
       id="path181"
       d="m 132.60326,719.9 h 6.18604 v 1 h -6.18604 z"
       style="fill:#1d1d1b;fill-opacity:1;fill-rule:nonzero;stroke:none"
       transform="matrix(0.26458333,0,0,-0.26458333,47.889584,345.91624)"
       clip-path="url(#clipPath182)" />
    <path
       id="path183"
       d="M 134.00735,722.25156 133.22073,720.4 134.00735,718.54844 129.61819,720.4 Z"
       style="fill:#1d1d1b;fill-opacity:1;fill-rule:nonzero;stroke:none"
       transform="matrix(0.26458333,0,0,-0.26458333,47.889584,345.91624)"
       clip-path="url(#clipPath184)" />
    <path
       id="path185"
       d="m 159.09057,719.9 h 9.14355 v 1 h -9.14355 z"
       style="fill:#1d1d1b;fill-opacity:1;fill-rule:nonzero;stroke:none"
       transform="matrix(0.26458333,0,0,-0.26458333,47.889584,345.91624)"
       clip-path="url(#clipPath186)" />
    <path
       id="path187"
       d="m 141.99926,719.45127 c 0,0.23633 -0.083,0.42334 -0.24903,0.56103 -0.16601,0.1377 -0.46972,0.26856 -0.91113,0.39258 -0.4414,0.12403 -0.76367,0.25928 -0.9668,0.40576 -0.28906,0.20704 -0.43359,0.47852 -0.43359,0.81446 0,0.32617 0.13428,0.59131 0.40283,0.79541 0.26856,0.2041 0.61182,0.30615 1.02979,0.30615 0.2832,0 0.53662,-0.0547 0.76025,-0.16406 0.22364,-0.10938 0.39697,-0.26172 0.52002,-0.45703 0.12305,-0.19532 0.18457,-0.41309 0.18457,-0.65332 h -0.36328 c 0,0.29199 -0.0996,0.52636 -0.29883,0.70361 -0.19922,0.17725 -0.46679,0.26611 -0.80273,0.26611 -0.32617,0 -0.58594,-0.0728 -0.7793,-0.21875 -0.19336,-0.14551 -0.29004,-0.33593 -0.29004,-0.5708 0,-0.2168 0.0869,-0.39404 0.26074,-0.53076 0.17383,-0.13721 0.45215,-0.25781 0.83497,-0.36279 0.38281,-0.10449 0.67285,-0.21289 0.87011,-0.3252 0.19727,-0.1123 0.34571,-0.24658 0.44532,-0.40283 0.0996,-0.15625 0.14941,-0.34082 0.14941,-0.55371 0,-0.33594 -0.13428,-0.60547 -0.40283,-0.80859 -0.26856,-0.20313 -0.62256,-0.30469 -1.06201,-0.30469 -0.30079,0 -0.57666,0.0537 -0.82764,0.16113 -0.25098,0.10742 -0.44141,0.25781 -0.57129,0.45117 -0.12988,0.19336 -0.19482,0.41504 -0.19482,0.66504 h 0.36035 c 0,-0.30078 0.1123,-0.53808 0.33691,-0.71191 0.22461,-0.17383 0.52344,-0.26074 0.89649,-0.26074 0.33203,0 0.59863,0.0732 0.7998,0.21972 0.20117,0.14649 0.30176,0.34082 0.30176,0.58301 z"
       style="fill:#1d1d1b;fill-opacity:1;fill-rule:nonzero;stroke:none"
       transform="matrix(0.26458333,0,0,-0.26458333,47.889584,345.91624)"
       clip-path="url(#clipPath188)" />
    <path
       id="path189"
       d="m 144.06176,718.90635 0.92578,2.66601 h 0.37793 l -1.35352,-3.70898 -0.0703,-0.16406 c -0.17383,-0.38477 -0.44238,-0.57715 -0.80566,-0.57715 -0.084,0 -0.17383,0.0137 -0.26953,0.041 l -0.003,0.29004 0.18164,-0.0176 c 0.17187,0 0.31103,0.0425 0.41748,0.12745 0.10644,0.085 0.19677,0.23095 0.27099,0.43798 l 0.15528,0.42774 -1.19532,3.14355 h 0.38379 l 0.98438,-2.66601 z"
       style="fill:#1d1d1b;fill-opacity:1;fill-rule:nonzero;stroke:none"
       transform="matrix(0.26458333,0,0,-0.26458333,47.889584,345.91624)"
       clip-path="url(#clipPath190)" />
    <path
       id="path191"
       d="m 147.8059,719.20811 c 0,0.17382 -0.0698,0.31347 -0.20947,0.41894 -0.13965,0.10547 -0.3501,0.18799 -0.63135,0.24756 -0.28125,0.0596 -0.49951,0.12793 -0.65479,0.20508 -0.15527,0.0771 -0.2705,0.17138 -0.3457,0.28271 -0.0752,0.11133 -0.11279,0.2461 -0.11279,0.4043 0,0.25 0.10449,0.45654 0.31347,0.61963 0.20899,0.16308 0.47657,0.24463 0.80274,0.24463 0.35352,0 0.63721,-0.0874 0.85107,-0.26221 0.21387,-0.1748 0.3208,-0.40283 0.3208,-0.68408 h -0.35156 c 0,0.18554 -0.0776,0.33984 -0.23291,0.46289 -0.15527,0.12305 -0.35107,0.18457 -0.5874,0.18457 -0.23047,0 -0.41553,-0.0513 -0.55518,-0.15381 -0.13965,-0.10254 -0.20947,-0.23584 -0.20947,-0.3999 0,-0.15821 0.0581,-0.28076 0.17432,-0.36768 0.11621,-0.0869 0.32812,-0.1665 0.63574,-0.23877 0.30762,-0.0723 0.53809,-0.14941 0.69141,-0.23144 0.15332,-0.082 0.26709,-0.18067 0.3413,-0.2959 0.0742,-0.11524 0.11133,-0.25488 0.11133,-0.41895 0,-0.26757 -0.10791,-0.48144 -0.32373,-0.6416 -0.21582,-0.16015 -0.49756,-0.24023 -0.84521,-0.24023 -0.36915,0 -0.66846,0.0894 -0.89795,0.26806 -0.2295,0.17871 -0.34424,0.40479 -0.34424,0.67823 h 0.35156 c 0.0137,-0.20508 0.1001,-0.36475 0.25928,-0.47901 0.15918,-0.11425 0.36963,-0.17138 0.63135,-0.17138 0.24414,0 0.4414,0.0537 0.59179,0.16113 0.15039,0.10742 0.22559,0.24316 0.22559,0.40723 z"
       style="fill:#1d1d1b;fill-opacity:1;fill-rule:nonzero;stroke:none"
       transform="matrix(0.26458333,0,0,-0.26458333,47.889584,345.91624)"
       clip-path="url(#clipPath192)" />
    <path
       id="path193"
       d="m 149.49047,722.38389 v -0.81153 h 0.65625 v -0.28711 h -0.65625 v -2.11474 c 0,-0.17578 0.0317,-0.30713 0.0952,-0.39307 0.0635,-0.0859 0.16943,-0.1289 0.31787,-0.1289 0.0586,0 0.15332,0.01 0.28418,0.0293 l 0.0146,-0.28467 c -0.0918,-0.0327 -0.21679,-0.0493 -0.375,-0.0493 -0.24023,0 -0.41503,0.0698 -0.52441,0.20947 -0.10937,0.13965 -0.16406,0.34522 -0.16406,0.6167 v 2.11523 h -0.58301 v 0.28711 h 0.58301 v 0.81153 h 0.35156 z"
       style="fill:#1d1d1b;fill-opacity:1;fill-rule:nonzero;stroke:none"
       transform="matrix(0.26458333,0,0,-0.26458333,47.889584,345.91624)"
       clip-path="url(#clipPath194)" />
    <path
       id="path195"
       d="m 152.10082,718.34385 c -0.26953,0 -0.51318,0.0664 -0.73095,0.19922 -0.21778,0.13281 -0.38721,0.31787 -0.50831,0.55517 -0.12109,0.23731 -0.18164,0.50342 -0.18164,0.79834 v 0.12598 c 0,0.30469 0.0591,0.5791 0.17725,0.82324 0.11816,0.24414 0.28271,0.43604 0.49365,0.57568 0.21094,0.13965 0.43946,0.20948 0.68555,0.20948 0.38476,0 0.68994,-0.13135 0.91553,-0.39405 0.22558,-0.26269 0.33838,-0.62158 0.33838,-1.07666 v -0.19629 h -2.26172 v -0.0674 c 0,-0.35937 0.10302,-0.65869 0.30908,-0.89795 0.20605,-0.23925 0.46533,-0.35888 0.77783,-0.35888 0.1875,0 0.35303,0.0342 0.49658,0.10254 0.14356,0.0684 0.27393,0.17773 0.39112,0.32812 l 0.21972,-0.16699 c -0.25781,-0.37305 -0.63183,-0.55957 -1.12207,-0.55957 z m -0.0644,2.98828 c -0.26367,0 -0.48584,-0.0967 -0.6665,-0.29004 -0.18067,-0.19336 -0.29053,-0.45313 -0.32959,-0.7793 h 1.90136 v 0.0381 c -0.01,0.30469 -0.0967,0.55273 -0.26074,0.74414 -0.16406,0.19141 -0.37891,0.28711 -0.64453,0.28711 z"
       style="fill:#1d1d1b;fill-opacity:1;fill-rule:nonzero;stroke:none"
       transform="matrix(0.26458333,0,0,-0.26458333,47.889584,345.91624)"
       clip-path="url(#clipPath196)" />
    <path
       id="path197"
       d="m 154.29223,721.57236 0.0117,-0.51562 c 0.11719,0.1914 0.26367,0.33496 0.43945,0.43066 0.17578,0.0957 0.37109,0.14356 0.58594,0.14356 0.5,0 0.81738,-0.20508 0.95215,-0.61524 0.11328,0.19727 0.26464,0.34912 0.4541,0.45557 0.18945,0.10644 0.39844,0.15967 0.62695,0.15967 0.67969,0 1.02637,-0.3711 1.04004,-1.11328 v -2.11524 H 158.051 v 2.08887 c -0.002,0.2832 -0.063,0.49316 -0.18311,0.62988 -0.12011,0.13672 -0.31592,0.20508 -0.5874,0.20508 -0.25195,-0.004 -0.46484,-0.0855 -0.63867,-0.24463 -0.17383,-0.15918 -0.27051,-0.35303 -0.29004,-0.58154 v -2.09766 h -0.35156 v 2.11524 c -0.002,0.27148 -0.0659,0.47412 -0.1919,0.60791 -0.12597,0.13379 -0.31982,0.20068 -0.58154,0.20068 -0.2207,0 -0.41016,-0.063 -0.56836,-0.18897 -0.1582,-0.12597 -0.27539,-0.31298 -0.35156,-0.56103 v -2.17383 h -0.35157 v 3.16992 h 0.33692 z"
       style="fill:#1d1d1b;fill-opacity:1;fill-rule:nonzero;stroke:none"
       transform="matrix(0.26458333,0,0,-0.26458333,47.889584,345.91624)"
       clip-path="url(#clipPath198)" />
  </g>
</svg>
