<?xml version="1.0" encoding="UTF-8" standalone="no"?>
<!-- Created with Inkscape (http://www.inkscape.org/) -->

<svg
   width="103.19729mm"
   height="19.049995mm"
   viewBox="0 0 103.19729 19.049995"
   version="1.1"
   id="svg1"
   inkscape:version="1.4 (e7c3feb100, 2024-10-09)"
   sodipodi:docname="pio clock 3.svg"
   xmlns:inkscape="http://www.inkscape.org/namespaces/inkscape"
   xmlns:sodipodi="http://sodipodi.sourceforge.net/DTD/sodipodi-0.dtd"
   xmlns="http://www.w3.org/2000/svg"
   xmlns:svg="http://www.w3.org/2000/svg">
  <sodipodi:namedview
     id="namedview1"
     pagecolor="#ffffff"
     bordercolor="#000000"
     borderopacity="0.25"
     inkscape:showpageshadow="2"
     inkscape:pageopacity="0.0"
     inkscape:pagecheckerboard="0"
     inkscape:deskcolor="#d1d1d1"
     inkscape:document-units="mm"
     inkscape:zoom="2.8523962"
     inkscape:cx="204.03898"
     inkscape:cy="60.47547"
     inkscape:window-width="1920"
     inkscape:window-height="1080"
     inkscape:window-x="0"
     inkscape:window-y="0"
     inkscape:window-maximized="1"
     inkscape:current-layer="layer1" />
  <defs
     id="defs1">
    <clipPath
       clipPathUnits="userSpaceOnUse"
       id="clipPath255">
      <path
         d="m 115,390.186 h 292.52775 v 54 H 115 Z"
         transform="matrix(1.3333333,0,0,1.3333333,-38.333333,-148.062)"
         id="path255" />
    </clipPath>
    <clipPath
       clipPathUnits="userSpaceOnUse"
       id="clipPath256">
      <path
         d="m 115,390.186 h 292.52775 v 54 H 115 Z"
         transform="matrix(1.3333333,0,0,-1.3333333,-170.69183,576.2504)"
         id="path256" />
    </clipPath>
    <clipPath
       clipPathUnits="userSpaceOnUse"
       id="clipPath258">
      <path
         d="m 115,390.186 h 292.52775 v 54 H 115 Z"
         transform="matrix(1.3333333,0,0,1.3333333,-38.333333,-148.062)"
         id="path258" />
    </clipPath>
    <clipPath
       clipPathUnits="userSpaceOnUse"
       id="clipPath260">
      <path
         d="m 115,390.186 h 292.52775 v 54 H 115 Z"
         transform="matrix(1.3333333,0,0,1.3333333,-38.333333,-148.062)"
         id="path260" />
    </clipPath>
    <clipPath
       clipPathUnits="userSpaceOnUse"
       id="clipPath262">
      <path
         d="m 115,390.186 h 292.52775 v 54 H 115 Z"
         transform="matrix(1.3333333,0,0,1.3333333,-38.333333,-148.062)"
         id="path262" />
    </clipPath>
    <clipPath
       clipPathUnits="userSpaceOnUse"
       id="clipPath264">
      <path
         d="m 115,390.186 h 292.52775 v 54 H 115 Z"
         transform="matrix(1.3333333,0,0,1.3333333,-38.333333,-148.062)"
         id="path264" />
    </clipPath>
    <clipPath
       clipPathUnits="userSpaceOnUse"
       id="clipPath266">
      <path
         d="m 115,390.186 h 292.52775 v 54 H 115 Z"
         transform="matrix(1.3333333,0,0,1.3333333,-38.333333,-148.062)"
         id="path266" />
    </clipPath>
    <clipPath
       clipPathUnits="userSpaceOnUse"
       id="clipPath268">
      <path
         d="m 115,390.186 h 292.52775 v 54 H 115 Z"
         transform="matrix(1.3333333,0,0,1.3333333,-38.333333,-148.062)"
         id="path268" />
    </clipPath>
    <clipPath
       clipPathUnits="userSpaceOnUse"
       id="clipPath270">
      <path
         d="m 115,390.186 h 292.52775 v 54 H 115 Z"
         transform="matrix(1.3333333,0,0,1.3333333,-38.333333,-148.062)"
         id="path270" />
    </clipPath>
    <clipPath
       clipPathUnits="userSpaceOnUse"
       id="clipPath272">
      <path
         d="m 115,390.186 h 292.52775 v 54 H 115 Z"
         transform="matrix(1.3333333,0,0,1.3333333,-38.333333,-148.062)"
         id="path272" />
    </clipPath>
    <clipPath
       clipPathUnits="userSpaceOnUse"
       id="clipPath274">
      <path
         d="m 115,390.186 h 292.52775 v 54 H 115 Z"
         transform="matrix(1.3333333,0,0,1.3333333,-38.333333,-148.062)"
         id="path274" />
    </clipPath>
    <clipPath
       clipPathUnits="userSpaceOnUse"
       id="clipPath276">
      <path
         d="m 115,390.186 h 292.52775 v 54 H 115 Z"
         transform="matrix(1.3333333,0,0,1.3333333,-38.333333,-148.062)"
         id="path276" />
    </clipPath>
    <clipPath
       clipPathUnits="userSpaceOnUse"
       id="clipPath278">
      <path
         d="m 115,390.186 h 292.52775 v 54 H 115 Z"
         transform="matrix(1.3333333,0,0,1.3333333,-38.333333,-148.062)"
         id="path278" />
    </clipPath>
    <clipPath
       clipPathUnits="userSpaceOnUse"
       id="clipPath280">
      <path
         d="m 115,390.186 h 292.52775 v 54 H 115 Z"
         transform="matrix(1.3333333,0,0,1.3333333,-38.333333,-148.062)"
         id="path280" />
    </clipPath>
    <clipPath
       clipPathUnits="userSpaceOnUse"
       id="clipPath282">
      <path
         d="m 115,390.186 h 292.52775 v 54 H 115 Z"
         transform="matrix(1.3333333,0,0,1.3333333,-38.333333,-148.062)"
         id="path282" />
    </clipPath>
    <clipPath
       clipPathUnits="userSpaceOnUse"
       id="clipPath284">
      <path
         d="m 115,390.186 h 292.52775 v 54 H 115 Z"
         transform="matrix(1.3333333,0,0,1.3333333,-38.333333,-148.062)"
         id="path284" />
    </clipPath>
    <clipPath
       clipPathUnits="userSpaceOnUse"
       id="clipPath286">
      <path
         d="m 115,390.186 h 292.52775 v 54 H 115 Z"
         transform="matrix(1.3333333,0,0,1.3333333,-38.333333,-148.062)"
         id="path286" />
    </clipPath>
    <clipPath
       clipPathUnits="userSpaceOnUse"
       id="clipPath288">
      <path
         d="m 115,390.186 h 292.52775 v 54 H 115 Z"
         transform="matrix(1.3333333,0,0,1.3333333,-38.333333,-148.062)"
         id="path288" />
    </clipPath>
    <clipPath
       clipPathUnits="userSpaceOnUse"
       id="clipPath290">
      <path
         d="m 115,390.186 h 292.52775 v 54 H 115 Z"
         transform="matrix(1.3333333,0,0,1.3333333,-38.333333,-148.062)"
         id="path290" />
    </clipPath>
    <clipPath
       clipPathUnits="userSpaceOnUse"
       id="clipPath292">
      <path
         d="m 115,390.186 h 292.52775 v 54 H 115 Z"
         transform="matrix(1.3333333,0,0,1.3333333,-38.333333,-148.062)"
         id="path292" />
    </clipPath>
    <clipPath
       clipPathUnits="userSpaceOnUse"
       id="clipPath294">
      <path
         d="m 115,390.186 h 292.52775 v 54 H 115 Z"
         transform="matrix(1.3333333,0,0,1.3333333,-38.333333,-148.062)"
         id="path294" />
    </clipPath>
    <clipPath
       clipPathUnits="userSpaceOnUse"
       id="clipPath296">
      <path
         d="m 115,390.186 h 292.52775 v 54 H 115 Z"
         transform="matrix(1.3333333,0,0,1.3333333,-38.333333,-148.062)"
         id="path296" />
    </clipPath>
    <clipPath
       clipPathUnits="userSpaceOnUse"
       id="clipPath298">
      <path
         d="m 115,390.186 h 292.52775 v 54 H 115 Z"
         transform="matrix(1.3333333,0,0,1.3333333,-38.333333,-148.062)"
         id="path298" />
    </clipPath>
    <clipPath
       clipPathUnits="userSpaceOnUse"
       id="clipPath300">
      <path
         d="m 115,390.186 h 292.52775 v 54 H 115 Z"
         transform="matrix(1.3333333,0,0,1.3333333,-38.333333,-148.062)"
         id="path300" />
    </clipPath>
    <clipPath
       clipPathUnits="userSpaceOnUse"
       id="clipPath302">
      <path
         d="m 115,390.186 h 292.52775 v 54 H 115 Z"
         transform="matrix(1.3333333,0,0,1.3333333,-38.333333,-148.062)"
         id="path302" />
    </clipPath>
    <clipPath
       clipPathUnits="userSpaceOnUse"
       id="clipPath304">
      <path
         d="m 115,390.186 h 292.52775 v 54 H 115 Z"
         transform="matrix(1.3333333,0,0,1.3333333,-38.333333,-148.062)"
         id="path304" />
    </clipPath>
    <clipPath
       clipPathUnits="userSpaceOnUse"
       id="clipPath306">
      <path
         d="m 115,390.186 h 292.52775 v 54 H 115 Z"
         transform="matrix(1.3333333,0,0,1.3333333,-38.333333,-148.062)"
         id="path306" />
    </clipPath>
    <clipPath
       clipPathUnits="userSpaceOnUse"
       id="clipPath308">
      <path
         d="m 115,390.186 h 292.52775 v 54 H 115 Z"
         transform="matrix(1.3333333,0,0,1.3333333,-38.333333,-148.062)"
         id="path308" />
    </clipPath>
    <clipPath
       clipPathUnits="userSpaceOnUse"
       id="clipPath310">
      <path
         d="m 115,390.186 h 292.52775 v 54 H 115 Z"
         transform="matrix(1.3333333,0,0,1.3333333,-38.333333,-148.062)"
         id="path310" />
    </clipPath>
    <clipPath
       clipPathUnits="userSpaceOnUse"
       id="clipPath312">
      <path
         d="m 115,390.186 h 292.52775 v 54 H 115 Z"
         transform="matrix(1.3333333,0,0,1.3333333,-38.333333,-148.062)"
         id="path312" />
    </clipPath>
    <clipPath
       clipPathUnits="userSpaceOnUse"
       id="clipPath314">
      <path
         d="m 115,390.186 h 292.52775 v 54 H 115 Z"
         transform="matrix(1.3333333,0,0,1.3333333,-38.333333,-148.062)"
         id="path314" />
    </clipPath>
    <clipPath
       clipPathUnits="userSpaceOnUse"
       id="clipPath316">
      <path
         d="m 115,390.186 h 292.52775 v 54 H 115 Z"
         transform="matrix(1.3333333,0,0,1.3333333,-38.333333,-148.062)"
         id="path316" />
    </clipPath>
    <clipPath
       clipPathUnits="userSpaceOnUse"
       id="clipPath318">
      <path
         d="m 115,390.186 h 292.52775 v 54 H 115 Z"
         transform="matrix(1.3333333,0,0,1.3333333,-38.333333,-148.062)"
         id="path318" />
    </clipPath>
    <clipPath
       clipPathUnits="userSpaceOnUse"
       id="clipPath320">
      <path
         d="m 115,390.186 h 292.52775 v 54 H 115 Z"
         transform="matrix(1.3333333,0,0,1.3333333,-38.333333,-148.062)"
         id="path320" />
    </clipPath>
    <clipPath
       clipPathUnits="userSpaceOnUse"
       id="clipPath322">
      <path
         d="m 115,390.186 h 292.52775 v 54 H 115 Z"
         transform="matrix(1.3333333,0,0,1.3333333,-38.333333,-148.062)"
         id="path322" />
    </clipPath>
    <clipPath
       clipPathUnits="userSpaceOnUse"
       id="clipPath324">
      <path
         d="m 115,390.186 h 292.52775 v 54 H 115 Z"
         transform="matrix(1.3333333,0,0,1.3333333,-38.333333,-148.062)"
         id="path324" />
    </clipPath>
    <clipPath
       clipPathUnits="userSpaceOnUse"
       id="clipPath326">
      <path
         d="m 115,390.186 h 292.52775 v 54 H 115 Z"
         transform="matrix(1.3333333,0,0,1.3333333,-38.333333,-148.062)"
         id="path326" />
    </clipPath>
    <clipPath
       clipPathUnits="userSpaceOnUse"
       id="clipPath328">
      <path
         d="m 115,390.186 h 292.52775 v 54 H 115 Z"
         transform="matrix(1.3333333,0,0,1.3333333,-38.333333,-148.062)"
         id="path328" />
    </clipPath>
    <clipPath
       clipPathUnits="userSpaceOnUse"
       id="clipPath330">
      <path
         d="m 115,390.186 h 292.52775 v 54 H 115 Z"
         transform="matrix(1.3333333,0,0,1.3333333,-38.333333,-148.062)"
         id="path330" />
    </clipPath>
    <clipPath
       clipPathUnits="userSpaceOnUse"
       id="clipPath332">
      <path
         d="m 115,390.186 h 292.52775 v 54 H 115 Z"
         transform="matrix(1.3333333,0,0,1.3333333,-38.333333,-148.062)"
         id="path332" />
    </clipPath>
    <clipPath
       clipPathUnits="userSpaceOnUse"
       id="clipPath334">
      <path
         d="m 115,390.186 h 292.52775 v 54 H 115 Z"
         transform="matrix(1.3333333,0,0,1.3333333,-38.333333,-148.062)"
         id="path334" />
    </clipPath>
    <clipPath
       clipPathUnits="userSpaceOnUse"
       id="clipPath336">
      <path
         d="m 115,390.186 h 292.52775 v 54 H 115 Z"
         transform="matrix(1.3333333,0,0,1.3333333,-38.333333,-148.062)"
         id="path336" />
    </clipPath>
    <clipPath
       clipPathUnits="userSpaceOnUse"
       id="clipPath338">
      <path
         d="m 115,390.186 h 292.52775 v 54 H 115 Z"
         transform="matrix(1.3333333,0,0,1.3333333,-38.333333,-148.062)"
         id="path338" />
    </clipPath>
    <clipPath
       clipPathUnits="userSpaceOnUse"
       id="clipPath340">
      <path
         d="m 115,390.186 h 292.52775 v 54 H 115 Z"
         transform="matrix(1.3333333,0,0,1.3333333,-38.333333,-148.062)"
         id="path340" />
    </clipPath>
    <clipPath
       clipPathUnits="userSpaceOnUse"
       id="clipPath341">
      <path
         d="m 115,390.186 h 292.52775 v 54 H 115 Z"
         transform="matrix(1.3333333,0,0,-1.3333333,-174.47113,564.2504)"
         id="path341" />
    </clipPath>
    <clipPath
       clipPathUnits="userSpaceOnUse"
       id="clipPath342">
      <path
         d="m 115,390.186 h 292.52775 v 54 H 115 Z"
         transform="matrix(1.3333333,0,0,-1.3333333,-169.08343,552.2504)"
         id="path342" />
    </clipPath>
    <clipPath
       clipPathUnits="userSpaceOnUse"
       id="clipPath343">
      <path
         d="m 115,390.186 h 292.52775 v 54 H 115 Z"
         transform="matrix(1.3333333,0,0,-1.3333333,-172.78653,528.2504)"
         id="path343" />
    </clipPath>
    <clipPath
       clipPathUnits="userSpaceOnUse"
       id="clipPath345">
      <path
         d="m 115,390.186 h 292.52775 v 54 H 115 Z"
         transform="matrix(1.3333333,0,0,1.3333333,-38.333333,-148.062)"
         id="path345" />
    </clipPath>
    <clipPath
       clipPathUnits="userSpaceOnUse"
       id="clipPath346">
      <path
         d="m 115,390.186 h 292.52775 v 54 H 115 Z"
         transform="matrix(1.3333333,0,0,-1.3333333,-156.52383,540.2504)"
         id="path346" />
    </clipPath>
    <clipPath
       clipPathUnits="userSpaceOnUse"
       id="clipPath348">
      <path
         d="m 115,390.186 h 292.52775 v 54 H 115 Z"
         transform="matrix(1.3333333,0,0,1.3333333,-38.333333,-148.062)"
         id="path348" />
    </clipPath>
    <clipPath
       clipPathUnits="userSpaceOnUse"
       id="clipPath350">
      <path
         d="m 115,390.186 h 292.52775 v 54 H 115 Z"
         transform="matrix(1.3333333,0,0,1.3333333,-38.333333,-148.062)"
         id="path350" />
    </clipPath>
    <clipPath
       clipPathUnits="userSpaceOnUse"
       id="clipPath352">
      <path
         d="m 115,390.186 h 292.52775 v 54 H 115 Z"
         transform="matrix(1.3333333,0,0,1.3333333,-38.333333,-148.062)"
         id="path352" />
    </clipPath>
    <clipPath
       clipPathUnits="userSpaceOnUse"
       id="clipPath354">
      <path
         d="m 115,390.186 h 292.52775 v 54 H 115 Z"
         transform="matrix(1.3333333,0,0,1.3333333,-38.333333,-148.062)"
         id="path354" />
    </clipPath>
    <clipPath
       clipPathUnits="userSpaceOnUse"
       id="clipPath356">
      <path
         d="m 115,390.186 h 292.52775 v 54 H 115 Z"
         transform="matrix(1.3333333,0,0,1.3333333,-38.333333,-148.062)"
         id="path356" />
    </clipPath>
    <clipPath
       clipPathUnits="userSpaceOnUse"
       id="clipPath358">
      <path
         d="m 115,390.186 h 292.52775 v 54 H 115 Z"
         transform="matrix(1.3333333,0,0,1.3333333,-38.333333,-148.062)"
         id="path358" />
    </clipPath>
    <clipPath
       clipPathUnits="userSpaceOnUse"
       id="clipPath359">
      <path
         d="m 115,390.186 h 292.52775 v 54 H 115 Z"
         transform="matrix(1.3333333,0,0,-1.3333333,-349.41723,566.3246)"
         id="path359" />
    </clipPath>
    <clipPath
       clipPathUnits="userSpaceOnUse"
       id="clipPath360">
      <path
         d="m 115,390.186 h 292.52775 v 54 H 115 Z"
         transform="matrix(1.3333333,0,0,-1.3333333,-348.69113,554.3246)"
         id="path360" />
    </clipPath>
  </defs>
  <g
     inkscape:label="Layer 1"
     inkscape:groupmode="layer"
     id="layer1"
     transform="translate(-11.90625,-102.12916)">
    <path
       id="path254"
       d="m 115,372.186 h 390.037 v 72 H 115 Z"
       style="fill:#f6f6f6;fill-opacity:1;fill-rule:nonzero;stroke:none"
       transform="matrix(0.26458333,0,0,-0.26458333,-18.520833,219.65337)"
       clip-path="url(#clipPath255)" />
    <text
       id="text255"
       xml:space="preserve"
       transform="matrix(0.26458333,0,0,0.26458333,16.499019,106.36186)"
       clip-path="url(#clipPath256)"><tspan
         id="tspan255"
         style="font-variant:normal;font-weight:normal;font-size:6px;font-family:Roboto;writing-mode:lr-tb;fill:#1d1d1b;fill-opacity:1;fill-rule:nonzero;stroke:none"
         x="0"
         y="0">System Clock</tspan></text>
    <path
       id="path257"
       d="m 176.235,380.186 v 56"
       style="fill:none;stroke:#9d9d9c;stroke-width:0.1654;stroke-linecap:butt;stroke-linejoin:miter;stroke-miterlimit:10;stroke-dasharray:none;stroke-opacity:1"
       transform="matrix(0.26458333,0,0,-0.26458333,-18.520833,219.65337)"
       clip-path="url(#clipPath258)" />
    <path
       id="path259"
       d="m 195.561,380.186 v 56"
       style="fill:none;stroke:#9d9d9c;stroke-width:0.1654;stroke-linecap:butt;stroke-linejoin:miter;stroke-miterlimit:10;stroke-dasharray:none;stroke-opacity:1"
       transform="matrix(0.26458333,0,0,-0.26458333,-18.520833,219.65337)"
       clip-path="url(#clipPath260)" />
    <path
       id="path261"
       d="m 214.887,380.186 v 56"
       style="fill:none;stroke:#9d9d9c;stroke-width:0.1654;stroke-linecap:butt;stroke-linejoin:miter;stroke-miterlimit:10;stroke-dasharray:none;stroke-opacity:1"
       transform="matrix(0.26458333,0,0,-0.26458333,-18.520833,219.65337)"
       clip-path="url(#clipPath262)" />
    <path
       id="path263"
       d="m 234.214,380.186 v 56"
       style="fill:none;stroke:#9d9d9c;stroke-width:0.1654;stroke-linecap:butt;stroke-linejoin:miter;stroke-miterlimit:10;stroke-dasharray:none;stroke-opacity:1"
       transform="matrix(0.26458333,0,0,-0.26458333,-18.520833,219.65337)"
       clip-path="url(#clipPath264)" />
    <path
       id="path265"
       d="m 253.54,380.186 v 56"
       style="fill:none;stroke:#9d9d9c;stroke-width:0.1654;stroke-linecap:butt;stroke-linejoin:miter;stroke-miterlimit:10;stroke-dasharray:none;stroke-opacity:1"
       transform="matrix(0.26458333,0,0,-0.26458333,-18.520833,219.65337)"
       clip-path="url(#clipPath266)" />
    <path
       id="path267"
       d="m 272.867,380.186 v 56"
       style="fill:none;stroke:#9d9d9c;stroke-width:0.1654;stroke-linecap:butt;stroke-linejoin:miter;stroke-miterlimit:10;stroke-dasharray:none;stroke-opacity:1"
       transform="matrix(0.26458333,0,0,-0.26458333,-18.520833,219.65337)"
       clip-path="url(#clipPath268)" />
    <path
       id="path269"
       d="m 292.193,380.186 v 56"
       style="fill:none;stroke:#9d9d9c;stroke-width:0.1654;stroke-linecap:butt;stroke-linejoin:miter;stroke-miterlimit:10;stroke-dasharray:none;stroke-opacity:1"
       transform="matrix(0.26458333,0,0,-0.26458333,-18.520833,219.65337)"
       clip-path="url(#clipPath270)" />
    <path
       id="path271"
       d="m 311.52,380.186 v 56"
       style="fill:none;stroke:#9d9d9c;stroke-width:0.1654;stroke-linecap:butt;stroke-linejoin:miter;stroke-miterlimit:10;stroke-dasharray:none;stroke-opacity:1"
       transform="matrix(0.26458333,0,0,-0.26458333,-18.520833,219.65337)"
       clip-path="url(#clipPath272)" />
    <path
       id="path273"
       d="m 330.846,380.186 v 56"
       style="fill:none;stroke:#9d9d9c;stroke-width:0.1654;stroke-linecap:butt;stroke-linejoin:miter;stroke-miterlimit:10;stroke-dasharray:none;stroke-opacity:1"
       transform="matrix(0.26458333,0,0,-0.26458333,-18.520833,219.65337)"
       clip-path="url(#clipPath274)" />
    <path
       id="path275"
       d="m 350.172,380.186 v 56"
       style="fill:none;stroke:#9d9d9c;stroke-width:0.1654;stroke-linecap:butt;stroke-linejoin:miter;stroke-miterlimit:10;stroke-dasharray:none;stroke-opacity:1"
       transform="matrix(0.26458333,0,0,-0.26458333,-18.520833,219.65337)"
       clip-path="url(#clipPath276)" />
    <path
       id="path277"
       d="m 369.498,380.186 v 56"
       style="fill:none;stroke:#9d9d9c;stroke-width:0.1654;stroke-linecap:butt;stroke-linejoin:miter;stroke-miterlimit:10;stroke-dasharray:none;stroke-opacity:1"
       transform="matrix(0.26458333,0,0,-0.26458333,-18.520833,219.65337)"
       clip-path="url(#clipPath278)" />
    <path
       id="path279"
       d="m 388.825,380.186 v 56"
       style="fill:none;stroke:#9d9d9c;stroke-width:0.1654;stroke-linecap:butt;stroke-linejoin:miter;stroke-miterlimit:10;stroke-dasharray:none;stroke-opacity:1"
       transform="matrix(0.26458333,0,0,-0.26458333,-18.520833,219.65337)"
       clip-path="url(#clipPath280)" />
    <path
       id="path281"
       d="m 408.15,380.186 v 56"
       style="fill:none;stroke:#9d9d9c;stroke-width:0.1654;stroke-linecap:butt;stroke-linejoin:miter;stroke-miterlimit:10;stroke-dasharray:none;stroke-opacity:1"
       transform="matrix(0.26458333,0,0,-0.26458333,-18.520833,219.65337)"
       clip-path="url(#clipPath282)" />
    <path
       id="path283"
       d="m 427.476,380.186 v 56"
       style="fill:none;stroke:#9d9d9c;stroke-width:0.1654;stroke-linecap:butt;stroke-linejoin:miter;stroke-miterlimit:10;stroke-dasharray:none;stroke-opacity:1"
       transform="matrix(0.26458333,0,0,-0.26458333,-18.520833,219.65337)"
       clip-path="url(#clipPath284)" />
    <path
       id="path285"
       d="m 176.235,428.254 v 5.693"
       style="fill:none;stroke:#1d1d1b;stroke-width:0.5;stroke-linecap:butt;stroke-linejoin:miter;stroke-miterlimit:10;stroke-dasharray:none;stroke-opacity:1"
       transform="matrix(0.26458333,0,0,-0.26458333,-18.520833,219.65337)"
       clip-path="url(#clipPath286)" />
    <path
       id="path287"
       d="m 177.623,432.894 -1.388,0.59 -1.389,-0.59 1.389,3.292 z"
       style="fill:#1d1d1b;fill-opacity:1;fill-rule:nonzero;stroke:none"
       transform="matrix(0.26458333,0,0,-0.26458333,-18.520833,219.65337)"
       clip-path="url(#clipPath288)" />
    <path
       id="path289"
       d="m 176.235,436.186 h 9.662 v -7.932 h 9.664 v 5.693"
       style="fill:none;stroke:#1d1d1b;stroke-width:0.5;stroke-linecap:butt;stroke-linejoin:miter;stroke-miterlimit:10;stroke-dasharray:none;stroke-opacity:1"
       transform="matrix(0.26458333,0,0,-0.26458333,-18.520833,219.65337)"
       clip-path="url(#clipPath290)" />
    <path
       id="path291"
       d="m 196.95,432.894 -1.389,0.59 -1.389,-0.59 1.389,3.292 z"
       style="fill:#1d1d1b;fill-opacity:1;fill-rule:nonzero;stroke:none"
       transform="matrix(0.26458333,0,0,-0.26458333,-18.520833,219.65337)"
       clip-path="url(#clipPath292)" />
    <path
       id="path293"
       d="m 195.561,436.186 h 9.663 v -7.932 h 9.663 v 5.693"
       style="fill:none;stroke:#1d1d1b;stroke-width:0.5;stroke-linecap:butt;stroke-linejoin:miter;stroke-miterlimit:10;stroke-dasharray:none;stroke-opacity:1"
       transform="matrix(0.26458333,0,0,-0.26458333,-18.520833,219.65337)"
       clip-path="url(#clipPath294)" />
    <path
       id="path295"
       d="m 216.276,432.894 -1.389,0.59 -1.388,-0.59 1.388,3.292 z"
       style="fill:#1d1d1b;fill-opacity:1;fill-rule:nonzero;stroke:none"
       transform="matrix(0.26458333,0,0,-0.26458333,-18.520833,219.65337)"
       clip-path="url(#clipPath296)" />
    <path
       id="path297"
       d="m 214.887,436.186 h 9.663 v -7.932 h 9.664 v 5.693"
       style="fill:none;stroke:#1d1d1b;stroke-width:0.5;stroke-linecap:butt;stroke-linejoin:miter;stroke-miterlimit:10;stroke-dasharray:none;stroke-opacity:1"
       transform="matrix(0.26458333,0,0,-0.26458333,-18.520833,219.65337)"
       clip-path="url(#clipPath298)" />
    <path
       id="path299"
       d="m 235.603,432.894 -1.389,0.59 -1.389,-0.59 1.389,3.292 z"
       style="fill:#1d1d1b;fill-opacity:1;fill-rule:nonzero;stroke:none"
       transform="matrix(0.26458333,0,0,-0.26458333,-18.520833,219.65337)"
       clip-path="url(#clipPath300)" />
    <path
       id="path301"
       d="m 234.214,436.186 h 9.662 v -7.932 h 9.664 v 5.693"
       style="fill:none;stroke:#1d1d1b;stroke-width:0.5;stroke-linecap:butt;stroke-linejoin:miter;stroke-miterlimit:10;stroke-dasharray:none;stroke-opacity:1"
       transform="matrix(0.26458333,0,0,-0.26458333,-18.520833,219.65337)"
       clip-path="url(#clipPath302)" />
    <path
       id="path303"
       d="m 254.929,432.894 -1.389,0.59 -1.388,-0.59 1.388,3.292 z"
       style="fill:#1d1d1b;fill-opacity:1;fill-rule:nonzero;stroke:none"
       transform="matrix(0.26458333,0,0,-0.26458333,-18.520833,219.65337)"
       clip-path="url(#clipPath304)" />
    <path
       id="path305"
       d="m 253.54,436.186 h 9.663 v -7.932 h 9.664 v 5.693"
       style="fill:none;stroke:#1d1d1b;stroke-width:0.5;stroke-linecap:butt;stroke-linejoin:miter;stroke-miterlimit:10;stroke-dasharray:none;stroke-opacity:1"
       transform="matrix(0.26458333,0,0,-0.26458333,-18.520833,219.65337)"
       clip-path="url(#clipPath306)" />
    <path
       id="path307"
       d="m 274.255,432.894 -1.388,0.59 -1.389,-0.59 1.389,3.292 z"
       style="fill:#1d1d1b;fill-opacity:1;fill-rule:nonzero;stroke:none"
       transform="matrix(0.26458333,0,0,-0.26458333,-18.520833,219.65337)"
       clip-path="url(#clipPath308)" />
    <path
       id="path309"
       d="m 272.867,436.186 h 9.662 v -7.932 h 9.664 v 5.693"
       style="fill:none;stroke:#1d1d1b;stroke-width:0.5;stroke-linecap:butt;stroke-linejoin:miter;stroke-miterlimit:10;stroke-dasharray:none;stroke-opacity:1"
       transform="matrix(0.26458333,0,0,-0.26458333,-18.520833,219.65337)"
       clip-path="url(#clipPath310)" />
    <path
       id="path311"
       d="m 293.582,432.894 -1.389,0.59 -1.389,-0.59 1.389,3.292 z"
       style="fill:#1d1d1b;fill-opacity:1;fill-rule:nonzero;stroke:none"
       transform="matrix(0.26458333,0,0,-0.26458333,-18.520833,219.65337)"
       clip-path="url(#clipPath312)" />
    <path
       id="path313"
       d="m 292.193,436.186 h 9.663 v -7.932 h 9.663 v 5.693"
       style="fill:none;stroke:#1d1d1b;stroke-width:0.5;stroke-linecap:butt;stroke-linejoin:miter;stroke-miterlimit:10;stroke-dasharray:none;stroke-opacity:1"
       transform="matrix(0.26458333,0,0,-0.26458333,-18.520833,219.65337)"
       clip-path="url(#clipPath314)" />
    <path
       id="path315"
       d="m 312.908,432.894 -1.389,0.59 -1.388,-0.59 1.388,3.292 z"
       style="fill:#1d1d1b;fill-opacity:1;fill-rule:nonzero;stroke:none"
       transform="matrix(0.26458333,0,0,-0.26458333,-18.520833,219.65337)"
       clip-path="url(#clipPath316)" />
    <path
       id="path317"
       d="m 311.519,436.186 h 9.663 v -7.932 h 9.664 v 5.693"
       style="fill:none;stroke:#1d1d1b;stroke-width:0.5;stroke-linecap:butt;stroke-linejoin:miter;stroke-miterlimit:10;stroke-dasharray:none;stroke-opacity:1"
       transform="matrix(0.26458333,0,0,-0.26458333,-18.520833,219.65337)"
       clip-path="url(#clipPath318)" />
    <path
       id="path319"
       d="m 332.234,432.894 -1.388,0.59 -1.389,-0.59 1.389,3.292 z"
       style="fill:#1d1d1b;fill-opacity:1;fill-rule:nonzero;stroke:none"
       transform="matrix(0.26458333,0,0,-0.26458333,-18.520833,219.65337)"
       clip-path="url(#clipPath320)" />
    <path
       id="path321"
       d="m 330.846,436.186 h 9.662 v -7.932 h 9.664 v 5.693"
       style="fill:none;stroke:#1d1d1b;stroke-width:0.5;stroke-linecap:butt;stroke-linejoin:miter;stroke-miterlimit:10;stroke-dasharray:none;stroke-opacity:1"
       transform="matrix(0.26458333,0,0,-0.26458333,-18.520833,219.65337)"
       clip-path="url(#clipPath322)" />
    <path
       id="path323"
       d="m 351.561,432.894 -1.389,0.59 -1.388,-0.59 1.388,3.292 z"
       style="fill:#1d1d1b;fill-opacity:1;fill-rule:nonzero;stroke:none"
       transform="matrix(0.26458333,0,0,-0.26458333,-18.520833,219.65337)"
       clip-path="url(#clipPath324)" />
    <path
       id="path325"
       d="m 350.172,436.186 h 9.663 v -7.932 h 9.664 v 5.693"
       style="fill:none;stroke:#1d1d1b;stroke-width:0.5;stroke-linecap:butt;stroke-linejoin:miter;stroke-miterlimit:10;stroke-dasharray:none;stroke-opacity:1"
       transform="matrix(0.26458333,0,0,-0.26458333,-18.520833,219.65337)"
       clip-path="url(#clipPath326)" />
    <path
       id="path327"
       d="m 370.887,432.894 -1.388,0.59 -1.389,-0.59 1.389,3.292 z"
       style="fill:#1d1d1b;fill-opacity:1;fill-rule:nonzero;stroke:none"
       transform="matrix(0.26458333,0,0,-0.26458333,-18.520833,219.65337)"
       clip-path="url(#clipPath328)" />
    <path
       id="path329"
       d="m 369.498,436.186 h 9.663 v -7.932 h 9.664 v 5.693"
       style="fill:none;stroke:#1d1d1b;stroke-width:0.5;stroke-linecap:butt;stroke-linejoin:miter;stroke-miterlimit:10;stroke-dasharray:none;stroke-opacity:1"
       transform="matrix(0.26458333,0,0,-0.26458333,-18.520833,219.65337)"
       clip-path="url(#clipPath330)" />
    <path
       id="path331"
       d="m 390.213,432.894 -1.388,0.59 -1.389,-0.59 1.389,3.292 z"
       style="fill:#1d1d1b;fill-opacity:1;fill-rule:nonzero;stroke:none"
       transform="matrix(0.26458333,0,0,-0.26458333,-18.520833,219.65337)"
       clip-path="url(#clipPath332)" />
    <path
       id="path333"
       d="m 388.824,436.186 h 9.663 v -7.932 h 9.664 v 5.693"
       style="fill:none;stroke:#1d1d1b;stroke-width:0.5;stroke-linecap:butt;stroke-linejoin:miter;stroke-miterlimit:10;stroke-dasharray:none;stroke-opacity:1"
       transform="matrix(0.26458333,0,0,-0.26458333,-18.520833,219.65337)"
       clip-path="url(#clipPath334)" />
    <path
       id="path335"
       d="m 409.54,432.894 -1.389,0.59 -1.389,-0.59 1.389,3.292 z"
       style="fill:#1d1d1b;fill-opacity:1;fill-rule:nonzero;stroke:none"
       transform="matrix(0.26458333,0,0,-0.26458333,-18.520833,219.65337)"
       clip-path="url(#clipPath336)" />
    <path
       id="path337"
       d="m 408.15,436.186 h 9.663 v -7.932 h 9.664"
       style="fill:none;stroke:#1d1d1b;stroke-width:0.5;stroke-linecap:butt;stroke-linejoin:miter;stroke-miterlimit:10;stroke-dasharray:none;stroke-opacity:1"
       transform="matrix(0.26458333,0,0,-0.26458333,-18.520833,219.65337)"
       clip-path="url(#clipPath338)" />
    <path
       id="path339"
       d="m 176.235,380.186 h 39.619 l 2,8 h 17.359 l 2.001,-8 h 17.326 l 2,8 h 17.327 l 2,-8 h 36.653 l 1.999,8 h 17.326 l 2,-8 h 17.327 l 1.999,8 h 17.326 l 2.001,-8 h 36.652 l 2,8 h 16.326"
       style="fill:none;stroke:#1d1d1b;stroke-width:0.5;stroke-linecap:butt;stroke-linejoin:miter;stroke-miterlimit:10;stroke-dasharray:none;stroke-opacity:1"
       transform="matrix(0.26458333,0,0,-0.26458333,-18.520833,219.65337)"
       clip-path="url(#clipPath340)" />
    <text
       id="text340"
       xml:space="preserve"
       transform="matrix(0.26458333,0,0,0.26458333,17.498959,109.53686)"
       clip-path="url(#clipPath341)"><tspan
         id="tspan340"
         style="font-variant:normal;font-weight:normal;font-size:6px;font-family:Roboto;writing-mode:lr-tb;fill:#1d1d1b;fill-opacity:1;fill-rule:nonzero;stroke:none"
         x="0"
         y="0">CLKDIV_INT</tspan></text>
    <text
       id="text341"
       xml:space="preserve"
       transform="matrix(0.26458333,0,0,0.26458333,16.073463,112.71186)"
       clip-path="url(#clipPath342)"><tspan
         id="tspan341"
         style="font-variant:normal;font-weight:normal;font-size:6px;font-family:Roboto;writing-mode:lr-tb;fill:#1d1d1b;fill-opacity:1;fill-rule:nonzero;stroke:none"
         x="0"
         y="0">CLKDIV_FRAC</tspan></text>
    <text
       id="text342"
       xml:space="preserve"
       transform="matrix(0.26458333,0,0,0.26458333,17.053241,119.06186)"
       clip-path="url(#clipPath343)"><tspan
         id="tspan342"
         style="font-variant:normal;font-weight:normal;font-size:6px;font-family:Roboto;writing-mode:lr-tb;fill:#1d1d1b;fill-opacity:1;fill-rule:nonzero;stroke:none"
         x="0"
         y="0">Clock Enable</tspan></text>
    <path
       id="path344"
       d="m 176.235,392.186 h 20.325 l 2,8 h 228.914"
       style="fill:none;stroke:#1d1d1b;stroke-width:0.5;stroke-linecap:butt;stroke-linejoin:miter;stroke-miterlimit:10;stroke-dasharray:none;stroke-opacity:1"
       transform="matrix(0.26458333,0,0,-0.26458333,-18.520833,219.65337)"
       clip-path="url(#clipPath345)" />
    <text
       id="text345"
       xml:space="preserve"
       transform="matrix(0.26458333,0,0,0.26458333,12.750402,115.88686)"
       clip-path="url(#clipPath346)"><tspan
         id="tspan345"
         style="font-variant:normal;font-weight:normal;font-size:6px;font-family:Roboto;writing-mode:lr-tb;fill:#1d1d1b;fill-opacity:1;fill-rule:nonzero;stroke:none"
         x="0"
         y="0">CTRL_SM_ENABLE</tspan></text>
    <path
       id="path347"
       d="m 176.235,424.186 v -8 h 20.325 l 0.999,4 -1,4 z"
       style="fill:#d0d0d0;fill-opacity:1;fill-rule:nonzero;stroke:none"
       transform="matrix(0.26458333,0,0,-0.26458333,-18.520833,219.65337)"
       clip-path="url(#clipPath348)" />
    <path
       id="path349"
       d="m 176.235,424.186 h 20.325 l 2,-8 h 228.915"
       style="fill:none;stroke:#1d1d1b;stroke-width:0.5;stroke-linecap:butt;stroke-linejoin:miter;stroke-miterlimit:10;stroke-dasharray:none;stroke-opacity:1"
       transform="matrix(0.26458333,0,0,-0.26458333,-18.520833,219.65337)"
       clip-path="url(#clipPath350)" />
    <path
       id="path351"
       d="m 176.235,416.186 h 20.326 l 2,8 h 228.914"
       style="fill:none;stroke:#1d1d1b;stroke-width:0.5;stroke-linecap:butt;stroke-linejoin:miter;stroke-miterlimit:10;stroke-dasharray:none;stroke-opacity:1"
       transform="matrix(0.26458333,0,0,-0.26458333,-18.520833,219.65337)"
       clip-path="url(#clipPath352)" />
    <path
       id="path353"
       d="m 176.235,412.186 v -8 h 20.325 l 0.999,4 -1,4 z"
       style="fill:#d0d0d0;fill-opacity:1;fill-rule:nonzero;stroke:none"
       transform="matrix(0.26458333,0,0,-0.26458333,-18.520833,219.65337)"
       clip-path="url(#clipPath354)" />
    <path
       id="path355"
       d="m 176.235,412.186 h 20.325 l 2,-8 h 228.915"
       style="fill:none;stroke:#1d1d1b;stroke-width:0.5;stroke-linecap:butt;stroke-linejoin:miter;stroke-miterlimit:10;stroke-dasharray:none;stroke-opacity:1"
       transform="matrix(0.26458333,0,0,-0.26458333,-18.520833,219.65337)"
       clip-path="url(#clipPath356)" />
    <path
       id="path357"
       d="m 176.235,404.186 h 20.326 l 2,8 h 228.914"
       style="fill:none;stroke:#1d1d1b;stroke-width:0.5;stroke-linecap:butt;stroke-linejoin:miter;stroke-miterlimit:10;stroke-dasharray:none;stroke-opacity:1"
       transform="matrix(0.26458333,0,0,-0.26458333,-18.520833,219.65337)"
       clip-path="url(#clipPath358)" />
    <text
       id="text358"
       xml:space="preserve"
       transform="matrix(0.26458333,0,0,0.26458333,63.78678,108.98806)"
       clip-path="url(#clipPath359)"><tspan
         id="tspan358"
         style="font-variant:normal;font-weight:normal;font-size:5px;font-family:Roboto;writing-mode:lr-tb;fill:#1d1d1b;fill-opacity:1;fill-rule:nonzero;stroke:none"
         x="0"
         y="0">2</tspan></text>
    <text
       id="text359"
       xml:space="preserve"
       transform="matrix(0.26458333,0,0,0.26458333,63.594666,112.16306)"
       clip-path="url(#clipPath360)"><tspan
         id="tspan359"
         style="font-variant:normal;font-weight:normal;font-size:5px;font-family:Roboto;writing-mode:lr-tb;fill:#1d1d1b;fill-opacity:1;fill-rule:nonzero;stroke:none"
         x="0"
         y="0">.5</tspan></text>
  </g>
</svg>
