<?xml version="1.0" encoding="UTF-8" standalone="no"?>
<!-- Created with Inkscape (http://www.inkscape.org/) -->

<svg
   width="86.992615mm"
   height="19.049995mm"
   viewBox="0 0 86.992615 19.049995"
   version="1.1"
   id="svg1"
   inkscape:version="1.4 (e7c3feb100, 2024-10-09)"
   sodipodi:docname="pio clock 1.svg"
   xmlns:inkscape="http://www.inkscape.org/namespaces/inkscape"
   xmlns:sodipodi="http://sodipodi.sourceforge.net/DTD/sodipodi-0.dtd"
   xmlns="http://www.w3.org/2000/svg"
   xmlns:svg="http://www.w3.org/2000/svg">
  <sodipodi:namedview
     id="namedview1"
     pagecolor="#ffffff"
     bordercolor="#000000"
     borderopacity="0.25"
     inkscape:showpageshadow="2"
     inkscape:pageopacity="0.0"
     inkscape:pagecheckerboard="0"
     inkscape:deskcolor="#d1d1d1"
     inkscape:document-units="mm"
     inkscape:zoom="1.8013359"
     inkscape:cx="136.01017"
     inkscape:cy="55.791926"
     inkscape:window-width="958"
     inkscape:window-height="998"
     inkscape:window-x="960"
     inkscape:window-y="27"
     inkscape:window-maximized="1"
     inkscape:current-layer="layer1" />
  <defs
     id="defs1">
    <clipPath
       clipPathUnits="userSpaceOnUse"
       id="clipPath9">
      <path
         d="m 115,596.146 h 246.59325 v 54 H 115 Z"
         transform="matrix(1.3333333,0,0,1.3333333,-38.333333,-216.71533)"
         id="path9" />
    </clipPath>
    <clipPath
       clipPathUnits="userSpaceOnUse"
       id="clipPath10">
      <path
         d="m 115,596.146 h 246.59325 v 54 H 115 Z"
         transform="matrix(1.3333333,0,0,-1.3333333,-170.69183,850.86373)"
         id="path10" />
    </clipPath>
    <clipPath
       clipPathUnits="userSpaceOnUse"
       id="clipPath12">
      <path
         d="m 115,596.146 h 246.59325 v 54 H 115 Z"
         transform="matrix(1.3333333,0,0,1.3333333,-38.333333,-216.71533)"
         id="path12" />
    </clipPath>
    <clipPath
       clipPathUnits="userSpaceOnUse"
       id="clipPath14">
      <path
         d="m 115,596.146 h 246.59325 v 54 H 115 Z"
         transform="matrix(1.3333333,0,0,1.3333333,-38.333333,-216.71533)"
         id="path14" />
    </clipPath>
    <clipPath
       clipPathUnits="userSpaceOnUse"
       id="clipPath16">
      <path
         d="m 115,596.146 h 246.59325 v 54 H 115 Z"
         transform="matrix(1.3333333,0,0,1.3333333,-38.333333,-216.71533)"
         id="path16" />
    </clipPath>
    <clipPath
       clipPathUnits="userSpaceOnUse"
       id="clipPath18">
      <path
         d="m 115,596.146 h 246.59325 v 54 H 115 Z"
         transform="matrix(1.3333333,0,0,1.3333333,-38.333333,-216.71533)"
         id="path18" />
    </clipPath>
    <clipPath
       clipPathUnits="userSpaceOnUse"
       id="clipPath20">
      <path
         d="m 115,596.146 h 246.59325 v 54 H 115 Z"
         transform="matrix(1.3333333,0,0,1.3333333,-38.333333,-216.71533)"
         id="path20" />
    </clipPath>
    <clipPath
       clipPathUnits="userSpaceOnUse"
       id="clipPath22">
      <path
         d="m 115,596.146 h 246.59325 v 54 H 115 Z"
         transform="matrix(1.3333333,0,0,1.3333333,-38.333333,-216.71533)"
         id="path22" />
    </clipPath>
    <clipPath
       clipPathUnits="userSpaceOnUse"
       id="clipPath24">
      <path
         d="m 115,596.146 h 246.59325 v 54 H 115 Z"
         transform="matrix(1.3333333,0,0,1.3333333,-38.333333,-216.71533)"
         id="path24" />
    </clipPath>
    <clipPath
       clipPathUnits="userSpaceOnUse"
       id="clipPath26">
      <path
         d="m 115,596.146 h 246.59325 v 54 H 115 Z"
         transform="matrix(1.3333333,0,0,1.3333333,-38.333333,-216.71533)"
         id="path26" />
    </clipPath>
    <clipPath
       clipPathUnits="userSpaceOnUse"
       id="clipPath28">
      <path
         d="m 115,596.146 h 246.59325 v 54 H 115 Z"
         transform="matrix(1.3333333,0,0,1.3333333,-38.333333,-216.71533)"
         id="path28" />
    </clipPath>
    <clipPath
       clipPathUnits="userSpaceOnUse"
       id="clipPath30">
      <path
         d="m 115,596.146 h 246.59325 v 54 H 115 Z"
         transform="matrix(1.3333333,0,0,1.3333333,-38.333333,-216.71533)"
         id="path30" />
    </clipPath>
    <clipPath
       clipPathUnits="userSpaceOnUse"
       id="clipPath32">
      <path
         d="m 115,596.146 h 246.59325 v 54 H 115 Z"
         transform="matrix(1.3333333,0,0,1.3333333,-38.333333,-216.71533)"
         id="path32" />
    </clipPath>
    <clipPath
       clipPathUnits="userSpaceOnUse"
       id="clipPath34">
      <path
         d="m 115,596.146 h 246.59325 v 54 H 115 Z"
         transform="matrix(1.3333333,0,0,1.3333333,-38.333333,-216.71533)"
         id="path34" />
    </clipPath>
    <clipPath
       clipPathUnits="userSpaceOnUse"
       id="clipPath36">
      <path
         d="m 115,596.146 h 246.59325 v 54 H 115 Z"
         transform="matrix(1.3333333,0,0,1.3333333,-38.333333,-216.71533)"
         id="path36" />
    </clipPath>
    <clipPath
       clipPathUnits="userSpaceOnUse"
       id="clipPath38">
      <path
         d="m 115,596.146 h 246.59325 v 54 H 115 Z"
         transform="matrix(1.3333333,0,0,1.3333333,-38.333333,-216.71533)"
         id="path38" />
    </clipPath>
    <clipPath
       clipPathUnits="userSpaceOnUse"
       id="clipPath40">
      <path
         d="m 115,596.146 h 246.59325 v 54 H 115 Z"
         transform="matrix(1.3333333,0,0,1.3333333,-38.333333,-216.71533)"
         id="path40" />
    </clipPath>
    <clipPath
       clipPathUnits="userSpaceOnUse"
       id="clipPath42">
      <path
         d="m 115,596.146 h 246.59325 v 54 H 115 Z"
         transform="matrix(1.3333333,0,0,1.3333333,-38.333333,-216.71533)"
         id="path42" />
    </clipPath>
    <clipPath
       clipPathUnits="userSpaceOnUse"
       id="clipPath44">
      <path
         d="m 115,596.146 h 246.59325 v 54 H 115 Z"
         transform="matrix(1.3333333,0,0,1.3333333,-38.333333,-216.71533)"
         id="path44" />
    </clipPath>
    <clipPath
       clipPathUnits="userSpaceOnUse"
       id="clipPath46">
      <path
         d="m 115,596.146 h 246.59325 v 54 H 115 Z"
         transform="matrix(1.3333333,0,0,1.3333333,-38.333333,-216.71533)"
         id="path46" />
    </clipPath>
    <clipPath
       clipPathUnits="userSpaceOnUse"
       id="clipPath48">
      <path
         d="m 115,596.146 h 246.59325 v 54 H 115 Z"
         transform="matrix(1.3333333,0,0,1.3333333,-38.333333,-216.71533)"
         id="path48" />
    </clipPath>
    <clipPath
       clipPathUnits="userSpaceOnUse"
       id="clipPath50">
      <path
         d="m 115,596.146 h 246.59325 v 54 H 115 Z"
         transform="matrix(1.3333333,0,0,1.3333333,-38.333333,-216.71533)"
         id="path50" />
    </clipPath>
    <clipPath
       clipPathUnits="userSpaceOnUse"
       id="clipPath52">
      <path
         d="m 115,596.146 h 246.59325 v 54 H 115 Z"
         transform="matrix(1.3333333,0,0,1.3333333,-38.333333,-216.71533)"
         id="path52" />
    </clipPath>
    <clipPath
       clipPathUnits="userSpaceOnUse"
       id="clipPath54">
      <path
         d="m 115,596.146 h 246.59325 v 54 H 115 Z"
         transform="matrix(1.3333333,0,0,1.3333333,-38.333333,-216.71533)"
         id="path54" />
    </clipPath>
    <clipPath
       clipPathUnits="userSpaceOnUse"
       id="clipPath56">
      <path
         d="m 115,596.146 h 246.59325 v 54 H 115 Z"
         transform="matrix(1.3333333,0,0,1.3333333,-38.333333,-216.71533)"
         id="path56" />
    </clipPath>
    <clipPath
       clipPathUnits="userSpaceOnUse"
       id="clipPath58">
      <path
         d="m 115,596.146 h 246.59325 v 54 H 115 Z"
         transform="matrix(1.3333333,0,0,1.3333333,-38.333333,-216.71533)"
         id="path58" />
    </clipPath>
    <clipPath
       clipPathUnits="userSpaceOnUse"
       id="clipPath60">
      <path
         d="m 115,596.146 h 246.59325 v 54 H 115 Z"
         transform="matrix(1.3333333,0,0,1.3333333,-38.333333,-216.71533)"
         id="path60" />
    </clipPath>
    <clipPath
       clipPathUnits="userSpaceOnUse"
       id="clipPath62">
      <path
         d="m 115,596.146 h 246.59325 v 54 H 115 Z"
         transform="matrix(1.3333333,0,0,1.3333333,-38.333333,-216.71533)"
         id="path62" />
    </clipPath>
    <clipPath
       clipPathUnits="userSpaceOnUse"
       id="clipPath64">
      <path
         d="m 115,596.146 h 246.59325 v 54 H 115 Z"
         transform="matrix(1.3333333,0,0,1.3333333,-38.333333,-216.71533)"
         id="path64" />
    </clipPath>
    <clipPath
       clipPathUnits="userSpaceOnUse"
       id="clipPath66">
      <path
         d="m 115,596.146 h 246.59325 v 54 H 115 Z"
         transform="matrix(1.3333333,0,0,1.3333333,-38.333333,-216.71533)"
         id="path66" />
    </clipPath>
    <clipPath
       clipPathUnits="userSpaceOnUse"
       id="clipPath68">
      <path
         d="m 115,596.146 h 246.59325 v 54 H 115 Z"
         transform="matrix(1.3333333,0,0,1.3333333,-38.333333,-216.71533)"
         id="path68" />
    </clipPath>
    <clipPath
       clipPathUnits="userSpaceOnUse"
       id="clipPath70">
      <path
         d="m 115,596.146 h 246.59325 v 54 H 115 Z"
         transform="matrix(1.3333333,0,0,1.3333333,-38.333333,-216.71533)"
         id="path70" />
    </clipPath>
    <clipPath
       clipPathUnits="userSpaceOnUse"
       id="clipPath72">
      <path
         d="m 115,596.146 h 246.59325 v 54 H 115 Z"
         transform="matrix(1.3333333,0,0,1.3333333,-38.333333,-216.71533)"
         id="path72" />
    </clipPath>
    <clipPath
       clipPathUnits="userSpaceOnUse"
       id="clipPath74">
      <path
         d="m 115,596.146 h 246.59325 v 54 H 115 Z"
         transform="matrix(1.3333333,0,0,1.3333333,-38.333333,-216.71533)"
         id="path74" />
    </clipPath>
    <clipPath
       clipPathUnits="userSpaceOnUse"
       id="clipPath76">
      <path
         d="m 115,596.146 h 246.59325 v 54 H 115 Z"
         transform="matrix(1.3333333,0,0,1.3333333,-38.333333,-216.71533)"
         id="path76" />
    </clipPath>
    <clipPath
       clipPathUnits="userSpaceOnUse"
       id="clipPath78">
      <path
         d="m 115,596.146 h 246.59325 v 54 H 115 Z"
         transform="matrix(1.3333333,0,0,1.3333333,-38.333333,-216.71533)"
         id="path78" />
    </clipPath>
    <clipPath
       clipPathUnits="userSpaceOnUse"
       id="clipPath80">
      <path
         d="m 115,596.146 h 246.59325 v 54 H 115 Z"
         transform="matrix(1.3333333,0,0,1.3333333,-38.333333,-216.71533)"
         id="path80" />
    </clipPath>
    <clipPath
       clipPathUnits="userSpaceOnUse"
       id="clipPath82">
      <path
         d="m 115,596.146 h 246.59325 v 54 H 115 Z"
         transform="matrix(1.3333333,0,0,1.3333333,-38.333333,-216.71533)"
         id="path82" />
    </clipPath>
    <clipPath
       clipPathUnits="userSpaceOnUse"
       id="clipPath84">
      <path
         d="m 115,596.146 h 246.59325 v 54 H 115 Z"
         transform="matrix(1.3333333,0,0,1.3333333,-38.333333,-216.71533)"
         id="path84" />
    </clipPath>
    <clipPath
       clipPathUnits="userSpaceOnUse"
       id="clipPath86">
      <path
         d="m 115,596.146 h 246.59325 v 54 H 115 Z"
         transform="matrix(1.3333333,0,0,1.3333333,-38.333333,-216.71533)"
         id="path86" />
    </clipPath>
    <clipPath
       clipPathUnits="userSpaceOnUse"
       id="clipPath88">
      <path
         d="m 115,596.146 h 246.59325 v 54 H 115 Z"
         transform="matrix(1.3333333,0,0,1.3333333,-38.333333,-216.71533)"
         id="path88" />
    </clipPath>
    <clipPath
       clipPathUnits="userSpaceOnUse"
       id="clipPath90">
      <path
         d="m 115,596.146 h 246.59325 v 54 H 115 Z"
         transform="matrix(1.3333333,0,0,1.3333333,-38.333333,-216.71533)"
         id="path90" />
    </clipPath>
    <clipPath
       clipPathUnits="userSpaceOnUse"
       id="clipPath92">
      <path
         d="m 115,596.146 h 246.59325 v 54 H 115 Z"
         transform="matrix(1.3333333,0,0,1.3333333,-38.333333,-216.71533)"
         id="path92" />
    </clipPath>
    <clipPath
       clipPathUnits="userSpaceOnUse"
       id="clipPath94">
      <path
         d="m 115,596.146 h 246.59325 v 54 H 115 Z"
         transform="matrix(1.3333333,0,0,1.3333333,-38.333333,-216.71533)"
         id="path94" />
    </clipPath>
    <clipPath
       clipPathUnits="userSpaceOnUse"
       id="clipPath95">
      <path
         d="m 115,596.146 h 246.59325 v 54 H 115 Z"
         transform="matrix(1.3333333,0,0,-1.3333333,-174.47113,838.86373)"
         id="path95" />
    </clipPath>
    <clipPath
       clipPathUnits="userSpaceOnUse"
       id="clipPath96">
      <path
         d="m 115,596.146 h 246.59325 v 54 H 115 Z"
         transform="matrix(1.3333333,0,0,-1.3333333,-169.08343,826.86373)"
         id="path96" />
    </clipPath>
    <clipPath
       clipPathUnits="userSpaceOnUse"
       id="clipPath97">
      <path
         d="m 115,596.146 h 246.59325 v 54 H 115 Z"
         transform="matrix(1.3333333,0,0,-1.3333333,-172.78653,802.86373)"
         id="path97" />
    </clipPath>
    <clipPath
       clipPathUnits="userSpaceOnUse"
       id="clipPath99">
      <path
         d="m 115,596.146 h 246.59325 v 54 H 115 Z"
         transform="matrix(1.3333333,0,0,1.3333333,-38.333333,-216.71533)"
         id="path99" />
    </clipPath>
    <clipPath
       clipPathUnits="userSpaceOnUse"
       id="clipPath100">
      <path
         d="m 115,596.146 h 246.59325 v 54 H 115 Z"
         transform="matrix(1.3333333,0,0,-1.3333333,-156.52383,814.86373)"
         id="path100" />
    </clipPath>
    <clipPath
       clipPathUnits="userSpaceOnUse"
       id="clipPath101">
      <path
         d="m 115,596.146 h 246.59325 v 54 H 115 Z"
         transform="matrix(1.3333333,0,0,-1.3333333,-349.41723,840.93793)"
         id="path101" />
    </clipPath>
    <clipPath
       clipPathUnits="userSpaceOnUse"
       id="clipPath103">
      <path
         d="m 115,596.146 h 246.59325 v 54 H 115 Z"
         transform="matrix(1.3333333,0,0,1.3333333,-38.333333,-216.71533)"
         id="path103" />
    </clipPath>
    <clipPath
       clipPathUnits="userSpaceOnUse"
       id="clipPath105">
      <path
         d="m 115,596.146 h 246.59325 v 54 H 115 Z"
         transform="matrix(1.3333333,0,0,1.3333333,-38.333333,-216.71533)"
         id="path105" />
    </clipPath>
    <clipPath
       clipPathUnits="userSpaceOnUse"
       id="clipPath107">
      <path
         d="m 115,596.146 h 246.59325 v 54 H 115 Z"
         transform="matrix(1.3333333,0,0,1.3333333,-38.333333,-216.71533)"
         id="path107" />
    </clipPath>
    <clipPath
       clipPathUnits="userSpaceOnUse"
       id="clipPath108">
      <path
         d="m 115,596.146 h 246.59325 v 54 H 115 Z"
         transform="matrix(1.3333333,0,0,-1.3333333,-348.69113,828.93793)"
         id="path108" />
    </clipPath>
    <clipPath
       clipPathUnits="userSpaceOnUse"
       id="clipPath110">
      <path
         d="m 115,596.146 h 246.59325 v 54 H 115 Z"
         transform="matrix(1.3333333,0,0,1.3333333,-38.333333,-216.71533)"
         id="path110" />
    </clipPath>
    <clipPath
       clipPathUnits="userSpaceOnUse"
       id="clipPath112">
      <path
         d="m 115,596.146 h 246.59325 v 54 H 115 Z"
         transform="matrix(1.3333333,0,0,1.3333333,-38.333333,-216.71533)"
         id="path112" />
    </clipPath>
    <clipPath
       clipPathUnits="userSpaceOnUse"
       id="clipPath114">
      <path
         d="m 115,596.146 h 246.59325 v 54 H 115 Z"
         transform="matrix(1.3333333,0,0,1.3333333,-38.333333,-216.71533)"
         id="path114" />
    </clipPath>
  </defs>
  <g
     inkscape:label="Layer 1"
     inkscape:groupmode="layer"
     id="layer1"
     transform="translate(-58.7375,-107.68541)">
    <path
       id="path8"
       d="m 115,578.146 h 328.805 v 72 H 115 Z"
       style="fill:#f6f6f6;fill-opacity:1;fill-rule:nonzero;stroke:none"
       transform="matrix(0.26458333,0,0,-0.26458333,28.310417,279.7032)"
       clip-path="url(#clipPath9)" />
    <text
       id="text9"
       xml:space="preserve"
       transform="matrix(0.26458333,0,0,0.26458333,63.330269,111.91811)"
       clip-path="url(#clipPath10)"><tspan
         id="tspan9"
         style="font-variant:normal;font-weight:normal;font-size:6px;font-family:Roboto;writing-mode:lr-tb;fill:#1d1d1b;fill-opacity:1;fill-rule:nonzero;stroke:none"
         x="0"
         y="0">System Clock</tspan></text>
    <path
       id="path11"
       d="m 176.235,586.146 v 56"
       style="fill:none;stroke:#9d9d9c;stroke-width:0.1654;stroke-linecap:butt;stroke-linejoin:miter;stroke-miterlimit:10;stroke-dasharray:none;stroke-opacity:1"
       transform="matrix(0.26458333,0,0,-0.26458333,28.310417,279.7032)"
       clip-path="url(#clipPath12)" />
    <path
       id="path13"
       d="m 195.561,586.146 v 56"
       style="fill:none;stroke:#9d9d9c;stroke-width:0.1654;stroke-linecap:butt;stroke-linejoin:miter;stroke-miterlimit:10;stroke-dasharray:none;stroke-opacity:1"
       transform="matrix(0.26458333,0,0,-0.26458333,28.310417,279.7032)"
       clip-path="url(#clipPath14)" />
    <path
       id="path15"
       d="m 214.887,586.146 v 56"
       style="fill:none;stroke:#9d9d9c;stroke-width:0.1654;stroke-linecap:butt;stroke-linejoin:miter;stroke-miterlimit:10;stroke-dasharray:none;stroke-opacity:1"
       transform="matrix(0.26458333,0,0,-0.26458333,28.310417,279.7032)"
       clip-path="url(#clipPath16)" />
    <path
       id="path17"
       d="m 234.214,586.146 v 56"
       style="fill:none;stroke:#9d9d9c;stroke-width:0.1654;stroke-linecap:butt;stroke-linejoin:miter;stroke-miterlimit:10;stroke-dasharray:none;stroke-opacity:1"
       transform="matrix(0.26458333,0,0,-0.26458333,28.310417,279.7032)"
       clip-path="url(#clipPath18)" />
    <path
       id="path19"
       d="m 253.54,586.146 v 56"
       style="fill:none;stroke:#9d9d9c;stroke-width:0.1654;stroke-linecap:butt;stroke-linejoin:miter;stroke-miterlimit:10;stroke-dasharray:none;stroke-opacity:1"
       transform="matrix(0.26458333,0,0,-0.26458333,28.310417,279.7032)"
       clip-path="url(#clipPath20)" />
    <path
       id="path21"
       d="m 272.867,586.146 v 56"
       style="fill:none;stroke:#9d9d9c;stroke-width:0.1654;stroke-linecap:butt;stroke-linejoin:miter;stroke-miterlimit:10;stroke-dasharray:none;stroke-opacity:1"
       transform="matrix(0.26458333,0,0,-0.26458333,28.310417,279.7032)"
       clip-path="url(#clipPath22)" />
    <path
       id="path23"
       d="m 292.193,586.146 v 56"
       style="fill:none;stroke:#9d9d9c;stroke-width:0.1654;stroke-linecap:butt;stroke-linejoin:miter;stroke-miterlimit:10;stroke-dasharray:none;stroke-opacity:1"
       transform="matrix(0.26458333,0,0,-0.26458333,28.310417,279.7032)"
       clip-path="url(#clipPath24)" />
    <path
       id="path25"
       d="m 311.52,586.146 v 56"
       style="fill:none;stroke:#9d9d9c;stroke-width:0.1654;stroke-linecap:butt;stroke-linejoin:miter;stroke-miterlimit:10;stroke-dasharray:none;stroke-opacity:1"
       transform="matrix(0.26458333,0,0,-0.26458333,28.310417,279.7032)"
       clip-path="url(#clipPath26)" />
    <path
       id="path27"
       d="m 330.846,586.146 v 56"
       style="fill:none;stroke:#9d9d9c;stroke-width:0.1654;stroke-linecap:butt;stroke-linejoin:miter;stroke-miterlimit:10;stroke-dasharray:none;stroke-opacity:1"
       transform="matrix(0.26458333,0,0,-0.26458333,28.310417,279.7032)"
       clip-path="url(#clipPath28)" />
    <path
       id="path29"
       d="m 350.172,586.146 v 56"
       style="fill:none;stroke:#9d9d9c;stroke-width:0.1654;stroke-linecap:butt;stroke-linejoin:miter;stroke-miterlimit:10;stroke-dasharray:none;stroke-opacity:1"
       transform="matrix(0.26458333,0,0,-0.26458333,28.310417,279.7032)"
       clip-path="url(#clipPath30)" />
    <path
       id="path31"
       d="m 369.498,586.146 v 56"
       style="fill:none;stroke:#9d9d9c;stroke-width:0.1654;stroke-linecap:butt;stroke-linejoin:miter;stroke-miterlimit:10;stroke-dasharray:none;stroke-opacity:1"
       transform="matrix(0.26458333,0,0,-0.26458333,28.310417,279.7032)"
       clip-path="url(#clipPath32)" />
    <path
       id="path33"
       d="m 388.825,586.146 v 56"
       style="fill:none;stroke:#9d9d9c;stroke-width:0.1654;stroke-linecap:butt;stroke-linejoin:miter;stroke-miterlimit:10;stroke-dasharray:none;stroke-opacity:1"
       transform="matrix(0.26458333,0,0,-0.26458333,28.310417,279.7032)"
       clip-path="url(#clipPath34)" />
    <path
       id="path35"
       d="m 408.15,586.146 v 56"
       style="fill:none;stroke:#9d9d9c;stroke-width:0.1654;stroke-linecap:butt;stroke-linejoin:miter;stroke-miterlimit:10;stroke-dasharray:none;stroke-opacity:1"
       transform="matrix(0.26458333,0,0,-0.26458333,28.310417,279.7032)"
       clip-path="url(#clipPath36)" />
    <path
       id="path37"
       d="m 427.476,586.146 v 56"
       style="fill:none;stroke:#9d9d9c;stroke-width:0.1654;stroke-linecap:butt;stroke-linejoin:miter;stroke-miterlimit:10;stroke-dasharray:none;stroke-opacity:1"
       transform="matrix(0.26458333,0,0,-0.26458333,28.310417,279.7032)"
       clip-path="url(#clipPath38)" />
    <path
       id="path39"
       d="m 176.235,634.214 v 5.693"
       style="fill:none;stroke:#1d1d1b;stroke-width:0.5;stroke-linecap:butt;stroke-linejoin:miter;stroke-miterlimit:10;stroke-dasharray:none;stroke-opacity:1"
       transform="matrix(0.26458333,0,0,-0.26458333,28.310417,279.7032)"
       clip-path="url(#clipPath40)" />
    <path
       id="path41"
       d="m 177.623,638.854 -1.388,0.59 -1.389,-0.59 1.389,3.292 z"
       style="fill:#1d1d1b;fill-opacity:1;fill-rule:nonzero;stroke:none"
       transform="matrix(0.26458333,0,0,-0.26458333,28.310417,279.7032)"
       clip-path="url(#clipPath42)" />
    <path
       id="path43"
       d="m 176.235,642.146 h 9.662 v -7.932 h 9.664 v 5.693"
       style="fill:none;stroke:#1d1d1b;stroke-width:0.5;stroke-linecap:butt;stroke-linejoin:miter;stroke-miterlimit:10;stroke-dasharray:none;stroke-opacity:1"
       transform="matrix(0.26458333,0,0,-0.26458333,28.310417,279.7032)"
       clip-path="url(#clipPath44)" />
    <path
       id="path45"
       d="m 196.95,638.854 -1.389,0.59 -1.389,-0.59 1.389,3.292 z"
       style="fill:#1d1d1b;fill-opacity:1;fill-rule:nonzero;stroke:none"
       transform="matrix(0.26458333,0,0,-0.26458333,28.310417,279.7032)"
       clip-path="url(#clipPath46)" />
    <path
       id="path47"
       d="m 195.561,642.146 h 9.663 v -7.932 h 9.663 v 5.693"
       style="fill:none;stroke:#1d1d1b;stroke-width:0.5;stroke-linecap:butt;stroke-linejoin:miter;stroke-miterlimit:10;stroke-dasharray:none;stroke-opacity:1"
       transform="matrix(0.26458333,0,0,-0.26458333,28.310417,279.7032)"
       clip-path="url(#clipPath48)" />
    <path
       id="path49"
       d="m 216.276,638.854 -1.389,0.59 -1.388,-0.59 1.388,3.292 z"
       style="fill:#1d1d1b;fill-opacity:1;fill-rule:nonzero;stroke:none"
       transform="matrix(0.26458333,0,0,-0.26458333,28.310417,279.7032)"
       clip-path="url(#clipPath50)" />
    <path
       id="path51"
       d="m 214.887,642.146 h 9.663 v -7.932 h 9.664 v 5.693"
       style="fill:none;stroke:#1d1d1b;stroke-width:0.5;stroke-linecap:butt;stroke-linejoin:miter;stroke-miterlimit:10;stroke-dasharray:none;stroke-opacity:1"
       transform="matrix(0.26458333,0,0,-0.26458333,28.310417,279.7032)"
       clip-path="url(#clipPath52)" />
    <path
       id="path53"
       d="m 235.603,638.854 -1.389,0.59 -1.389,-0.59 1.389,3.292 z"
       style="fill:#1d1d1b;fill-opacity:1;fill-rule:nonzero;stroke:none"
       transform="matrix(0.26458333,0,0,-0.26458333,28.310417,279.7032)"
       clip-path="url(#clipPath54)" />
    <path
       id="path55"
       d="m 234.214,642.146 h 9.662 v -7.932 h 9.664 v 5.693"
       style="fill:none;stroke:#1d1d1b;stroke-width:0.5;stroke-linecap:butt;stroke-linejoin:miter;stroke-miterlimit:10;stroke-dasharray:none;stroke-opacity:1"
       transform="matrix(0.26458333,0,0,-0.26458333,28.310417,279.7032)"
       clip-path="url(#clipPath56)" />
    <path
       id="path57"
       d="m 254.929,638.854 -1.389,0.59 -1.388,-0.59 1.388,3.292 z"
       style="fill:#1d1d1b;fill-opacity:1;fill-rule:nonzero;stroke:none"
       transform="matrix(0.26458333,0,0,-0.26458333,28.310417,279.7032)"
       clip-path="url(#clipPath58)" />
    <path
       id="path59"
       d="m 253.54,642.146 h 9.663 v -7.932 h 9.664 v 5.693"
       style="fill:none;stroke:#1d1d1b;stroke-width:0.5;stroke-linecap:butt;stroke-linejoin:miter;stroke-miterlimit:10;stroke-dasharray:none;stroke-opacity:1"
       transform="matrix(0.26458333,0,0,-0.26458333,28.310417,279.7032)"
       clip-path="url(#clipPath60)" />
    <path
       id="path61"
       d="m 274.255,638.854 -1.388,0.59 -1.389,-0.59 1.389,3.292 z"
       style="fill:#1d1d1b;fill-opacity:1;fill-rule:nonzero;stroke:none"
       transform="matrix(0.26458333,0,0,-0.26458333,28.310417,279.7032)"
       clip-path="url(#clipPath62)" />
    <path
       id="path63"
       d="m 272.867,642.146 h 9.662 v -7.932 h 9.664 v 5.693"
       style="fill:none;stroke:#1d1d1b;stroke-width:0.5;stroke-linecap:butt;stroke-linejoin:miter;stroke-miterlimit:10;stroke-dasharray:none;stroke-opacity:1"
       transform="matrix(0.26458333,0,0,-0.26458333,28.310417,279.7032)"
       clip-path="url(#clipPath64)" />
    <path
       id="path65"
       d="m 293.582,638.854 -1.389,0.59 -1.389,-0.59 1.389,3.292 z"
       style="fill:#1d1d1b;fill-opacity:1;fill-rule:nonzero;stroke:none"
       transform="matrix(0.26458333,0,0,-0.26458333,28.310417,279.7032)"
       clip-path="url(#clipPath66)" />
    <path
       id="path67"
       d="m 292.193,642.146 h 9.663 v -7.932 h 9.663 v 5.693"
       style="fill:none;stroke:#1d1d1b;stroke-width:0.5;stroke-linecap:butt;stroke-linejoin:miter;stroke-miterlimit:10;stroke-dasharray:none;stroke-opacity:1"
       transform="matrix(0.26458333,0,0,-0.26458333,28.310417,279.7032)"
       clip-path="url(#clipPath68)" />
    <path
       id="path69"
       d="m 312.908,638.854 -1.389,0.59 -1.388,-0.59 1.388,3.292 z"
       style="fill:#1d1d1b;fill-opacity:1;fill-rule:nonzero;stroke:none"
       transform="matrix(0.26458333,0,0,-0.26458333,28.310417,279.7032)"
       clip-path="url(#clipPath70)" />
    <path
       id="path71"
       d="m 311.519,642.146 h 9.663 v -7.932 h 9.664 v 5.693"
       style="fill:none;stroke:#1d1d1b;stroke-width:0.5;stroke-linecap:butt;stroke-linejoin:miter;stroke-miterlimit:10;stroke-dasharray:none;stroke-opacity:1"
       transform="matrix(0.26458333,0,0,-0.26458333,28.310417,279.7032)"
       clip-path="url(#clipPath72)" />
    <path
       id="path73"
       d="m 332.234,638.854 -1.388,0.59 -1.389,-0.59 1.389,3.292 z"
       style="fill:#1d1d1b;fill-opacity:1;fill-rule:nonzero;stroke:none"
       transform="matrix(0.26458333,0,0,-0.26458333,28.310417,279.7032)"
       clip-path="url(#clipPath74)" />
    <path
       id="path75"
       d="m 330.846,642.146 h 9.662 v -7.932 h 9.664 v 5.693"
       style="fill:none;stroke:#1d1d1b;stroke-width:0.5;stroke-linecap:butt;stroke-linejoin:miter;stroke-miterlimit:10;stroke-dasharray:none;stroke-opacity:1"
       transform="matrix(0.26458333,0,0,-0.26458333,28.310417,279.7032)"
       clip-path="url(#clipPath76)" />
    <path
       id="path77"
       d="m 351.561,638.854 -1.389,0.59 -1.388,-0.59 1.388,3.292 z"
       style="fill:#1d1d1b;fill-opacity:1;fill-rule:nonzero;stroke:none"
       transform="matrix(0.26458333,0,0,-0.26458333,28.310417,279.7032)"
       clip-path="url(#clipPath78)" />
    <path
       id="path79"
       d="m 350.172,642.146 h 9.663 v -7.932 h 9.664 v 5.693"
       style="fill:none;stroke:#1d1d1b;stroke-width:0.5;stroke-linecap:butt;stroke-linejoin:miter;stroke-miterlimit:10;stroke-dasharray:none;stroke-opacity:1"
       transform="matrix(0.26458333,0,0,-0.26458333,28.310417,279.7032)"
       clip-path="url(#clipPath80)" />
    <path
       id="path81"
       d="m 370.887,638.854 -1.388,0.59 -1.389,-0.59 1.389,3.292 z"
       style="fill:#1d1d1b;fill-opacity:1;fill-rule:nonzero;stroke:none"
       transform="matrix(0.26458333,0,0,-0.26458333,28.310417,279.7032)"
       clip-path="url(#clipPath82)" />
    <path
       id="path83"
       d="m 369.498,642.146 h 9.663 v -7.932 h 9.664 v 5.693"
       style="fill:none;stroke:#1d1d1b;stroke-width:0.5;stroke-linecap:butt;stroke-linejoin:miter;stroke-miterlimit:10;stroke-dasharray:none;stroke-opacity:1"
       transform="matrix(0.26458333,0,0,-0.26458333,28.310417,279.7032)"
       clip-path="url(#clipPath84)" />
    <path
       id="path85"
       d="m 390.213,638.854 -1.388,0.59 -1.389,-0.59 1.389,3.292 z"
       style="fill:#1d1d1b;fill-opacity:1;fill-rule:nonzero;stroke:none"
       transform="matrix(0.26458333,0,0,-0.26458333,28.310417,279.7032)"
       clip-path="url(#clipPath86)" />
    <path
       id="path87"
       d="m 388.824,642.146 h 9.663 v -7.932 h 9.664 v 5.693"
       style="fill:none;stroke:#1d1d1b;stroke-width:0.5;stroke-linecap:butt;stroke-linejoin:miter;stroke-miterlimit:10;stroke-dasharray:none;stroke-opacity:1"
       transform="matrix(0.26458333,0,0,-0.26458333,28.310417,279.7032)"
       clip-path="url(#clipPath88)" />
    <path
       id="path89"
       d="m 409.54,638.854 -1.389,0.59 -1.389,-0.59 1.389,3.292 z"
       style="fill:#1d1d1b;fill-opacity:1;fill-rule:nonzero;stroke:none"
       transform="matrix(0.26458333,0,0,-0.26458333,28.310417,279.7032)"
       clip-path="url(#clipPath90)" />
    <path
       id="path91"
       d="m 408.15,642.146 h 9.663 v -7.932 h 9.664"
       style="fill:none;stroke:#1d1d1b;stroke-width:0.5;stroke-linecap:butt;stroke-linejoin:miter;stroke-miterlimit:10;stroke-dasharray:none;stroke-opacity:1"
       transform="matrix(0.26458333,0,0,-0.26458333,28.310417,279.7032)"
       clip-path="url(#clipPath92)" />
    <path
       id="path93"
       d="m 176.235,586.146 h 39.619 l 2,8 h 209.622"
       style="fill:none;stroke:#1d1d1b;stroke-width:0.5;stroke-linecap:butt;stroke-linejoin:miter;stroke-miterlimit:10;stroke-dasharray:none;stroke-opacity:1"
       transform="matrix(0.26458333,0,0,-0.26458333,28.310417,279.7032)"
       clip-path="url(#clipPath94)" />
    <text
       id="text94"
       xml:space="preserve"
       transform="matrix(0.26458333,0,0,0.26458333,64.330209,115.09311)"
       clip-path="url(#clipPath95)"><tspan
         id="tspan94"
         style="font-variant:normal;font-weight:normal;font-size:6px;font-family:Roboto;writing-mode:lr-tb;fill:#1d1d1b;fill-opacity:1;fill-rule:nonzero;stroke:none"
         x="0"
         y="0">CLKDIV_INT</tspan></text>
    <text
       id="text95"
       xml:space="preserve"
       transform="matrix(0.26458333,0,0,0.26458333,62.904713,118.26811)"
       clip-path="url(#clipPath96)"><tspan
         id="tspan95"
         style="font-variant:normal;font-weight:normal;font-size:6px;font-family:Roboto;writing-mode:lr-tb;fill:#1d1d1b;fill-opacity:1;fill-rule:nonzero;stroke:none"
         x="0"
         y="0">CLKDIV_FRAC</tspan></text>
    <text
       id="text96"
       xml:space="preserve"
       transform="matrix(0.26458333,0,0,0.26458333,63.884491,124.61811)"
       clip-path="url(#clipPath97)"><tspan
         id="tspan96"
         style="font-variant:normal;font-weight:normal;font-size:6px;font-family:Roboto;writing-mode:lr-tb;fill:#1d1d1b;fill-opacity:1;fill-rule:nonzero;stroke:none"
         x="0"
         y="0">Clock Enable</tspan></text>
    <path
       id="path98"
       d="m 176.235,598.146 h 20.325 l 2,8 h 228.914"
       style="fill:none;stroke:#1d1d1b;stroke-width:0.5;stroke-linecap:butt;stroke-linejoin:miter;stroke-miterlimit:10;stroke-dasharray:none;stroke-opacity:1"
       transform="matrix(0.26458333,0,0,-0.26458333,28.310417,279.7032)"
       clip-path="url(#clipPath99)" />
    <text
       id="text99"
       xml:space="preserve"
       transform="matrix(0.26458333,0,0,0.26458333,59.581652,121.44311)"
       clip-path="url(#clipPath100)"><tspan
         id="tspan99"
         style="font-variant:normal;font-weight:normal;font-size:6px;font-family:Roboto;writing-mode:lr-tb;fill:#1d1d1b;fill-opacity:1;fill-rule:nonzero;stroke:none"
         x="0"
         y="0">CTRL_SM_ENABLE</tspan></text>
    <text
       id="text100"
       xml:space="preserve"
       transform="matrix(0.26458333,0,0,0.26458333,110.61803,114.54431)"
       clip-path="url(#clipPath101)"><tspan
         id="tspan100"
         style="font-variant:normal;font-weight:normal;font-size:5px;font-family:Roboto;writing-mode:lr-tb;fill:#1d1d1b;fill-opacity:1;fill-rule:nonzero;stroke:none"
         x="0"
         y="0">1</tspan></text>
    <path
       id="path102"
       d="m 176.235,630.146 v -8 h 20.325 l 0.999,4 -1,4 z"
       style="fill:#d0d0d0;fill-opacity:1;fill-rule:nonzero;stroke:none"
       transform="matrix(0.26458333,0,0,-0.26458333,28.310417,279.7032)"
       clip-path="url(#clipPath103)" />
    <path
       id="path104"
       d="m 176.235,630.146 h 20.325 l 2,-8 h 228.915"
       style="fill:none;stroke:#1d1d1b;stroke-width:0.5;stroke-linecap:butt;stroke-linejoin:miter;stroke-miterlimit:10;stroke-dasharray:none;stroke-opacity:1"
       transform="matrix(0.26458333,0,0,-0.26458333,28.310417,279.7032)"
       clip-path="url(#clipPath105)" />
    <path
       id="path106"
       d="m 176.235,622.146 h 20.326 l 2,8 h 228.914"
       style="fill:none;stroke:#1d1d1b;stroke-width:0.5;stroke-linecap:butt;stroke-linejoin:miter;stroke-miterlimit:10;stroke-dasharray:none;stroke-opacity:1"
       transform="matrix(0.26458333,0,0,-0.26458333,28.310417,279.7032)"
       clip-path="url(#clipPath107)" />
    <text
       id="text107"
       xml:space="preserve"
       transform="matrix(0.26458333,0,0,0.26458333,110.42592,117.71931)"
       clip-path="url(#clipPath108)"><tspan
         id="tspan107"
         style="font-variant:normal;font-weight:normal;font-size:5px;font-family:Roboto;writing-mode:lr-tb;fill:#1d1d1b;fill-opacity:1;fill-rule:nonzero;stroke:none"
         x="0"
         y="0">.0</tspan></text>
    <path
       id="path109"
       d="m 176.235,618.146 v -8 h 20.325 l 0.999,4 -1,4 z"
       style="fill:#d0d0d0;fill-opacity:1;fill-rule:nonzero;stroke:none"
       transform="matrix(0.26458333,0,0,-0.26458333,28.310417,279.7032)"
       clip-path="url(#clipPath110)" />
    <path
       id="path111"
       d="m 176.235,618.146 h 20.325 l 2,-8 h 228.915"
       style="fill:none;stroke:#1d1d1b;stroke-width:0.5;stroke-linecap:butt;stroke-linejoin:miter;stroke-miterlimit:10;stroke-dasharray:none;stroke-opacity:1"
       transform="matrix(0.26458333,0,0,-0.26458333,28.310417,279.7032)"
       clip-path="url(#clipPath112)" />
    <path
       id="path113"
       d="m 176.235,610.146 h 20.326 l 2,8 h 228.914"
       style="fill:none;stroke:#1d1d1b;stroke-width:0.5;stroke-linecap:butt;stroke-linejoin:miter;stroke-miterlimit:10;stroke-dasharray:none;stroke-opacity:1"
       transform="matrix(0.26458333,0,0,-0.26458333,28.310417,279.7032)"
       clip-path="url(#clipPath114)" />
  </g>
</svg>
