<?xml version="1.0" encoding="UTF-8" standalone="no"?>
<!-- Created with Inkscape (http://www.inkscape.org/) -->

<svg
   width="448.87262mm"
   height="445.24466mm"
   viewBox="0 0 448.87262 445.24466"
   version="1.1"
   id="svg1"
   xml:space="preserve"
   inkscape:version="1.4 (e7c3feb100, 2024-10-09)"
   sodipodi:docname="rp2040.svg"
   xmlns:inkscape="http://www.inkscape.org/namespaces/inkscape"
   xmlns:sodipodi="http://sodipodi.sourceforge.net/DTD/sodipodi-0.dtd"
   xmlns="http://www.w3.org/2000/svg"
   xmlns:svg="http://www.w3.org/2000/svg"><sodipodi:namedview
     id="namedview1"
     pagecolor="#ffffff"
     bordercolor="#000000"
     borderopacity="0.25"
     inkscape:showpageshadow="2"
     inkscape:pageopacity="0.0"
     inkscape:pagecheckerboard="0"
     inkscape:deskcolor="#d1d1d1"
     inkscape:document-units="mm"
     inkscape:zoom="0.3374194"
     inkscape:cx="909.84691"
     inkscape:cy="700.90813"
     inkscape:window-width="1920"
     inkscape:window-height="1118"
     inkscape:window-x="0"
     inkscape:window-y="27"
     inkscape:window-maximized="1"
     inkscape:current-layer="layer1" /><defs
     id="defs1" /><g
     inkscape:label="Layer 1"
     inkscape:groupmode="layer"
     id="layer1"
     transform="translate(113.89809,101.98306)"><rect
       style="fill:#a1a1a1;fill-opacity:1;stroke-width:0.264583"
       id="rect2"
       width="12.43916"
       height="15.697036"
       x="-54.495369"
       y="327.56458" /><rect
       style="fill:#a1a1a1;fill-opacity:1;stroke-width:0.264583"
       id="rect3"
       width="12.43916"
       height="15.697036"
       x="-30.118259"
       y="327.56458" /><rect
       style="fill:#a1a1a1;fill-opacity:1;stroke-width:0.264583"
       id="rect4"
       width="12.43916"
       height="15.697036"
       x="-5.7411518"
       y="327.56458" /><rect
       style="fill:#a1a1a1;fill-opacity:1;stroke-width:0.264583"
       id="rect5"
       width="12.43916"
       height="15.697036"
       x="18.635958"
       y="327.56458" /><rect
       style="fill:#a1a1a1;fill-opacity:1;stroke-width:0.264583"
       id="rect6"
       width="12.43916"
       height="15.697036"
       x="43.013065"
       y="327.56458" /><rect
       style="fill:#a1a1a1;fill-opacity:1;stroke-width:0.264583"
       id="rect7"
       width="12.43916"
       height="15.697036"
       x="67.390175"
       y="327.56458" /><rect
       style="fill:#a1a1a1;fill-opacity:1;stroke-width:0.264583"
       id="rect8"
       width="12.43916"
       height="15.697036"
       x="91.767281"
       y="327.56458" /><rect
       style="fill:#a1a1a1;fill-opacity:1;stroke-width:0.264583"
       id="rect9"
       width="12.43916"
       height="15.697036"
       x="116.14439"
       y="327.56458" /><rect
       style="fill:#a1a1a1;fill-opacity:1;stroke-width:0.264583"
       id="rect10"
       width="12.43916"
       height="15.697036"
       x="140.5215"
       y="327.56458" /><rect
       style="fill:#a1a1a1;fill-opacity:1;stroke-width:0.264583"
       id="rect11"
       width="12.43916"
       height="15.697036"
       x="164.89861"
       y="327.56458" /><rect
       style="fill:#a1a1a1;fill-opacity:1;stroke-width:0.264583"
       id="rect12"
       width="12.43916"
       height="15.697036"
       x="189.27571"
       y="327.56458" /><rect
       style="fill:#a1a1a1;fill-opacity:1;stroke-width:0.264583"
       id="rect13"
       width="12.43916"
       height="15.697036"
       x="213.65283"
       y="327.56458" /><rect
       style="fill:#a1a1a1;fill-opacity:1;stroke-width:0.264583"
       id="rect14"
       width="12.43916"
       height="15.697036"
       x="238.02994"
       y="327.56458" /><rect
       style="fill:#a1a1a1;fill-opacity:1;stroke-width:0.264583"
       id="rect15"
       width="12.43916"
       height="15.697036"
       x="262.40704"
       y="327.56458" /><rect
       style="fill:#a1a1a1;fill-opacity:1;stroke-width:0.264583"
       id="rect17"
       width="12.43916"
       height="15.697036"
       x="-54.495369"
       y="-101.98306" /><rect
       style="fill:#a1a1a1;fill-opacity:1;stroke-width:0.264583"
       id="rect18"
       width="12.43916"
       height="15.697036"
       x="-30.118259"
       y="-101.98306" /><rect
       style="fill:#a1a1a1;fill-opacity:1;stroke-width:0.264583"
       id="rect19"
       width="12.43916"
       height="15.697036"
       x="-5.7411518"
       y="-101.98306" /><rect
       style="fill:#a1a1a1;fill-opacity:1;stroke-width:0.264583"
       id="rect20"
       width="12.43916"
       height="15.697036"
       x="18.635958"
       y="-101.98306" /><rect
       style="fill:#a1a1a1;fill-opacity:1;stroke-width:0.264583"
       id="rect21"
       width="12.43916"
       height="15.697036"
       x="43.013065"
       y="-101.98306" /><rect
       style="fill:#a1a1a1;fill-opacity:1;stroke-width:0.264583"
       id="rect22"
       width="12.43916"
       height="15.697036"
       x="67.390175"
       y="-101.98306" /><rect
       style="fill:#a1a1a1;fill-opacity:1;stroke-width:0.264583"
       id="rect23"
       width="12.43916"
       height="15.697036"
       x="91.767281"
       y="-101.98306" /><rect
       style="fill:#a1a1a1;fill-opacity:1;stroke-width:0.264583"
       id="rect24"
       width="12.43916"
       height="15.697036"
       x="116.14439"
       y="-101.98306" /><rect
       style="fill:#a1a1a1;fill-opacity:1;stroke-width:0.264583"
       id="rect25"
       width="12.43916"
       height="15.697036"
       x="140.5215"
       y="-101.98306" /><rect
       style="fill:#a1a1a1;fill-opacity:1;stroke-width:0.264583"
       id="rect26"
       width="12.43916"
       height="15.697036"
       x="164.89861"
       y="-101.98306" /><rect
       style="fill:#a1a1a1;fill-opacity:1;stroke-width:0.264583"
       id="rect27"
       width="12.43916"
       height="15.697036"
       x="189.27571"
       y="-101.98306" /><rect
       style="fill:#a1a1a1;fill-opacity:1;stroke-width:0.264583"
       id="rect28"
       width="12.43916"
       height="15.697036"
       x="213.65283"
       y="-101.98306" /><rect
       style="fill:#a1a1a1;fill-opacity:1;stroke-width:0.264583"
       id="rect29"
       width="12.43916"
       height="15.697036"
       x="238.02994"
       y="-101.98306" /><rect
       style="fill:#a1a1a1;fill-opacity:1;stroke-width:0.264583"
       id="rect30"
       width="12.43916"
       height="15.697036"
       x="262.40704"
       y="-101.98306" /><rect
       style="fill:#a1a1a1;fill-opacity:1;stroke-width:0.264583"
       id="rect31"
       width="12.43916"
       height="15.697036"
       x="-42.580345"
       y="98.201057"
       transform="rotate(90)" /><rect
       style="fill:#a1a1a1;fill-opacity:1;stroke-width:0.264583"
       id="rect32"
       width="12.43916"
       height="15.697036"
       x="-18.203236"
       y="98.201057"
       transform="rotate(90)" /><rect
       style="fill:#a1a1a1;fill-opacity:1;stroke-width:0.264583"
       id="rect33"
       width="12.43916"
       height="15.697036"
       x="6.173872"
       y="98.201057"
       transform="rotate(90)" /><rect
       style="fill:#a1a1a1;fill-opacity:1;stroke-width:0.264583"
       id="rect34"
       width="12.43916"
       height="15.697036"
       x="30.550982"
       y="98.201057"
       transform="rotate(90)" /><rect
       style="fill:#a1a1a1;fill-opacity:1;stroke-width:0.264583"
       id="rect35"
       width="12.43916"
       height="15.697036"
       x="54.928089"
       y="98.201057"
       transform="rotate(90)" /><rect
       style="fill:#a1a1a1;fill-opacity:1;stroke-width:0.264583"
       id="rect36"
       width="12.43916"
       height="15.697036"
       x="79.305199"
       y="98.201057"
       transform="rotate(90)" /><rect
       style="fill:#a1a1a1;fill-opacity:1;stroke-width:0.264583"
       id="rect37"
       width="12.43916"
       height="15.697036"
       x="103.6823"
       y="98.201057"
       transform="rotate(90)" /><rect
       style="fill:#a1a1a1;fill-opacity:1;stroke-width:0.264583"
       id="rect38"
       width="12.43916"
       height="15.697036"
       x="128.05942"
       y="98.201057"
       transform="rotate(90)" /><rect
       style="fill:#a1a1a1;fill-opacity:1;stroke-width:0.264583"
       id="rect39"
       width="12.43916"
       height="15.697036"
       x="152.43652"
       y="98.201057"
       transform="rotate(90)" /><rect
       style="fill:#a1a1a1;fill-opacity:1;stroke-width:0.264583"
       id="rect40"
       width="12.43916"
       height="15.697036"
       x="176.81363"
       y="98.201057"
       transform="rotate(90)" /><rect
       style="fill:#a1a1a1;fill-opacity:1;stroke-width:0.264583"
       id="rect41"
       width="12.43916"
       height="15.697036"
       x="201.19073"
       y="98.201057"
       transform="rotate(90)" /><rect
       style="fill:#a1a1a1;fill-opacity:1;stroke-width:0.264583"
       id="rect42"
       width="12.43916"
       height="15.697036"
       x="225.56786"
       y="98.201057"
       transform="rotate(90)" /><rect
       style="fill:#a1a1a1;fill-opacity:1;stroke-width:0.264583"
       id="rect43"
       width="12.43916"
       height="15.697036"
       x="249.94496"
       y="98.201057"
       transform="rotate(90)" /><rect
       style="fill:#a1a1a1;fill-opacity:1;stroke-width:0.264583"
       id="rect44"
       width="12.43916"
       height="15.697036"
       x="274.32205"
       y="98.201057"
       transform="rotate(90)" /><rect
       style="fill:#a1a1a1;fill-opacity:1;stroke-width:0.264583"
       id="rect45"
       width="12.43916"
       height="15.697036"
       x="-42.580345"
       y="-334.97452"
       transform="rotate(90)" /><rect
       style="fill:#a1a1a1;fill-opacity:1;stroke-width:0.264583"
       id="rect46"
       width="12.43916"
       height="15.697036"
       x="-18.203236"
       y="-334.97452"
       transform="rotate(90)" /><rect
       style="fill:#a1a1a1;fill-opacity:1;stroke-width:0.264583"
       id="rect47"
       width="12.43916"
       height="15.697036"
       x="6.173872"
       y="-334.97452"
       transform="rotate(90)" /><rect
       style="fill:#a1a1a1;fill-opacity:1;stroke-width:0.264583"
       id="rect48"
       width="12.43916"
       height="15.697036"
       x="30.550982"
       y="-334.97452"
       transform="rotate(90)" /><rect
       style="fill:#a1a1a1;fill-opacity:1;stroke-width:0.264583"
       id="rect49"
       width="12.43916"
       height="15.697036"
       x="54.928089"
       y="-334.97452"
       transform="rotate(90)" /><rect
       style="fill:#a1a1a1;fill-opacity:1;stroke-width:0.264583"
       id="rect50"
       width="12.43916"
       height="15.697036"
       x="79.305199"
       y="-334.97452"
       transform="rotate(90)" /><rect
       style="fill:#a1a1a1;fill-opacity:1;stroke-width:0.264583"
       id="rect51"
       width="12.43916"
       height="15.697036"
       x="103.6823"
       y="-334.97452"
       transform="rotate(90)" /><rect
       style="fill:#a1a1a1;fill-opacity:1;stroke-width:0.264583"
       id="rect52"
       width="12.43916"
       height="15.697036"
       x="128.05942"
       y="-334.97452"
       transform="rotate(90)" /><rect
       style="fill:#a1a1a1;fill-opacity:1;stroke-width:0.264583"
       id="rect53"
       width="12.43916"
       height="15.697036"
       x="152.43652"
       y="-334.97452"
       transform="rotate(90)" /><rect
       style="fill:#a1a1a1;fill-opacity:1;stroke-width:0.264583"
       id="rect54"
       width="12.43916"
       height="15.697036"
       x="176.81363"
       y="-334.97452"
       transform="rotate(90)" /><rect
       style="fill:#a1a1a1;fill-opacity:1;stroke-width:0.264583"
       id="rect55"
       width="12.43916"
       height="15.697036"
       x="201.19073"
       y="-334.97452"
       transform="rotate(90)" /><rect
       style="fill:#a1a1a1;fill-opacity:1;stroke-width:0.264583"
       id="rect56"
       width="12.43916"
       height="15.697036"
       x="225.56786"
       y="-334.97452"
       transform="rotate(90)" /><rect
       style="fill:#a1a1a1;fill-opacity:1;stroke-width:0.264583"
       id="rect57"
       width="12.43916"
       height="15.697036"
       x="249.94496"
       y="-334.97452"
       transform="rotate(90)" /><rect
       style="fill:#a1a1a1;fill-opacity:1;stroke-width:0.264583"
       id="rect58"
       width="12.43916"
       height="15.697036"
       x="274.32205"
       y="-334.97452"
       transform="rotate(90)" /><rect
       style="fill:#262626;fill-opacity:1;stroke-width:0.264583"
       id="rect1"
       width="427.52353"
       height="424.59531"
       x="-103.22059"
       y="-92.23967" /><g
       id="g58"
       transform="matrix(2.5502413,0,0,2.5502413,23.224101,-37.167111)"><path
         id="path1"
         d="m 19.627815,9.6242833e-4 0.0016,4.0527167e-4 c -0.4683,0.0145 -0.972473,0.18760342 -1.544473,0.63890342 -1.4012,-0.5403 -2.759958,-0.72816752 -3.974858,0.37183248 -1.876,-0.2433 -2.485607,0.2589843 -2.947507,0.8451843 -0.4119,-0.0085 -3.0818649,-0.4233656 -4.3061649,1.4030344 -3.077,-0.364 -4.0494069,1.809868 -2.9475069,3.837068 -0.6284,0.9729 -1.2795298,1.9338359 0.1900702,3.7884357 -0.5199,1.033 -0.1976534,2.153612 1.0269466,3.509612 -0.3232,1.4521 0.3118638,2.476563 1.4514638,3.274963 -0.2131,1.9871 1.8223835,3.142492 2.4301835,3.554192 0.2333,1.1578 0.7195658,2.250398 3.0443657,2.854498 0.3834,1.7255 1.780727,2.023404 3.133727,2.385604 -4.4718,2.5993 -8.3068205,6.019389 -8.2808205,14.410889 L 6.249951,42.043969 c -5.1276,3.1182 -9.7408424,13.140347 -2.5270424,21.286447 0.4712,2.55 1.2615397,4.381387 1.9651397,6.408487 1.0524,8.1682 7.9207847,11.993044 9.7322847,12.445344 2.6546,2.022 5.481867,3.940682 9.307767,5.284682 3.6066,3.7196 7.513911,5.137235 11.442511,5.134935 0.0576,0 0.11616,6e-4 0.17386,0 3.9286,0.0024 7.835811,-1.415135 11.442511,-5.134935 3.8258,-1.344 6.653167,-3.262682 9.307767,-5.284682 1.8115,-0.4524 8.679682,-4.277144 9.732082,-12.445344 0.7036,-2.0271 1.49394,-3.858587 1.96514,-6.408487 7.2137,-8.1467 2.600557,-18.169463 -2.527043,-21.287663 l -0.655924,-1.168384 c 0.026,-8.391 -3.808818,-11.81089 -8.280618,-14.41089 1.353,-0.362 2.750224,-0.660104 3.133524,-2.385604 2.3248,-0.6042 2.811268,-1.696798 3.044568,-2.854498 0.6078,-0.4116 2.642981,-1.566889 2.429981,-3.553989 1.1394,-0.7985 1.774764,-1.823165 1.451464,-3.275165 1.2247,-1.356 1.547149,-2.476613 1.027149,-3.509613 1.4699,-1.8537996 0.81767,-2.814825 0.19007,-3.787625 1.1011,-2.0272 0.12948,-4.201168 -2.94852,-3.837068 -1.224,-1.8265 -3.893161,-1.4115343 -4.305961,-1.4030343 -0.4619,-0.5862 -1.071407,-1.08838174 -2.947507,-0.8449817 -1.2149,-1.10010003 -2.573357,-0.91243514 -3.974657,-0.37203514 -1.6639,-1.313 -2.76508,-0.26051449 -4.02268,0.13738551 -2.0145,-0.6582 -2.47493,0.24353733 -3.46483,0.61073733 -2.197,-0.46429996 -2.864516,0.5463653 -3.917716,1.6131653 L 41.798149,2.976838 c -3.3138,1.9528 -4.960045,5.9292257 -5.543445,7.973426 -0.5838,-2.0446003 -2.226089,-6.021026 -5.539189,-7.973426 l -1.225122,0.024316 c -1.0545,-1.0668 -1.722032,-2.07746526 -3.918932,-1.6131653 -0.9899,-0.3672 -1.449233,-1.26893733 -3.465033,-0.61073733 -0.8254,-0.2611 -1.584713,-0.80398894 -2.478613,-0.77628894167 z M 52.966699,2.3470531 c -0.46,0.5689 -1.102872,1.1243037 -0.421072,1.7777037 0.9397,-0.5957 1.885407,-1.1905758 4.117107,-1.6139758 -0.5029,0.5692 -1.542656,1.1383925 -0.912256,1.7075925 1.1798,-0.4575 2.485172,-0.7896699 3.929672,-0.9825699 -0.6917,0.5777 -1.26872,1.143273 -0.70172,1.590673 1.2626,-0.3943 3.002108,-0.9253781 4.701908,-0.4676781 l -1.075984,1.0992867 c -0.1194,0.1471 2.51713,0.1144224 4.25733,0.1402224 -0.6351,0.8956 -1.282784,1.7602682 -1.660784,3.2984682 0.1724,0.1774 1.034817,0.0789 1.848017,0 -0.8338,1.7820002 -2.281848,2.2316122 -2.619848,2.9941122 0.5094,0.3916 1.21584,0.289706 1.98824,0.02351 -0.6002,1.2555 -1.859088,2.115535 -2.853688,3.134335 0.2515,0.1812 0.690595,0.28943 1.730895,0.16393 -0.9191,0.9916 -2.029274,1.898063 -3.345074,2.713263 0.233,0.2734 1.034404,0.26255 1.777704,0.28085 -1.1919,1.1842 -2.726013,1.79824 -4.163713,2.57304 0.7166,0.497 1.229106,0.381064 1.777906,0.374264 -1.0169,0.8481 -2.745846,1.289309 -4.350946,1.801209 0.3052,0.4817 0.610314,0.613226 1.263014,0.748326 -1.699,0.9546 -4.132427,0.518275 -4.818827,1.006075 0.1657,0.4797 0.633106,0.791981 1.193106,1.052681 -2.7352,0.1612 -10.2155,-0.101205 -11.6494,-5.848205 2.799722,-3.12299 7.909826,-6.788046 16.698622,-11.3203233 -6.838314,2.3237593 -13.008314,5.4209193 -18.172375,9.6830443 -6.072,-2.8701 -1.886216,-10.1086256 1.075984,-12.9825256 0.1502,0.7589 0.320389,1.2387367 0.514689,1.3801367 0.9645,-1.0495 1.752412,-2.1245376 2.994112,-3.1345376 0.004,0.5933 -0.294622,1.2368925 0.444578,1.7075925 0.6657,-0.9092 1.565574,-1.7207123 2.760274,-2.4093123 -0.5754,1.0074 -0.09886,1.3133954 0.210536,1.7308954 0.9125,-0.7942 1.779293,-1.598779 3.461993,-2.222079 z M 19.746761,2.347661 c 1.6828,0.6233 2.549393,1.427879 3.461993,2.222079 0.3094,-0.4175 0.786036,-0.7233954 0.210536,-1.7308954 1.1948,0.6887 2.094574,1.5001123 2.760274,2.4093123 0.7393,-0.4707 0.440478,-1.1143925 0.444578,-1.7075925 1.2416,1.01 2.029512,2.0849376 2.994112,3.1345376 0.1943,-0.1415 0.364489,-0.6212367 0.514689,-1.3801367 2.9623,2.8739 7.147984,10.1125257 1.075984,12.9825257 -5.164354,-4.259323 -11.331522,-7.355985 -18.165688,-9.679397 8.784372,4.529774 13.892645,8.194727 16.691327,11.316068 -1.4339,5.747 -8.9142,6.009405 -11.6494,5.848205 0.56,-0.2607 1.027406,-0.572981 1.193106,-1.052681 -0.6863,-0.4878 -3.119927,-0.05147 -4.818827,-1.006075 0.6526,-0.1351 0.957814,-0.266626 1.263014,-0.748326 -1.6051,-0.5119 -3.333946,-0.953109 -4.350946,-1.801209 0.5488,0.0068 1.061103,0.122736 1.777703,-0.374264 -1.4377,-0.7748 -2.971813,-1.38884 -4.1637127,-2.57304 0.7433,-0.0183 1.5447037,-0.0075 1.7777037,-0.28085 -1.3158,-0.8152 -2.4258712,-1.721663 -3.3448712,-2.713263 1.0402,0.1255 1.4792954,0.01727 1.7308954,-0.16393 -0.9947,-1.0188 -2.2536903,-1.878835 -2.8538903,-3.134335 0.7724,0.2662 1.4790426,0.368094 1.9884426,-0.02351 -0.338,-0.7625 -1.7862512,-1.212112 -2.6200512,-2.9941122 0.8132,0.0789 1.6757202,0.1774 1.8482202,0 -0.3774,-1.5376 -1.0250763,-2.4020576 -1.6601763,-3.2976576 1.7402,-0.0259 4.3767298,0.00667 4.2573298,-0.1404251 L 9.0331222,4.3592038 c 1.6997998,-0.4577 3.4392078,0.073581 4.7019078,0.4678807 0.567,-0.4474 -0.01012,-1.013073 -0.701923,-1.590673 1.4446,0.1928 2.750075,0.5251699 3.929875,0.9825699 0.6305,-0.5692 -0.409256,-1.1383925 -0.912256,-1.7075925 2.2318,0.4234 3.177304,1.0183758 4.116904,1.6139758 0.6819,-0.6534 0.03923,-1.2088037 -0.420869,-1.7777037 z M 36.221675,26.02113 h 2.02e-4 c 4.305666,-0.0473 9.636665,3.212621 9.615365,6.284273 -0.0187,2.711 -3.744238,4.905815 -9.582538,4.864015 -5.717,-0.0682 -9.566859,-2.757986 -9.553359,-5.384986 0.0113,-2.161969 4.668103,-5.889392 9.52033,-5.763302 z m -14.652023,1.827552 c 0.962549,-0.01794 1.957524,0.05677 2.973849,0.228368 2.9952,0.5033 -14.354228,15.653011 -14.6216283,12.273511 C 9.6829977,32.637436 14.831807,27.974272 21.569652,27.848682 Z m 28.410027,0.258763 c 6.737577,0.12539 11.887059,4.787851 11.648184,12.501676 -0.2674,3.3797 -17.617031,-11.770108 -14.621831,-12.273308 1.01625,-0.1716 2.011136,-0.246281 2.973647,-0.228368 z m -2.399181,9.440695 a 11.143921,9.4450199 55.9658 0 1 6.862589,19.903067 11.143921,9.4450199 55.9658 1 1 -12.28729,-18.594258 11.143921,9.4450199 55.9658 0 1 5.424701,-1.308809 z m -22.284011,0.483483 a 9.445,11.1439 34.0342 0 1 5.082048,1.343055 9.445,11.1439 34.0342 1 1 -12.28729,18.594055 9.445,11.1439 34.0342 0 1 7.205242,-19.93711 z m 37.296925,5.702715 c 0.132151,-0.0022 0.271612,0.01587 0.418843,0.05532 7.8169,4.4639 6.458845,14.396176 2.242545,17.787776 -3.713219,1.64949 -6.758066,-17.775154 -2.661388,-17.843096 z M 8.9899612,43.993101 c 4.0962528,0.06752 1.0516278,19.49137 -2.661591,17.84188 C 2.1119702,58.443781 0.75391518,48.51222 8.5709151,44.04842 8.7181308,44.00896 8.857824,43.99092 8.9899612,43.9931 Z M 36.471927,57.361238 a 10.5306,9.7105 0 0 1 10.530458,9.75275 10.5306,9.7105 0 1 1 -21.060916,0 10.5306,9.7105 0 0 1 10.530458,-9.75275 z m 23.275295,3.656522 c 0.822559,-0.02145 1.592444,0.209501 2.286719,0.746501 1.8695,1.8629 2.966213,8.877769 -0.306787,13.078169 -4.5073,6.2542 -10.609223,6.497808 -12.882223,4.755808 -2.3773,-2.2422 -0.562761,-9.204228 2.696039,-13.021228 v -0.001 c 2.796825,-3.15795 5.738573,-5.493897 8.206252,-5.558237 z m -47.272775,1.490572 c 2.65125,0.113634 5.825478,2.210875 8.418003,5.218825 h -2.02e-4 c 3.012,3.6288 4.385123,10.003939 1.871523,11.883239 -2.378,1.4346 -8.152903,0.843732 -12.257503,-5.052868 -2.7682006,-4.948 -2.4112788,-9.982964 -0.467678,-11.461964 0.726625,-0.44265 1.552107,-0.62511 2.435857,-0.587232 z m 24.043681,17.383522 v 2.03e-4 c 4.2305,-0.1847 9.907202,1.362585 9.918302,3.415185 0.0702,1.9931 -5.14825,6.496398 -10.19895,6.409298 -5.2306,0.2257 -10.359666,-4.284703 -10.292566,-5.848003 -0.0783,-2.2922 6.369114,-4.081883 10.573214,-3.976683 z"
         style="fill:#c6bb9a;fill-opacity:1" /><circle
         style="fill:#c6bb9a;fill-opacity:1;stroke-width:0.114587"
         id="path58"
         cx="-29.590252"
         cy="-0.3369121"
         r="5.5727501" /><text
         xml:space="preserve"
         style="font-size:21.0367px;font-family:ISOCPEUR;-inkscape-font-specification:ISOCPEUR;text-align:start;letter-spacing:0.860595px;writing-mode:lr-tb;direction:ltr;text-anchor:start;fill:#c6bb9a;fill-opacity:1;stroke-width:0.71716"
         x="-35.419044"
         y="110.06379"
         id="text58"><tspan
           sodipodi:role="line"
           id="tspan58"
           style="stroke-width:0.71716"
           x="-35.419044"
           y="110.06379">RP2-B2  </tspan></text><text
         xml:space="preserve"
         style="font-size:21.0367px;font-family:ISOCPEUR;-inkscape-font-specification:ISOCPEUR;text-align:start;letter-spacing:0.860595px;writing-mode:lr-tb;direction:ltr;text-anchor:start;fill:#c6bb9a;fill-opacity:1;stroke-width:0.71716"
         x="59.016479"
         y="110.06379"
         id="text59"><tspan
           sodipodi:role="line"
           id="tspan59"
           style="stroke-width:0.71716"
           x="59.016479"
           y="110.06379">21/24</tspan></text><text
         xml:space="preserve"
         style="font-size:21.0367px;font-family:ISOCPEUR;-inkscape-font-specification:ISOCPEUR;text-align:start;letter-spacing:0.860595px;writing-mode:lr-tb;direction:ltr;text-anchor:start;fill:#c6bb9a;fill-opacity:1;stroke-width:0.71716"
         x="-35.268433"
         y="129.19188"
         id="text60"><tspan
           sodipodi:role="line"
           id="tspan60"
           style="stroke-width:0.71716"
           x="-35.268433"
           y="129.19188">P65W87.00</tspan></text></g></g></svg>
